<svg width="343" height="166" viewBox="0 0 343 166" fill="none" xmlns="http://www.w3.org/2000/svg">
<g clip-path="url(#clip0_2_125)">
<path d="M343 166C343 121.974 324.931 79.7513 292.769 48.6203C260.606 17.4892 216.985 3.32387e-06 171.5 0C126.015 -3.32387e-06 82.3937 17.4892 50.2312 48.6203C18.0687 79.7513 6.86799e-06 121.974 0 166L171.5 166H343Z" fill="#E56E0C"/>
<path fill-rule="evenodd" clip-rule="evenodd" d="M288.596 52.9315C318.146 81.5335 335.325 119.806 336.884 160L6.1163 160C7.67534 119.806 24.8545 81.5334 54.4041 52.9315C85.4275 22.903 127.545 6 171.5 6C215.455 6 257.573 22.903 288.596 52.9315ZM0.111941 160C0.037439 161.996 3.12626e-07 163.996 0 166L343 166C343 163.996 342.963 161.996 342.888 160C341.326 118.153 323.467 78.3342 292.769 48.6203C260.606 17.4892 216.985 0 171.5 0C126.015 0 82.3937 17.4892 50.2312 48.6203C19.5327 78.3342 1.67416 118.153 0.111941 160Z" fill="#F3EDE1"/>
<path d="M322.42 166C322.42 127.257 306.52 90.1012 278.217 62.7058C249.914 35.3105 211.526 19.92 171.5 19.92C131.473 19.92 93.0864 35.3105 64.7834 62.7058C36.4804 90.1011 20.58 127.257 20.58 166L171.5 166H322.42Z" fill="#E56E0C"/>
<path fill-rule="evenodd" clip-rule="evenodd" d="M274.044 67.017C299.733 91.8824 314.74 125.09 316.287 160L26.7128 160C28.2602 125.09 43.2671 91.8824 68.9564 67.017C96.1202 40.7243 133.003 25.92 171.5 25.92C209.997 25.92 246.88 40.7243 274.044 67.017ZM20.7072 160C20.6225 161.995 20.58 163.995 20.58 166L322.42 166C322.42 163.995 322.377 161.995 322.293 160C320.741 123.438 305.055 88.6837 278.217 62.7058C249.914 35.3105 211.526 19.92 171.5 19.92C131.473 19.92 93.0864 35.3105 64.7834 62.7058C37.9449 88.6837 22.2586 123.438 20.7072 160Z" fill="#F3EDE1"/>
<path d="M301.84 166C301.84 132.54 288.108 100.451 263.664 76.7914C239.221 53.1318 206.068 39.84 171.5 39.84C136.932 39.84 103.779 53.1318 79.3357 76.7914C54.8923 100.451 41.16 132.54 41.16 166L171.5 166H301.84Z" fill="#E56E0C"/>
<path fill-rule="evenodd" clip-rule="evenodd" d="M259.491 81.1026C281.32 102.231 294.153 130.376 295.685 160L47.315 160C48.8468 130.376 61.6801 102.231 83.5087 81.1026C106.813 58.5456 138.461 45.84 171.5 45.84C204.539 45.84 236.187 58.5456 259.491 81.1026ZM41.3074 160C41.2094 161.994 41.16 163.995 41.16 166L301.84 166C301.84 163.995 301.791 161.994 301.693 160C300.155 128.724 286.643 99.0329 263.664 76.7914C239.221 53.1318 206.068 39.84 171.5 39.84C136.932 39.84 103.779 53.1318 79.3357 76.7914C56.3573 99.0329 42.8446 128.724 41.3074 160Z" fill="#F3EDE1"/>
<path d="M281.26 166C281.26 137.823 269.696 110.801 249.112 90.877C228.528 70.9531 200.61 59.76 171.5 59.76C142.39 59.76 114.472 70.9531 93.888 90.877C73.304 110.801 61.74 137.823 61.74 166L171.5 166H281.26Z" fill="#E56E0C"/>
<path fill-rule="evenodd" clip-rule="evenodd" d="M275.074 160C273.564 135.662 262.906 112.579 244.939 95.1882C225.494 76.3669 199.081 65.76 171.5 65.76C143.919 65.76 117.506 76.3669 98.0609 95.1882C80.0935 112.579 69.4359 135.662 67.9259 160L275.074 160ZM281.085 160C279.567 134.011 268.23 109.382 249.112 90.877C228.528 70.9531 200.61 59.76 171.5 59.76C142.39 59.76 114.472 70.9531 93.888 90.877C74.7698 109.382 63.4328 134.011 61.915 160C61.7986 161.993 61.74 163.993 61.74 166L281.26 166C281.26 163.993 281.201 161.993 281.085 160Z" fill="#F3EDE1"/>
<path d="M260.68 166C260.68 143.106 251.284 121.151 234.56 104.962C217.835 88.7743 195.152 79.6799 171.5 79.6799C147.848 79.6799 125.165 88.7743 108.44 104.962C91.7157 121.151 82.3199 143.106 82.3199 166L171.5 166H260.68Z" fill="#E56E0C"/>
<path fill-rule="evenodd" clip-rule="evenodd" d="M254.448 160C252.97 140.949 244.492 122.927 230.387 109.274C214.801 94.1881 193.623 85.6799 171.5 85.6799C149.377 85.6799 128.198 94.1881 112.613 109.274C98.5078 122.927 90.0298 140.949 88.5522 160L254.448 160ZM260.464 160C258.975 139.299 249.817 119.731 234.56 104.962C217.835 88.7743 195.152 79.6799 171.5 79.6799C147.848 79.6799 125.165 88.7743 108.44 104.962C93.1828 119.731 84.0248 139.299 82.5355 160C82.3923 161.991 82.3199 163.992 82.3199 166L260.68 166C260.68 163.992 260.608 161.991 260.464 160Z" fill="#F3EDE1"/>
<path d="M240.1 166C240.1 148.39 232.873 131.501 220.008 119.048C207.143 106.596 189.694 99.6 171.5 99.6C153.306 99.6 135.858 106.596 122.993 119.048C110.128 131.5 102.9 148.39 102.9 166L171.5 166H240.1Z" fill="#E56E0C"/>
<path fill-rule="evenodd" clip-rule="evenodd" d="M233.79 160C232.367 146.239 226.076 133.272 215.835 123.359C204.109 112.009 188.165 105.6 171.5 105.6C154.836 105.6 138.891 112.009 127.165 123.359C116.924 133.272 110.633 146.239 109.21 160L233.79 160ZM239.82 160C238.376 144.59 231.403 130.078 220.008 119.048C207.143 106.596 189.694 99.6 171.5 99.6C153.306 99.6 135.858 106.596 122.993 119.048C111.597 130.078 104.624 144.59 103.18 160C102.994 161.987 102.9 163.989 102.9 166L240.1 166C240.1 163.989 240.006 161.987 239.82 160Z" fill="#F3EDE1"/>
<path d="M219.52 166C219.52 153.673 214.461 141.85 205.455 133.134C196.45 124.417 184.236 119.52 171.5 119.52C158.764 119.52 146.55 124.417 137.545 133.134C128.539 141.85 123.48 153.673 123.48 166L171.5 166H219.52Z" fill="#E56E0C"/>
<path fill-rule="evenodd" clip-rule="evenodd" d="M213.056 160C211.739 151.535 207.655 143.613 201.282 137.445C193.416 129.831 182.706 125.52 171.5 125.52C160.294 125.52 149.584 129.831 141.718 137.445C135.345 143.613 131.261 151.535 129.944 160L213.056 160ZM219.118 160C217.758 149.887 212.987 140.424 205.455 133.134C196.45 124.417 184.236 119.52 171.5 119.52C158.764 119.52 146.55 124.417 137.545 133.134C130.013 140.424 125.242 149.887 123.882 160C123.615 161.979 123.48 163.983 123.48 166L219.52 166C219.52 163.983 219.384 161.979 219.118 160Z" fill="#F3EDE1"/>
</g>
<defs>
<clipPath id="clip0_2_125">
<rect width="343" height="166" fill="white"/>
</clipPath>
</defs>
</svg>
