<svg width="3258" height="166" viewBox="0 0 3258 166" fill="none" xmlns="http://www.w3.org/2000/svg">
<path d="M2912.77 0C2912.77 44.0259 2930.96 86.2487 2963.33 117.38C2995.7 148.511 3039.61 166 3085.39 166C3131.17 166 3175.07 148.511 3207.44 117.38C3239.81 86.2487 3258 44.026 3258 3.05176e-05L3085.39 0H2912.77Z" fill="#F3EDE1"/>
<path fill-rule="evenodd" clip-rule="evenodd" d="M2967.53 113.069C2937.79 84.4665 2920.5 46.1945 2918.93 6L3251.84 6.00003C3250.27 46.1945 3232.98 84.4666 3203.24 113.069C3172.02 143.097 3129.63 160 3085.39 160C3041.15 160 2998.76 143.097 2967.53 113.069ZM3257.89 6.00003C3257.96 4.00435 3258 2.00406 3258 3.05176e-05L2912.77 0C2912.77 2.00403 2912.81 4.00432 2912.89 6C2914.46 47.8468 2932.43 87.6658 2963.33 117.38C2995.7 148.511 3039.61 166 3085.39 166C3131.17 166 3175.07 148.511 3207.44 117.38C3238.34 87.6658 3256.31 47.8469 3257.89 6.00003Z" fill="#C6A272" fill-opacity="0.6"/>
<path d="M2933.49 0C2933.49 38.7428 2949.49 75.8988 2977.98 103.294C3006.47 130.689 3045.1 146.08 3085.39 146.08C3125.67 146.08 3164.31 130.689 3192.8 103.294C3221.28 75.8989 3237.29 38.7428 3237.29 1.52588e-05L3085.39 0H2933.49Z" fill="#F3EDE1"/>
<path fill-rule="evenodd" clip-rule="evenodd" d="M2982.18 98.983C2956.32 74.1176 2941.22 40.9097 2939.66 6L3231.11 6.00002C3229.56 40.9097 3214.45 74.1176 3188.6 98.983C3161.26 125.276 3124.13 140.08 3085.39 140.08C3046.64 140.08 3009.52 125.276 2982.18 98.983ZM3237.16 6.00002C3237.24 4.00502 3237.29 2.00464 3237.29 1.52588e-05L2933.49 0C2933.49 2.00462 2933.53 4.005 2933.62 6C2935.18 42.5617 2950.97 77.3163 2977.98 103.294C3006.47 130.689 3045.1 146.08 3085.39 146.08C3125.67 146.08 3164.31 130.689 3192.8 103.294C3219.81 77.3163 3235.6 42.5618 3237.16 6.00002Z" fill="#C6A272" fill-opacity="0.6"/>
<path d="M2954.2 0C2954.2 33.4597 2968.02 65.549 2992.63 89.2086C3017.23 112.868 3050.59 126.16 3085.39 126.16C3120.18 126.16 3153.55 112.868 3178.15 89.2086C3202.75 65.549 3216.57 33.4597 3216.57 1.52588e-05L3085.39 0H2954.2Z" fill="#F3EDE1"/>
<path fill-rule="evenodd" clip-rule="evenodd" d="M2996.83 84.8974C2974.86 63.7689 2961.94 35.6244 2960.4 6L3210.38 6.00002C3208.84 35.6244 3195.92 63.7689 3173.95 84.8974C3150.49 107.454 3118.64 120.16 3085.39 120.16C3052.13 120.16 3020.28 107.454 2996.83 84.8974ZM3216.42 6.00002C3216.52 4.00595 3216.57 2.00545 3216.57 1.52588e-05L2954.2 0C2954.2 2.00543 2954.25 4.00594 2954.35 6C2955.9 37.276 2969.5 66.9671 2992.63 89.2086C3017.23 112.868 3050.59 126.16 3085.39 126.16C3120.18 126.16 3153.55 112.868 3178.15 89.2086C3201.28 66.9671 3214.88 37.276 3216.42 6.00002Z" fill="#C6A272" fill-opacity="0.6"/>
<path d="M2974.92 -7.62939e-06C2974.92 28.1766 2986.55 55.1991 3007.27 75.123C3027.99 95.0469 3056.09 106.24 3085.39 106.24C3114.69 106.24 3142.79 95.0469 3163.5 75.123C3184.22 55.1992 3195.86 28.1766 3195.86 7.62939e-06L3085.39 -7.62939e-06H2974.92Z" fill="#F3EDE1"/>
<path fill-rule="evenodd" clip-rule="evenodd" d="M2981.14 5.99999C2982.66 30.3383 2993.39 53.4206 3011.47 70.8118C3031.04 89.6331 3057.63 100.24 3085.39 100.24C3113.15 100.24 3139.73 89.6331 3159.3 70.8118C3177.39 53.4207 3188.11 30.3383 3189.63 6.00001L2981.14 5.99999ZM2975.09 5.99999C2976.62 31.9894 2988.03 56.618 3007.27 75.123C3027.99 95.0469 3056.09 106.24 3085.39 106.24C3114.69 106.24 3142.79 95.0469 3163.5 75.123C3182.75 56.618 3194.16 31.9894 3195.68 6.00001C3195.8 4.00729 3195.86 2.00658 3195.86 7.62939e-06L2974.92 -7.62939e-06C2974.92 2.00656 2974.97 4.00728 2975.09 5.99999Z" fill="#C6A272" fill-opacity="0.6"/>
<path d="M2995.63 6.86646e-05C2995.63 22.8936 3005.09 44.8494 3021.92 61.0375C3038.75 77.2257 3061.58 86.3201 3085.39 86.3201C3109.19 86.3201 3132.02 77.2257 3148.86 61.0375C3165.69 44.8494 3175.15 22.8936 3175.15 8.39233e-05L3085.39 6.86646e-05H2995.63Z" fill="#F3EDE1"/>
<path fill-rule="evenodd" clip-rule="evenodd" d="M3001.9 6.00007C3003.39 25.0509 3011.92 43.0734 3026.12 56.7263C3041.81 71.8119 3063.12 80.3201 3085.39 80.3201C3107.65 80.3201 3128.97 71.8119 3144.66 56.7263C3158.85 43.0734 3167.39 25.0509 3168.87 6.00008L3001.9 6.00007ZM2995.85 6.00007C2997.34 26.7013 3006.56 46.2695 3021.92 61.0375C3038.75 77.2257 3061.58 86.3201 3085.39 86.3201C3109.19 86.3201 3132.02 77.2257 3148.86 61.0375C3164.21 46.2695 3173.43 26.7013 3174.93 6.00008C3175.07 4.00948 3175.15 2.00838 3175.15 8.39233e-05L2995.63 6.86646e-05C2995.63 2.00837 2995.7 4.00946 2995.85 6.00007Z" fill="#C6A272" fill-opacity="0.6"/>
<path d="M3016.34 -9.91821e-05C3016.34 17.6103 3023.62 34.4994 3036.57 46.9518C3049.51 59.4042 3067.08 66.3999 3085.39 66.3999C3103.7 66.3999 3121.26 59.4042 3134.21 46.9518C3147.16 34.4994 3154.43 17.6103 3154.43 -9.15527e-05L3085.39 -9.91821e-05H3016.34Z" fill="#F3EDE1"/>
<path fill-rule="evenodd" clip-rule="evenodd" d="M3022.69 5.9999C3024.13 19.7607 3030.46 32.7277 3040.77 42.6406C3052.57 53.9904 3068.61 60.3999 3085.39 60.3999C3102.16 60.3999 3118.21 53.9904 3130.01 42.6406C3140.32 32.7277 3146.65 19.7607 3148.08 5.99991L3022.69 5.9999ZM3016.62 5.9999C3018.08 21.4102 3025.1 35.9215 3036.57 46.9518C3049.51 59.4042 3067.08 66.3999 3085.39 66.3999C3103.7 66.3999 3121.26 59.4042 3134.21 46.9518C3145.68 35.9216 3152.7 21.4102 3154.15 5.99991C3154.34 4.01301 3154.43 2.01116 3154.43 -9.15527e-05L3016.34 -9.91821e-05C3016.34 2.01115 3016.44 4.013 3016.62 5.9999Z" fill="#C6A272" fill-opacity="0.6"/>
<path d="M3037.06 -1.90735e-05C3037.06 12.3272 3042.15 24.1496 3051.21 32.8663C3060.28 41.583 3072.57 46.48 3085.39 46.48C3098.21 46.48 3110.5 41.583 3119.56 32.8663C3128.63 24.1496 3133.72 12.3273 3133.72 -1.14441e-05L3085.39 -1.90735e-05H3037.06Z" fill="#F3EDE1"/>
<path fill-rule="evenodd" clip-rule="evenodd" d="M3043.56 5.99998C3044.89 14.4649 3049 22.387 3055.41 28.5551C3063.33 36.1692 3074.11 40.48 3085.39 40.48C3096.67 40.48 3107.45 36.1692 3115.36 28.5551C3121.78 22.387 3125.89 14.4649 3127.21 5.99999L3043.56 5.99998ZM3037.46 5.99998C3038.83 16.1135 3043.63 25.5761 3051.21 32.8663C3060.28 41.583 3072.57 46.48 3085.39 46.48C3098.21 46.48 3110.5 41.583 3119.56 32.8663C3127.14 25.5761 3131.95 16.1135 3133.31 5.99999C3133.58 4.02111 3133.72 2.01731 3133.72 -1.14441e-05L3037.06 -1.90735e-05C3037.06 2.0173 3037.19 4.0211 3037.46 5.99998Z" fill="#C6A272" fill-opacity="0.6"/>
<path d="M1760.35 0C1760.35 44.0259 1778.53 86.2487 1810.9 117.38C1843.27 148.511 1887.18 166 1932.96 166C1978.74 166 2022.64 148.511 2055.01 117.38C2087.39 86.2487 2105.57 44.026 2105.57 3.05176e-05L1932.96 0H1760.35Z" fill="#F3EDE1"/>
<path fill-rule="evenodd" clip-rule="evenodd" d="M1815.1 113.069C1785.36 84.4665 1768.07 46.1945 1766.5 6L2099.42 6.00003C2097.85 46.1945 2080.56 84.4666 2050.81 113.069C2019.59 143.097 1977.2 160 1932.96 160C1888.72 160 1846.33 143.097 1815.1 113.069ZM2105.46 6.00003C2105.53 4.00435 2105.57 2.00406 2105.57 3.05176e-05L1760.35 0C1760.35 2.00403 1760.38 4.00432 1760.46 6C1762.03 47.8468 1780.01 87.6658 1810.9 117.38C1843.27 148.511 1887.18 166 1932.96 166C1978.74 166 2022.64 148.511 2055.01 117.38C2085.91 87.6658 2103.89 47.8469 2105.46 6.00003Z" fill="#C6A272" fill-opacity="0.6"/>
<path d="M1781.06 0C1781.06 38.7428 1797.06 75.8988 1825.55 103.294C1854.04 130.689 1892.67 146.08 1932.96 146.08C1973.25 146.08 2011.88 130.689 2040.37 103.294C2068.85 75.8989 2084.86 38.7428 2084.86 1.52588e-05L1932.96 0H1781.06Z" fill="#F3EDE1"/>
<path fill-rule="evenodd" clip-rule="evenodd" d="M1829.75 98.983C1803.89 74.1176 1788.79 40.9097 1787.23 6L2078.69 6.00002C2077.13 40.9097 2062.02 74.1176 2036.17 98.983C2008.83 125.276 1971.71 140.08 1932.96 140.08C1894.21 140.08 1857.09 125.276 1829.75 98.983ZM2084.73 6.00002C2084.82 4.00502 2084.86 2.00464 2084.86 1.52588e-05L1781.06 0C1781.06 2.00462 1781.1 4.005 1781.19 6C1782.75 42.5617 1798.54 77.3163 1825.55 103.294C1854.04 130.689 1892.67 146.08 1932.96 146.08C1973.25 146.08 2011.88 130.689 2040.37 103.294C2067.38 77.3163 2083.17 42.5618 2084.73 6.00002Z" fill="#C6A272" fill-opacity="0.6"/>
<path d="M1801.77 0C1801.77 33.4597 1815.59 65.549 1840.2 89.2086C1864.8 112.868 1898.17 126.16 1932.96 126.16C1967.75 126.16 2001.12 112.868 2025.72 89.2086C2050.32 65.549 2064.14 33.4597 2064.14 1.52588e-05L1932.96 0H1801.77Z" fill="#F3EDE1"/>
<path fill-rule="evenodd" clip-rule="evenodd" d="M1844.4 84.8974C1822.43 63.7689 1809.51 35.6244 1807.97 6L2057.95 6.00002C2056.41 35.6244 2043.49 63.7689 2021.52 84.8974C1998.07 107.454 1966.21 120.16 1932.96 120.16C1899.71 120.16 1867.85 107.454 1844.4 84.8974ZM2064 6.00002C2064.1 4.00595 2064.14 2.00545 2064.14 1.52588e-05L1801.77 0C1801.77 2.00543 1801.82 4.00594 1801.92 6C1803.47 37.276 1817.07 66.9671 1840.2 89.2086C1864.8 112.868 1898.17 126.16 1932.96 126.16C1967.75 126.16 2001.12 112.868 2025.72 89.2086C2048.85 66.9671 2062.45 37.276 2064 6.00002Z" fill="#C6A272" fill-opacity="0.6"/>
<path d="M1822.49 -7.62939e-06C1822.49 28.1766 1834.13 55.1991 1854.84 75.123C1875.56 95.0469 1903.66 106.24 1932.96 106.24C1962.26 106.24 1990.36 95.0469 2011.07 75.123C2031.79 55.1992 2043.43 28.1766 2043.43 7.62939e-06L1932.96 -7.62939e-06H1822.49Z" fill="#F3EDE1"/>
<path fill-rule="evenodd" clip-rule="evenodd" d="M1828.71 5.99999C1830.23 30.3383 1840.96 53.4206 1859.04 70.8118C1878.61 89.6331 1905.2 100.24 1932.96 100.24C1960.72 100.24 1987.3 89.6331 2006.87 70.8118C2024.96 53.4207 2035.69 30.3383 2037.21 6.00001L1828.71 5.99999ZM1822.66 5.99999C1824.19 31.9894 1835.6 56.618 1854.84 75.123C1875.56 95.0469 1903.66 106.24 1932.96 106.24C1962.26 106.24 1990.36 95.0469 2011.07 75.123C2030.32 56.618 2041.73 31.9894 2043.26 6.00001C2043.37 4.00729 2043.43 2.00658 2043.43 7.62939e-06L1822.49 -7.62939e-06C1822.49 2.00656 1822.55 4.00728 1822.66 5.99999Z" fill="#C6A272" fill-opacity="0.6"/>
<path d="M1843.2 6.86646e-05C1843.2 22.8936 1852.66 44.8494 1869.49 61.0375C1886.32 77.2257 1909.15 86.3201 1932.96 86.3201C1956.76 86.3201 1979.6 77.2257 1996.43 61.0375C2013.26 44.8494 2022.72 22.8936 2022.72 8.39233e-05L1932.96 6.86646e-05H1843.2Z" fill="#F3EDE1"/>
<path fill-rule="evenodd" clip-rule="evenodd" d="M1849.47 6.00007C1850.96 25.0509 1859.49 43.0734 1873.69 56.7263C1889.38 71.8119 1910.69 80.3201 1932.96 80.3201C1955.23 80.3201 1976.54 71.8119 1992.23 56.7263C2006.42 43.0734 2014.96 25.0509 2016.45 6.00008L1849.47 6.00007ZM1843.42 6.00007C1844.92 26.7013 1854.13 46.2695 1869.49 61.0375C1886.32 77.2257 1909.15 86.3201 1932.96 86.3201C1956.76 86.3201 1979.6 77.2257 1996.43 61.0375C2011.78 46.2695 2021 26.7013 2022.5 6.00008C2022.64 4.00948 2022.72 2.00838 2022.72 8.39233e-05L1843.2 6.86646e-05C1843.2 2.00837 1843.27 4.00946 1843.42 6.00007Z" fill="#C6A272" fill-opacity="0.6"/>
<path d="M1863.91 -9.91821e-05C1863.91 17.6103 1871.19 34.4994 1884.14 46.9518C1897.09 59.4042 1914.65 66.3999 1932.96 66.3999C1951.27 66.3999 1968.83 59.4042 1981.78 46.9518C1994.73 34.4994 2002 17.6103 2002 -9.15527e-05L1932.96 -9.91821e-05H1863.91Z" fill="#F3EDE1"/>
<path fill-rule="evenodd" clip-rule="evenodd" d="M1870.26 5.9999C1871.7 19.7607 1878.03 32.7277 1888.34 42.6406C1900.14 53.9904 1916.19 60.3999 1932.96 60.3999C1949.73 60.3999 1965.78 53.9904 1977.58 42.6406C1987.89 32.7277 1994.22 19.7607 1995.65 5.99991L1870.26 5.9999ZM1864.2 5.9999C1865.65 21.4102 1872.67 35.9215 1884.14 46.9518C1897.09 59.4042 1914.65 66.3999 1932.96 66.3999C1951.27 66.3999 1968.83 59.4042 1981.78 46.9518C1993.25 35.9216 2000.27 21.4102 2001.72 5.99991C2001.91 4.01301 2002 2.01116 2002 -9.15527e-05L1863.91 -9.91821e-05C1863.91 2.01115 1864.01 4.013 1864.2 5.9999Z" fill="#C6A272" fill-opacity="0.6"/>
<path d="M1884.63 -1.90735e-05C1884.63 12.3272 1889.72 24.1496 1898.78 32.8663C1907.85 41.583 1920.14 46.48 1932.96 46.48C1945.78 46.48 1958.07 41.583 1967.13 32.8663C1976.2 24.1496 1981.29 12.3273 1981.29 -1.14441e-05L1932.96 -1.90735e-05H1884.63Z" fill="#F3EDE1"/>
<path fill-rule="evenodd" clip-rule="evenodd" d="M1891.13 5.99998C1892.46 14.4649 1896.57 22.387 1902.98 28.5551C1910.9 36.1692 1921.68 40.48 1932.96 40.48C1944.24 40.48 1955.02 36.1692 1962.93 28.5551C1969.35 22.387 1973.46 14.4649 1974.78 5.99999L1891.13 5.99998ZM1885.03 5.99998C1886.4 16.1135 1891.2 25.5761 1898.78 32.8663C1907.85 41.583 1920.14 46.48 1932.96 46.48C1945.78 46.48 1958.07 41.583 1967.13 32.8663C1974.72 25.5761 1979.52 16.1135 1980.89 5.99999C1981.15 4.02111 1981.29 2.01731 1981.29 -1.14441e-05L1884.63 -1.90735e-05C1884.63 2.0173 1884.76 4.0211 1885.03 5.99998Z" fill="#C6A272" fill-opacity="0.6"/>
<path d="M1173.56 0C1173.56 44.0259 1191.75 86.2487 1224.12 117.38C1256.49 148.511 1300.4 166 1346.18 166C1391.96 166 1435.86 148.511 1468.23 117.38C1500.6 86.2487 1518.79 44.026 1518.79 3.05176e-05L1346.18 0H1173.56Z" fill="#F3EDE1"/>
<path fill-rule="evenodd" clip-rule="evenodd" d="M1228.32 113.069C1198.58 84.4665 1181.29 46.1945 1179.72 6L1512.63 6.00003C1511.06 46.1945 1493.77 84.4666 1464.03 113.069C1432.81 143.097 1390.42 160 1346.18 160C1301.94 160 1259.55 143.097 1228.32 113.069ZM1518.68 6.00003C1518.75 4.00435 1518.79 2.00406 1518.79 3.05176e-05L1173.56 0C1173.56 2.00403 1173.6 4.00432 1173.68 6C1175.25 47.8468 1193.22 87.6658 1224.12 117.38C1256.49 148.511 1300.4 166 1346.18 166C1391.96 166 1435.86 148.511 1468.23 117.38C1499.13 87.6658 1517.1 47.8469 1518.68 6.00003Z" fill="#C6A272" fill-opacity="0.6"/>
<path d="M1194.28 0C1194.28 38.7428 1210.28 75.8988 1238.77 103.294C1267.25 130.689 1305.89 146.08 1346.18 146.08C1386.46 146.08 1425.1 130.689 1453.59 103.294C1482.07 75.8989 1498.08 38.7428 1498.08 1.52588e-05L1346.18 0H1194.28Z" fill="#F3EDE1"/>
<path fill-rule="evenodd" clip-rule="evenodd" d="M1242.97 98.983C1217.11 74.1176 1202.01 40.9097 1200.45 6L1491.9 6.00002C1490.35 40.9097 1475.24 74.1176 1449.39 98.983C1422.05 125.276 1384.92 140.08 1346.18 140.08C1307.43 140.08 1270.31 125.276 1242.97 98.983ZM1497.95 6.00002C1498.03 4.00502 1498.08 2.00464 1498.08 1.52588e-05L1194.28 0C1194.28 2.00462 1194.32 4.005 1194.41 6C1195.97 42.5617 1211.76 77.3163 1238.77 103.294C1267.25 130.689 1305.89 146.08 1346.18 146.08C1386.46 146.08 1425.1 130.689 1453.59 103.294C1480.6 77.3163 1496.39 42.5618 1497.95 6.00002Z" fill="#C6A272" fill-opacity="0.6"/>
<path d="M1214.99 0C1214.99 33.4597 1228.81 65.549 1253.41 89.2086C1278.02 112.868 1311.38 126.16 1346.18 126.16C1380.97 126.16 1414.34 112.868 1438.94 89.2086C1463.54 65.549 1477.36 33.4597 1477.36 1.52588e-05L1346.18 0H1214.99Z" fill="#F3EDE1"/>
<path fill-rule="evenodd" clip-rule="evenodd" d="M1257.61 84.8974C1235.64 63.7689 1222.73 35.6244 1221.19 6L1471.17 6.00002C1469.63 35.6244 1456.71 63.7689 1434.74 84.8974C1411.28 107.454 1379.43 120.16 1346.18 120.16C1312.92 120.16 1281.07 107.454 1257.61 84.8974ZM1477.21 6.00002C1477.31 4.00595 1477.36 2.00545 1477.36 1.52588e-05L1214.99 0C1214.99 2.00543 1215.04 4.00594 1215.14 6C1216.69 37.276 1230.29 66.9671 1253.41 89.2086C1278.02 112.868 1311.38 126.16 1346.18 126.16C1380.97 126.16 1414.34 112.868 1438.94 89.2086C1462.07 66.9671 1475.67 37.276 1477.21 6.00002Z" fill="#C6A272" fill-opacity="0.6"/>
<path d="M1235.7 -7.62939e-06C1235.7 28.1766 1247.34 55.1991 1268.06 75.123C1288.78 95.0469 1316.88 106.24 1346.18 106.24C1375.48 106.24 1403.58 95.0469 1424.29 75.123C1445.01 55.1992 1456.65 28.1766 1456.65 7.62939e-06L1346.18 -7.62939e-06H1235.7Z" fill="#F3EDE1"/>
<path fill-rule="evenodd" clip-rule="evenodd" d="M1241.93 5.99999C1243.45 30.3383 1254.18 53.4206 1272.26 70.8118C1291.83 89.6331 1318.42 100.24 1346.18 100.24C1373.94 100.24 1400.52 89.6331 1420.09 70.8118C1438.18 53.4207 1448.9 30.3383 1450.42 6.00001L1241.93 5.99999ZM1235.88 5.99999C1237.41 31.9894 1248.82 56.618 1268.06 75.123C1288.78 95.0469 1316.88 106.24 1346.18 106.24C1375.48 106.24 1403.58 95.0469 1424.29 75.123C1443.53 56.618 1454.95 31.9894 1456.47 6.00001C1456.59 4.00729 1456.65 2.00658 1456.65 7.62939e-06L1235.7 -7.62939e-06C1235.7 2.00656 1235.76 4.00728 1235.88 5.99999Z" fill="#C6A272" fill-opacity="0.6"/>
<path d="M1256.42 6.86646e-05C1256.42 22.8936 1265.88 44.8494 1282.71 61.0375C1299.54 77.2257 1322.37 86.3201 1346.18 86.3201C1369.98 86.3201 1392.81 77.2257 1409.65 61.0375C1426.48 44.8494 1435.94 22.8936 1435.94 8.39233e-05L1346.18 6.86646e-05H1256.42Z" fill="#F3EDE1"/>
<path fill-rule="evenodd" clip-rule="evenodd" d="M1262.69 6.00007C1264.18 25.0509 1272.71 43.0734 1286.91 56.7263C1302.59 71.8119 1323.91 80.3201 1346.18 80.3201C1368.44 80.3201 1389.76 71.8119 1405.45 56.7263C1419.64 43.0734 1428.18 25.0509 1429.66 6.00008L1262.69 6.00007ZM1256.64 6.00007C1258.13 26.7013 1267.35 46.2695 1282.71 61.0375C1299.54 77.2257 1322.37 86.3201 1346.18 86.3201C1369.98 86.3201 1392.81 77.2257 1409.65 61.0375C1425 46.2695 1434.22 26.7013 1435.72 6.00008C1435.86 4.00948 1435.94 2.00838 1435.94 8.39233e-05L1256.42 6.86646e-05C1256.42 2.00837 1256.49 4.00946 1256.64 6.00007Z" fill="#C6A272" fill-opacity="0.6"/>
<path d="M1277.13 -9.91821e-05C1277.13 17.6103 1284.41 34.4994 1297.35 46.9518C1310.3 59.4042 1327.87 66.3999 1346.18 66.3999C1364.49 66.3999 1382.05 59.4042 1395 46.9518C1407.95 34.4994 1415.22 17.6103 1415.22 -9.15527e-05L1346.18 -9.91821e-05H1277.13Z" fill="#F3EDE1"/>
<path fill-rule="evenodd" clip-rule="evenodd" d="M1283.48 5.9999C1284.92 19.7607 1291.25 32.7277 1301.55 42.6406C1313.36 53.9904 1329.4 60.3999 1346.18 60.3999C1362.95 60.3999 1379 53.9904 1390.8 42.6406C1401.11 32.7277 1407.44 19.7607 1408.87 5.99991L1283.48 5.9999ZM1277.41 5.9999C1278.87 21.4102 1285.89 35.9215 1297.35 46.9518C1310.3 59.4042 1327.87 66.3999 1346.18 66.3999C1364.49 66.3999 1382.05 59.4042 1395 46.9518C1406.47 35.9216 1413.49 21.4102 1414.94 5.99991C1415.13 4.01301 1415.22 2.01116 1415.22 -9.15527e-05L1277.13 -9.91821e-05C1277.13 2.01115 1277.23 4.013 1277.41 5.9999Z" fill="#C6A272" fill-opacity="0.6"/>
<path d="M1297.85 -1.90735e-05C1297.85 12.3272 1302.94 24.1496 1312 32.8663C1321.07 41.583 1333.36 46.48 1346.18 46.48C1359 46.48 1371.29 41.583 1380.35 32.8663C1389.42 24.1496 1394.51 12.3273 1394.51 -1.14441e-05L1346.18 -1.90735e-05H1297.85Z" fill="#F3EDE1"/>
<path fill-rule="evenodd" clip-rule="evenodd" d="M1304.35 5.99998C1305.68 14.4649 1309.79 22.387 1316.2 28.5551C1324.12 36.1692 1334.9 40.48 1346.18 40.48C1357.46 40.48 1368.24 36.1692 1376.15 28.5551C1382.57 22.387 1386.68 14.4649 1388 5.99999L1304.35 5.99998ZM1298.25 5.99998C1299.62 16.1135 1304.42 25.5761 1312 32.8663C1321.07 41.583 1333.36 46.48 1346.18 46.48C1359 46.48 1371.29 41.583 1380.35 32.8663C1387.93 25.5761 1392.74 16.1135 1394.1 5.99999C1394.37 4.02111 1394.51 2.01731 1394.51 -1.14441e-05L1297.85 -1.90735e-05C1297.85 2.0173 1297.98 4.0211 1298.25 5.99998Z" fill="#C6A272" fill-opacity="0.6"/>
<path d="M628.048 0C628.048 44.0259 646.234 86.2487 678.605 117.38C710.976 148.511 754.881 166 800.661 166C846.441 166 890.345 148.511 922.716 117.38C955.088 86.2487 973.273 44.026 973.273 3.05176e-05L800.661 0H628.048Z" fill="#F3EDE1"/>
<path fill-rule="evenodd" clip-rule="evenodd" d="M682.805 113.069C653.064 84.4665 635.773 46.1945 634.204 6L967.117 6.00003C965.548 46.1945 948.258 84.4666 918.516 113.069C887.292 143.097 844.901 160 800.661 160C756.42 160 714.03 143.097 682.805 113.069ZM973.161 6.00003C973.236 4.00435 973.273 2.00406 973.273 3.05176e-05L628.048 0C628.048 2.00403 628.086 4.00432 628.161 6C629.733 47.8468 647.708 87.6658 678.605 117.38C710.976 148.511 754.881 166 800.661 166C846.441 166 890.345 148.511 922.716 117.38C953.614 87.6658 971.588 47.8469 973.161 6.00003Z" fill="#C6A272" fill-opacity="0.6"/>
<path d="M648.762 0C648.762 38.7428 664.765 75.8988 693.252 103.294C721.738 130.689 760.375 146.08 800.661 146.08C840.947 146.08 879.583 130.689 908.07 103.294C936.556 75.8989 952.56 38.7428 952.56 1.52588e-05L800.661 0H648.762Z" fill="#F3EDE1"/>
<path fill-rule="evenodd" clip-rule="evenodd" d="M697.452 98.983C671.596 74.1176 656.492 40.9097 654.934 6L946.387 6.00002C944.83 40.9097 929.726 74.1176 903.87 98.983C876.53 125.276 839.408 140.08 800.661 140.08C761.914 140.08 724.792 125.276 697.452 98.983ZM952.432 6.00002C952.517 4.00502 952.56 2.00464 952.56 1.52588e-05L648.762 0C648.762 2.00462 648.805 4.005 648.89 6C650.451 42.5617 666.239 77.3163 693.252 103.294C721.739 130.689 760.375 146.08 800.661 146.08C840.947 146.08 879.583 130.689 908.07 103.294C935.082 77.3163 950.87 42.5618 952.432 6.00002Z" fill="#C6A272" fill-opacity="0.6"/>
<path d="M669.475 0C669.475 33.4597 683.297 65.549 707.899 89.2086C732.501 112.868 765.868 126.16 800.661 126.16C835.453 126.16 868.821 112.868 893.423 89.2086C918.025 65.549 931.846 33.4597 931.846 1.52588e-05L800.661 0H669.475Z" fill="#F3EDE1"/>
<path fill-rule="evenodd" clip-rule="evenodd" d="M712.099 84.8974C690.128 63.7689 677.212 35.6244 675.67 6L925.652 6.00002C924.11 35.6244 911.193 63.7689 889.223 84.8974C865.767 107.454 833.914 120.16 800.661 120.16C767.408 120.16 735.554 107.454 712.099 84.8974ZM931.698 6.00002C931.797 4.00595 931.846 2.00545 931.846 1.52588e-05L669.475 0C669.475 2.00543 669.525 4.00594 669.624 6C671.171 37.276 684.771 66.9671 707.899 89.2086C732.501 112.868 765.868 126.16 800.661 126.16C835.453 126.16 868.821 112.868 893.423 89.2086C916.551 66.9671 930.151 37.276 931.698 6.00002Z" fill="#C6A272" fill-opacity="0.6"/>
<path d="M690.189 -7.62939e-06C690.189 28.1766 701.828 55.1991 722.545 75.123C743.263 95.0469 771.362 106.24 800.661 106.24C829.96 106.24 858.059 95.0469 878.776 75.123C899.494 55.1992 911.133 28.1766 911.133 7.62939e-06L800.661 -7.62939e-06H690.189Z" fill="#F3EDE1"/>
<path fill-rule="evenodd" clip-rule="evenodd" d="M696.415 5.99999C697.935 30.3383 708.661 53.4206 726.745 70.8118C746.316 89.6331 772.901 100.24 800.661 100.24C828.421 100.24 855.005 89.6331 874.576 70.8118C892.66 53.4207 903.387 30.3383 904.907 6.00001L696.415 5.99999ZM690.365 5.99999C691.892 31.9894 703.303 56.618 722.545 75.123C743.263 95.0469 771.362 106.24 800.661 106.24C829.96 106.24 858.059 95.0469 878.776 75.123C898.019 56.618 909.429 31.9894 910.957 6.00001C911.074 4.00729 911.133 2.00658 911.133 7.62939e-06L690.189 -7.62939e-06C690.189 2.00656 690.248 4.00728 690.365 5.99999Z" fill="#C6A272" fill-opacity="0.6"/>
<path d="M710.902 6.86646e-05C710.902 22.8936 720.359 44.8494 737.192 61.0375C754.025 77.2257 776.855 86.3201 800.661 86.3201C824.466 86.3201 847.297 77.2257 864.13 61.0375C880.963 44.8494 890.419 22.8936 890.419 8.39233e-05L800.661 6.86646e-05H710.902Z" fill="#F3EDE1"/>
<path fill-rule="evenodd" clip-rule="evenodd" d="M717.175 6.00007C718.662 25.0509 727.195 43.0734 741.392 56.7263C757.078 71.8119 778.395 80.3201 800.661 80.3201C822.927 80.3201 844.243 71.8119 859.93 56.7263C874.126 43.0734 882.659 25.0509 884.147 6.00008L717.175 6.00007ZM711.119 6.00007C712.618 26.7013 721.836 46.2695 737.192 61.0375C754.025 77.2257 776.855 86.3201 800.661 86.3201C824.466 86.3201 847.297 77.2257 864.13 61.0375C879.486 46.2695 888.703 26.7013 890.202 6.00008C890.347 4.00948 890.419 2.00838 890.419 8.39233e-05L710.902 6.86646e-05C710.902 2.00837 710.975 4.00946 711.119 6.00007Z" fill="#C6A272" fill-opacity="0.6"/>
<path d="M731.616 -9.91821e-05C731.616 17.6103 738.89 34.4994 751.839 46.9518C764.787 59.4042 782.349 66.3999 800.661 66.3999C818.973 66.3999 836.535 59.4042 849.483 46.9518C862.431 34.4994 869.706 17.6103 869.706 -9.15527e-05L800.661 -9.91821e-05H731.616Z" fill="#F3EDE1"/>
<path fill-rule="evenodd" clip-rule="evenodd" d="M737.966 5.9999C739.399 19.7607 745.731 32.7277 756.039 42.6406C767.841 53.9904 783.888 60.3999 800.661 60.3999C817.433 60.3999 833.481 53.9904 845.283 42.6406C855.591 32.7277 861.922 19.7607 863.355 5.99991L737.966 5.9999ZM731.898 5.9999C733.351 21.4102 740.369 35.9215 751.839 46.9518C764.787 59.4042 782.349 66.3999 800.661 66.3999C818.973 66.3999 836.535 59.4042 849.483 46.9518C860.953 35.9216 867.97 21.4102 869.424 5.99991C869.611 4.01301 869.706 2.01116 869.706 -9.15527e-05L731.616 -9.91821e-05C731.616 2.01115 731.711 4.013 731.898 5.9999Z" fill="#C6A272" fill-opacity="0.6"/>
<path d="M752.329 -1.90735e-05C752.329 12.3272 757.421 24.1496 766.485 32.8663C775.549 41.583 787.843 46.48 800.661 46.48C813.479 46.48 825.772 41.583 834.836 32.8663C843.9 24.1496 848.992 12.3273 848.992 -1.14441e-05L800.661 -1.90735e-05H752.329Z" fill="#F3EDE1"/>
<path fill-rule="evenodd" clip-rule="evenodd" d="M758.835 5.99998C760.161 14.4649 764.271 22.387 770.685 28.5551C778.603 36.1692 789.382 40.48 800.661 40.48C811.94 40.48 822.719 36.1692 830.636 28.5551C837.05 22.387 841.16 14.4649 842.486 5.99999L758.835 5.99998ZM752.734 5.99998C754.102 16.1135 758.905 25.5761 766.485 32.8663C775.549 41.583 787.843 46.48 800.661 46.48C813.479 46.48 825.772 41.583 834.836 32.8663C842.417 25.5761 847.219 16.1135 848.588 5.99999C848.856 4.02111 848.992 2.01731 848.992 -1.14441e-05L752.329 -1.90735e-05C752.329 2.0173 752.466 4.0211 752.734 5.99998Z" fill="#C6A272" fill-opacity="0.6"/>
<path d="M-0.000110984 0C-0.000110984 44.0259 18.1858 86.2487 50.5569 117.38C82.9281 148.511 126.833 166 172.612 166C218.392 166 262.297 148.511 294.668 117.38C327.039 86.2487 345.225 44.026 345.225 3.05176e-05L172.612 0H-0.000110984Z" fill="#F3EDE1"/>
<path fill-rule="evenodd" clip-rule="evenodd" d="M54.757 113.069C25.0156 84.4665 7.72501 46.1945 6.15587 6L339.069 6.00003C337.5 46.1945 320.209 84.4666 290.468 113.069C259.243 143.097 216.853 160 172.612 160C128.372 160 85.9816 143.097 54.757 113.069ZM345.112 6.00003C345.187 4.00435 345.225 2.00406 345.225 3.05176e-05L-0.000110984 0C-0.000110984 2.00403 0.037577 4.00432 0.112554 6C1.68488 47.8468 19.6593 87.6658 50.5569 117.38C82.9281 148.511 126.833 166 172.612 166C218.392 166 262.297 148.511 294.668 117.38C325.566 87.6658 343.54 47.8469 345.112 6.00003Z" fill="#C6A272" fill-opacity="0.6"/>
<path d="M20.7135 0C20.7135 38.7428 36.7171 75.8988 65.2037 103.294C93.6903 130.689 132.326 146.08 172.613 146.08C212.899 146.08 251.535 130.689 280.021 103.294C308.508 75.8989 324.512 38.7428 324.512 1.52588e-05L172.613 0H20.7135Z" fill="#F3EDE1"/>
<path fill-rule="evenodd" clip-rule="evenodd" d="M69.4038 98.983C43.5479 74.1176 28.4436 40.9097 26.8862 6L318.339 6.00002C316.782 40.9097 301.677 74.1176 275.821 98.983C248.481 125.276 211.36 140.08 172.613 140.08C133.866 140.08 96.7439 125.276 69.4038 98.983ZM324.384 6.00002C324.469 4.00502 324.512 2.00464 324.512 1.52588e-05L20.7135 0C20.7135 2.00462 20.7564 4.005 20.8416 6C22.4031 42.5617 38.1911 77.3163 65.2037 103.294C93.6903 130.689 132.326 146.08 172.613 146.08C212.899 146.08 251.535 130.689 280.021 103.294C307.034 77.3163 322.822 42.5618 324.384 6.00002Z" fill="#C6A272" fill-opacity="0.6"/>
<path d="M41.4269 0C41.4269 33.4597 55.2482 65.549 79.8503 89.2086C104.452 112.868 137.82 126.16 172.613 126.16C207.405 126.16 240.773 112.868 265.375 89.2086C289.977 65.549 303.798 33.4597 303.798 1.52588e-05L172.613 0H41.4269Z" fill="#F3EDE1"/>
<path fill-rule="evenodd" clip-rule="evenodd" d="M84.0503 84.8974C62.0801 63.7689 49.1635 35.6244 47.6219 6L297.603 6.00002C296.061 35.6244 283.145 63.7689 261.175 84.8974C237.719 107.454 205.866 120.16 172.613 120.16C139.359 120.16 107.506 107.454 84.0503 84.8974ZM303.65 6.00002C303.748 4.00595 303.798 2.00545 303.798 1.52588e-05L41.4269 0C41.4269 2.00543 41.4766 4.00594 41.5752 6C43.1224 37.276 56.7228 66.9671 79.8503 89.2086C104.452 112.868 137.82 126.16 172.613 126.16C207.405 126.16 240.773 112.868 265.375 89.2086C288.502 66.9671 302.103 37.276 303.65 6.00002Z" fill="#C6A272" fill-opacity="0.6"/>
<path d="M62.1406 -7.62939e-06C62.1406 28.1766 73.7796 55.1991 94.4971 75.123C115.215 95.0469 143.314 106.24 172.613 106.24C201.912 106.24 230.011 95.0469 250.728 75.123C271.446 55.1992 283.085 28.1766 283.085 7.62939e-06L172.613 -7.62939e-06H62.1406Z" fill="#F3EDE1"/>
<path fill-rule="evenodd" clip-rule="evenodd" d="M68.3666 5.99999C69.8864 30.3383 80.6132 53.4206 98.6971 70.8118C118.268 89.6331 144.853 100.24 172.613 100.24C200.372 100.24 226.957 89.6331 246.528 70.8118C264.612 53.4207 275.339 30.3383 276.859 6.00001L68.3666 5.99999ZM62.3167 5.99999C63.8443 31.9894 75.2549 56.618 94.4971 75.123C115.215 95.0469 143.314 106.24 172.613 106.24C201.912 106.24 230.011 95.0469 250.728 75.123C269.97 56.618 281.381 31.9894 282.909 6.00001C283.026 4.00729 283.085 2.00658 283.085 7.62939e-06L62.1406 -7.62939e-06C62.1406 2.00656 62.1996 4.00728 62.3167 5.99999Z" fill="#C6A272" fill-opacity="0.6"/>
<path d="M82.8541 6.86646e-05C82.8541 22.8936 92.3108 44.8494 109.144 61.0375C125.977 77.2257 148.807 86.3201 172.613 86.3201C196.418 86.3201 219.249 77.2257 236.082 61.0375C252.915 44.8494 262.371 22.8936 262.371 8.39233e-05L172.613 6.86646e-05H82.8541Z" fill="#F3EDE1"/>
<path fill-rule="evenodd" clip-rule="evenodd" d="M89.1268 6.00007C90.6139 25.0509 99.147 43.0734 113.344 56.7263C129.03 71.8119 150.346 80.3201 172.613 80.3201C194.879 80.3201 216.195 71.8119 231.882 56.7263C246.078 43.0734 254.611 25.0509 256.098 6.00008L89.1268 6.00007ZM83.071 6.00007C84.57 26.7013 93.7874 46.2695 109.144 61.0375C125.977 77.2257 148.807 86.3201 172.613 86.3201C196.418 86.3201 219.249 77.2257 236.082 61.0375C251.438 46.2695 260.655 26.7013 262.154 6.00008C262.298 4.00948 262.371 2.00838 262.371 8.39233e-05L82.8541 6.86646e-05C82.8541 2.00837 82.9269 4.00946 83.071 6.00007Z" fill="#C6A272" fill-opacity="0.6"/>
<path d="M103.568 -9.91821e-05C103.568 17.6103 110.842 34.4994 123.79 46.9518C136.739 59.4042 154.301 66.3999 172.613 66.3999C190.924 66.3999 208.486 59.4042 221.435 46.9518C234.383 34.4994 241.658 17.6103 241.658 -9.15527e-05L172.613 -9.91821e-05H103.568Z" fill="#F3EDE1"/>
<path fill-rule="evenodd" clip-rule="evenodd" d="M109.918 5.9999C111.351 19.7607 117.683 32.7277 127.99 42.6406C139.792 53.9904 155.84 60.3999 172.613 60.3999C189.385 60.3999 205.433 53.9904 217.235 42.6406C227.543 32.7277 233.874 19.7607 235.307 5.99991L109.918 5.9999ZM103.85 5.9999C105.303 21.4102 112.321 35.9215 123.79 46.9518C136.739 59.4042 154.301 66.3999 172.613 66.3999C190.924 66.3999 208.486 59.4042 221.435 46.9518C232.904 35.9216 239.922 21.4102 241.375 5.99991C241.563 4.01301 241.658 2.01116 241.658 -9.15527e-05L103.568 -9.91821e-05C103.568 2.01115 103.662 4.013 103.85 5.9999Z" fill="#C6A272" fill-opacity="0.6"/>
<path d="M124.281 -1.90735e-05C124.281 12.3272 129.373 24.1496 138.437 32.8663C147.501 41.583 159.794 46.48 172.613 46.48C185.431 46.48 197.724 41.583 206.788 32.8663C215.852 24.1496 220.944 12.3273 220.944 -1.14441e-05L172.613 -1.90735e-05H124.281Z" fill="#F3EDE1"/>
<path fill-rule="evenodd" clip-rule="evenodd" d="M130.787 5.99998C132.113 14.4649 136.223 22.387 142.637 28.5551C150.554 36.1692 161.334 40.48 172.613 40.48C183.892 40.48 194.671 36.1692 202.588 28.5551C209.002 22.387 213.112 14.4649 214.438 5.99999L130.787 5.99998ZM124.685 5.99998C126.054 16.1135 130.856 25.5761 138.437 32.8663C147.501 41.583 159.794 46.48 172.613 46.48C185.431 46.48 197.724 41.583 206.788 32.8663C214.369 25.5761 219.171 16.1135 220.54 5.99999C220.808 4.02111 220.944 2.01731 220.944 -1.14441e-05L124.281 -1.90735e-05C124.281 2.0173 124.417 4.0211 124.685 5.99998Z" fill="#C6A272" fill-opacity="0.6"/>
<path d="M2336.06 0C2336.06 44.0259 2354.24 86.2487 2386.61 117.38C2418.99 148.511 2462.89 166 2508.67 166C2554.45 166 2598.35 148.511 2630.73 117.38C2663.1 86.2487 2681.28 44.026 2681.28 3.05176e-05L2508.67 0H2336.06Z" fill="#F3EDE1"/>
<path fill-rule="evenodd" clip-rule="evenodd" d="M2390.81 113.069C2361.07 84.4665 2343.78 46.1945 2342.21 6L2675.13 6.00003C2673.56 46.1945 2656.27 84.4666 2626.53 113.069C2595.3 143.097 2552.91 160 2508.67 160C2464.43 160 2422.04 143.097 2390.81 113.069ZM2681.17 6.00003C2681.24 4.00435 2681.28 2.00406 2681.28 3.05176e-05L2336.06 0C2336.06 2.00403 2336.1 4.00432 2336.17 6C2337.74 47.8468 2355.72 87.6658 2386.61 117.38C2418.99 148.511 2462.89 166 2508.67 166C2554.45 166 2598.35 148.511 2630.73 117.38C2661.62 87.6658 2679.6 47.8469 2681.17 6.00003Z" fill="#C6A272" fill-opacity="0.6"/>
<path d="M2356.77 0C2356.77 38.7428 2372.77 75.8988 2401.26 103.294C2429.75 130.689 2468.38 146.08 2508.67 146.08C2548.96 146.08 2587.59 130.689 2616.08 103.294C2644.57 75.8989 2660.57 38.7428 2660.57 1.52588e-05L2508.67 0H2356.77Z" fill="#F3EDE1"/>
<path fill-rule="evenodd" clip-rule="evenodd" d="M2405.46 98.983C2379.61 74.1176 2364.5 40.9097 2362.94 6L2654.4 6.00002C2652.84 40.9097 2637.73 74.1176 2611.88 98.983C2584.54 125.276 2547.42 140.08 2508.67 140.08C2469.92 140.08 2432.8 125.276 2405.46 98.983ZM2660.44 6.00002C2660.53 4.00502 2660.57 2.00464 2660.57 1.52588e-05L2356.77 0C2356.77 2.00462 2356.81 4.005 2356.9 6C2358.46 42.5617 2374.25 77.3163 2401.26 103.294C2429.75 130.689 2468.38 146.08 2508.67 146.08C2548.96 146.08 2587.59 130.689 2616.08 103.294C2643.09 77.3163 2658.88 42.5618 2660.44 6.00002Z" fill="#C6A272" fill-opacity="0.6"/>
<path d="M2377.48 0C2377.48 33.4597 2391.31 65.549 2415.91 89.2086C2440.51 112.868 2473.88 126.16 2508.67 126.16C2543.46 126.16 2576.83 112.868 2601.43 89.2086C2626.03 65.549 2639.86 33.4597 2639.86 1.52588e-05L2508.67 0H2377.48Z" fill="#F3EDE1"/>
<path fill-rule="evenodd" clip-rule="evenodd" d="M2420.11 84.8974C2398.14 63.7689 2385.22 35.6244 2383.68 6L2633.66 6.00002C2632.12 35.6244 2619.2 63.7689 2597.23 84.8974C2573.78 107.454 2541.92 120.16 2508.67 120.16C2475.42 120.16 2443.56 107.454 2420.11 84.8974ZM2639.71 6.00002C2639.81 4.00595 2639.86 2.00545 2639.86 1.52588e-05L2377.48 0C2377.48 2.00543 2377.53 4.00594 2377.63 6C2379.18 37.276 2392.78 66.9671 2415.91 89.2086C2440.51 112.868 2473.88 126.16 2508.67 126.16C2543.46 126.16 2576.83 112.868 2601.43 89.2086C2624.56 66.9671 2638.16 37.276 2639.71 6.00002Z" fill="#C6A272" fill-opacity="0.6"/>
<path d="M2398.2 -7.62939e-06C2398.2 28.1766 2409.84 55.1991 2430.55 75.123C2451.27 95.0469 2479.37 106.24 2508.67 106.24C2537.97 106.24 2566.07 95.0469 2586.79 75.123C2607.5 55.1992 2619.14 28.1766 2619.14 7.62939e-06L2508.67 -7.62939e-06H2398.2Z" fill="#F3EDE1"/>
<path fill-rule="evenodd" clip-rule="evenodd" d="M2404.42 5.99999C2405.94 30.3383 2416.67 53.4206 2434.75 70.8118C2454.33 89.6331 2480.91 100.24 2508.67 100.24C2536.43 100.24 2563.01 89.6331 2582.59 70.8118C2600.67 53.4207 2611.4 30.3383 2612.92 6.00001L2404.42 5.99999ZM2398.37 5.99999C2399.9 31.9894 2411.31 56.618 2430.55 75.123C2451.27 95.0469 2479.37 106.24 2508.67 106.24C2537.97 106.24 2566.07 95.0469 2586.79 75.123C2606.03 56.618 2617.44 31.9894 2618.97 6.00001C2619.08 4.00729 2619.14 2.00658 2619.14 7.62939e-06L2398.2 -7.62939e-06C2398.2 2.00656 2398.26 4.00728 2398.37 5.99999Z" fill="#C6A272" fill-opacity="0.6"/>
<path d="M2418.91 6.86646e-05C2418.91 22.8936 2428.37 44.8494 2445.2 61.0375C2462.03 77.2257 2484.86 86.3201 2508.67 86.3201C2532.48 86.3201 2555.31 77.2257 2572.14 61.0375C2588.97 44.8494 2598.43 22.8936 2598.43 8.39233e-05L2508.67 6.86646e-05H2418.91Z" fill="#F3EDE1"/>
<path fill-rule="evenodd" clip-rule="evenodd" d="M2425.18 6.00007C2426.67 25.0509 2435.2 43.0734 2449.4 56.7263C2465.09 71.8119 2486.4 80.3201 2508.67 80.3201C2530.94 80.3201 2552.25 71.8119 2567.94 56.7263C2582.14 43.0734 2590.67 25.0509 2592.16 6.00008L2425.18 6.00007ZM2419.13 6.00007C2420.63 26.7013 2429.84 46.2695 2445.2 61.0375C2462.03 77.2257 2484.86 86.3201 2508.67 86.3201C2532.48 86.3201 2555.31 77.2257 2572.14 61.0375C2587.5 46.2695 2596.71 26.7013 2598.21 6.00008C2598.36 4.00948 2598.43 2.00838 2598.43 8.39233e-05L2418.91 6.86646e-05C2418.91 2.00837 2418.98 4.00946 2419.13 6.00007Z" fill="#C6A272" fill-opacity="0.6"/>
<path d="M2439.63 -9.91821e-05C2439.63 17.6103 2446.9 34.4994 2459.85 46.9518C2472.8 59.4042 2490.36 66.3999 2508.67 66.3999C2526.98 66.3999 2544.54 59.4042 2557.49 46.9518C2570.44 34.4994 2577.72 17.6103 2577.72 -9.15527e-05L2508.67 -9.91821e-05H2439.63Z" fill="#F3EDE1"/>
<path fill-rule="evenodd" clip-rule="evenodd" d="M2445.98 5.9999C2447.41 19.7607 2453.74 32.7277 2464.05 42.6406C2475.85 53.9904 2491.9 60.3999 2508.67 60.3999C2525.44 60.3999 2541.49 53.9904 2553.29 42.6406C2563.6 32.7277 2569.93 19.7607 2571.36 5.99991L2445.98 5.9999ZM2439.91 5.9999C2441.36 21.4102 2448.38 35.9215 2459.85 46.9518C2472.8 59.4042 2490.36 66.3999 2508.67 66.3999C2526.98 66.3999 2544.54 59.4042 2557.49 46.9518C2568.96 35.9216 2575.98 21.4102 2577.43 5.99991C2577.62 4.01301 2577.72 2.01116 2577.72 -9.15527e-05L2439.63 -9.91821e-05C2439.63 2.01115 2439.72 4.013 2439.91 5.9999Z" fill="#C6A272" fill-opacity="0.6"/>
<path d="M2460.34 -1.90735e-05C2460.34 12.3272 2465.43 24.1496 2474.49 32.8663C2483.56 41.583 2495.85 46.48 2508.67 46.48C2521.49 46.48 2533.78 41.583 2542.85 32.8663C2551.91 24.1496 2557 12.3273 2557 -1.14441e-05L2508.67 -1.90735e-05H2460.34Z" fill="#F3EDE1"/>
<path fill-rule="evenodd" clip-rule="evenodd" d="M2466.84 5.99998C2468.17 14.4649 2472.28 22.387 2478.69 28.5551C2486.61 36.1692 2497.39 40.48 2508.67 40.48C2519.95 40.48 2530.73 36.1692 2538.65 28.5551C2545.06 22.387 2549.17 14.4649 2550.5 5.99999L2466.84 5.99998ZM2460.74 5.99998C2462.11 16.1135 2466.91 25.5761 2474.49 32.8663C2483.56 41.583 2495.85 46.48 2508.67 46.48C2521.49 46.48 2533.78 41.583 2542.85 32.8663C2550.43 25.5761 2555.23 16.1135 2556.6 5.99999C2556.87 4.02111 2557 2.01731 2557 -1.14441e-05L2460.34 -1.90735e-05C2460.34 2.0173 2460.47 4.0211 2460.74 5.99998Z" fill="#C6A272" fill-opacity="0.6"/>
<path d="M2629.95 0C2629.95 44.0259 2648.14 86.2487 2680.51 117.38C2712.88 148.511 2756.78 166 2802.56 166C2848.34 166 2892.25 148.511 2924.62 117.38C2956.99 86.2487 2975.18 44.026 2975.18 3.05176e-05L2802.56 0H2629.95Z" fill="#F3EDE1"/>
<path fill-rule="evenodd" clip-rule="evenodd" d="M2684.71 113.069C2654.97 84.4665 2637.68 46.1945 2636.11 6L2969.02 6.00003C2967.45 46.1945 2950.16 84.4666 2920.42 113.069C2889.2 143.097 2846.8 160 2802.56 160C2758.32 160 2715.93 143.097 2684.71 113.069ZM2975.06 6.00003C2975.14 4.00435 2975.18 2.00406 2975.18 3.05176e-05L2629.95 0C2629.95 2.00403 2629.99 4.00432 2630.06 6C2631.64 47.8468 2649.61 87.6658 2680.51 117.38C2712.88 148.511 2756.78 166 2802.56 166C2848.34 166 2892.25 148.511 2924.62 117.38C2955.52 87.6658 2973.49 47.8469 2975.06 6.00003Z" fill="#C6A272" fill-opacity="0.6"/>
<path d="M2650.67 0C2650.67 38.7428 2666.67 75.8988 2695.16 103.294C2723.64 130.689 2762.28 146.08 2802.56 146.08C2842.85 146.08 2881.49 130.689 2909.97 103.294C2938.46 75.8989 2954.46 38.7428 2954.46 1.52588e-05L2802.56 0H2650.67Z" fill="#F3EDE1"/>
<path fill-rule="evenodd" clip-rule="evenodd" d="M2699.36 98.983C2673.5 74.1176 2658.4 40.9097 2656.84 6L2948.29 6.00002C2946.73 40.9097 2931.63 74.1176 2905.77 98.983C2878.43 125.276 2841.31 140.08 2802.56 140.08C2763.82 140.08 2726.7 125.276 2699.36 98.983ZM2954.34 6.00002C2954.42 4.00502 2954.46 2.00464 2954.46 1.52588e-05L2650.67 0C2650.67 2.00462 2650.71 4.005 2650.79 6C2652.35 42.5617 2668.14 77.3163 2695.16 103.294C2723.64 130.689 2762.28 146.08 2802.56 146.08C2842.85 146.08 2881.49 130.689 2909.97 103.294C2936.99 77.3163 2952.77 42.5618 2954.34 6.00002Z" fill="#C6A272" fill-opacity="0.6"/>
<path d="M2671.38 0C2671.38 33.4597 2685.2 65.549 2709.8 89.2086C2734.4 112.868 2767.77 126.16 2802.56 126.16C2837.36 126.16 2870.72 112.868 2895.33 89.2086C2919.93 65.549 2933.75 33.4597 2933.75 1.52588e-05L2802.56 0H2671.38Z" fill="#F3EDE1"/>
<path fill-rule="evenodd" clip-rule="evenodd" d="M2714 84.8974C2692.03 63.7689 2679.12 35.6244 2677.57 6L2927.56 6.00002C2926.01 35.6244 2913.1 63.7689 2891.13 84.8974C2867.67 107.454 2835.82 120.16 2802.56 120.16C2769.31 120.16 2737.46 107.454 2714 84.8974ZM2933.6 6.00002C2933.7 4.00595 2933.75 2.00545 2933.75 1.52588e-05L2671.38 0C2671.38 2.00543 2671.43 4.00594 2671.53 6C2673.07 37.276 2686.67 66.9671 2709.8 89.2086C2734.4 112.868 2767.77 126.16 2802.56 126.16C2837.36 126.16 2870.72 112.868 2895.33 89.2086C2918.45 66.9671 2932.05 37.276 2933.6 6.00002Z" fill="#C6A272" fill-opacity="0.6"/>
<path d="M2692.09 -7.62939e-06C2692.09 28.1766 2703.73 55.1991 2724.45 75.123C2745.17 95.0469 2773.27 106.24 2802.56 106.24C2831.86 106.24 2859.96 95.0469 2880.68 75.123C2901.4 55.1992 2913.04 28.1766 2913.04 7.62939e-06L2802.56 -7.62939e-06H2692.09Z" fill="#F3EDE1"/>
<path fill-rule="evenodd" clip-rule="evenodd" d="M2698.32 5.99999C2699.84 30.3383 2710.56 53.4206 2728.65 70.8118C2748.22 89.6331 2774.8 100.24 2802.56 100.24C2830.32 100.24 2856.91 89.6331 2876.48 70.8118C2894.56 53.4207 2905.29 30.3383 2906.81 6.00001L2698.32 5.99999ZM2692.27 5.99999C2693.8 31.9894 2705.21 56.618 2724.45 75.123C2745.17 95.0469 2773.27 106.24 2802.56 106.24C2831.86 106.24 2859.96 95.0469 2880.68 75.123C2899.92 56.618 2911.33 31.9894 2912.86 6.00001C2912.98 4.00729 2913.04 2.00658 2913.04 7.62939e-06L2692.09 -7.62939e-06C2692.09 2.00656 2692.15 4.00728 2692.27 5.99999Z" fill="#C6A272" fill-opacity="0.6"/>
<path d="M2712.81 6.86646e-05C2712.81 22.8936 2722.26 44.8494 2739.1 61.0375C2755.93 77.2257 2778.76 86.3201 2802.56 86.3201C2826.37 86.3201 2849.2 77.2257 2866.03 61.0375C2882.87 44.8494 2892.32 22.8936 2892.32 8.39233e-05L2802.56 6.86646e-05H2712.81Z" fill="#F3EDE1"/>
<path fill-rule="evenodd" clip-rule="evenodd" d="M2719.08 6.00007C2720.57 25.0509 2729.1 43.0734 2743.3 56.7263C2758.98 71.8119 2780.3 80.3201 2802.56 80.3201C2824.83 80.3201 2846.15 71.8119 2861.83 56.7263C2876.03 43.0734 2884.56 25.0509 2886.05 6.00008L2719.08 6.00007ZM2713.02 6.00007C2714.52 26.7013 2723.74 46.2695 2739.1 61.0375C2755.93 77.2257 2778.76 86.3201 2802.56 86.3201C2826.37 86.3201 2849.2 77.2257 2866.03 61.0375C2881.39 46.2695 2890.61 26.7013 2892.11 6.00008C2892.25 4.00948 2892.32 2.00838 2892.32 8.39233e-05L2712.81 6.86646e-05C2712.81 2.00837 2712.88 4.00946 2713.02 6.00007Z" fill="#C6A272" fill-opacity="0.6"/>
<path d="M2733.52 -9.91821e-05C2733.52 17.6103 2740.79 34.4994 2753.74 46.9518C2766.69 59.4042 2784.25 66.3999 2802.56 66.3999C2820.88 66.3999 2838.44 59.4042 2851.39 46.9518C2864.34 34.4994 2871.61 17.6103 2871.61 -9.15527e-05L2802.56 -9.91821e-05H2733.52Z" fill="#F3EDE1"/>
<path fill-rule="evenodd" clip-rule="evenodd" d="M2739.87 5.9999C2741.3 19.7607 2747.63 32.7277 2757.94 42.6406C2769.74 53.9904 2785.79 60.3999 2802.56 60.3999C2819.34 60.3999 2835.38 53.9904 2847.19 42.6406C2857.49 32.7277 2863.83 19.7607 2865.26 5.99991L2739.87 5.9999ZM2733.8 5.9999C2735.25 21.4102 2742.27 35.9215 2753.74 46.9518C2766.69 59.4042 2784.25 66.3999 2802.56 66.3999C2820.88 66.3999 2838.44 59.4042 2851.39 46.9518C2862.86 35.9216 2869.87 21.4102 2871.33 5.99991C2871.51 4.01301 2871.61 2.01116 2871.61 -9.15527e-05L2733.52 -9.91821e-05C2733.52 2.01115 2733.61 4.013 2733.8 5.9999Z" fill="#C6A272" fill-opacity="0.6"/>
<path d="M2754.23 -1.90735e-05C2754.23 12.3272 2759.32 24.1496 2768.39 32.8663C2777.45 41.583 2789.75 46.48 2802.56 46.48C2815.38 46.48 2827.68 41.583 2836.74 32.8663C2845.8 24.1496 2850.9 12.3273 2850.9 -1.14441e-05L2802.56 -1.90735e-05H2754.23Z" fill="#F3EDE1"/>
<path fill-rule="evenodd" clip-rule="evenodd" d="M2760.74 5.99998C2762.06 14.4649 2766.18 22.387 2772.59 28.5551C2780.51 36.1692 2791.29 40.48 2802.56 40.48C2813.84 40.48 2824.62 36.1692 2832.54 28.5551C2838.95 22.387 2843.06 14.4649 2844.39 5.99999L2760.74 5.99998ZM2754.64 5.99998C2756.01 16.1135 2760.81 25.5761 2768.39 32.8663C2777.45 41.583 2789.75 46.48 2802.56 46.48C2815.38 46.48 2827.68 41.583 2836.74 32.8663C2844.32 25.5761 2849.12 16.1135 2850.49 5.99999C2850.76 4.02111 2850.9 2.01731 2850.9 -1.14441e-05L2754.23 -1.90735e-05C2754.23 2.0173 2754.37 4.0211 2754.64 5.99998Z" fill="#C6A272" fill-opacity="0.6"/>
<path d="M2043.17 0C2043.17 44.0259 2061.36 86.2487 2093.73 117.38C2126.1 148.511 2170 166 2215.78 166C2261.56 166 2305.47 148.511 2337.84 117.38C2370.21 86.2487 2388.39 44.026 2388.39 3.05176e-05L2215.78 0H2043.17Z" fill="#F3EDE1"/>
<path fill-rule="evenodd" clip-rule="evenodd" d="M2097.93 113.069C2068.19 84.4665 2050.89 46.1945 2049.33 6L2382.24 6.00003C2380.67 46.1945 2363.38 84.4666 2333.64 113.069C2302.41 143.097 2260.02 160 2215.78 160C2171.54 160 2129.15 143.097 2097.93 113.069ZM2388.28 6.00003C2388.36 4.00435 2388.39 2.00406 2388.39 3.05176e-05L2043.17 0C2043.17 2.00403 2043.21 4.00432 2043.28 6C2044.85 47.8468 2062.83 87.6658 2093.73 117.38C2126.1 148.511 2170 166 2215.78 166C2261.56 166 2305.47 148.511 2337.84 117.38C2368.74 87.6658 2386.71 47.8469 2388.28 6.00003Z" fill="#C6A272" fill-opacity="0.6"/>
<path d="M2063.88 0C2063.88 38.7428 2079.89 75.8988 2108.37 103.294C2136.86 130.689 2175.5 146.08 2215.78 146.08C2256.07 146.08 2294.7 130.689 2323.19 103.294C2351.68 75.8989 2367.68 38.7428 2367.68 1.52588e-05L2215.78 0H2063.88Z" fill="#F3EDE1"/>
<path fill-rule="evenodd" clip-rule="evenodd" d="M2112.57 98.983C2086.72 74.1176 2071.61 40.9097 2070.06 6L2361.51 6.00002C2359.95 40.9097 2344.85 74.1176 2318.99 98.983C2291.65 125.276 2254.53 140.08 2215.78 140.08C2177.04 140.08 2139.91 125.276 2112.57 98.983ZM2367.55 6.00002C2367.64 4.00502 2367.68 2.00464 2367.68 1.52588e-05L2063.88 0C2063.88 2.00462 2063.93 4.005 2064.01 6C2065.57 42.5617 2081.36 77.3163 2108.37 103.294C2136.86 130.689 2175.5 146.08 2215.78 146.08C2256.07 146.08 2294.7 130.689 2323.19 103.294C2350.2 77.3163 2365.99 42.5618 2367.55 6.00002Z" fill="#C6A272" fill-opacity="0.6"/>
<path d="M2084.6 0C2084.6 33.4597 2098.42 65.549 2123.02 89.2086C2147.62 112.868 2180.99 126.16 2215.78 126.16C2250.57 126.16 2283.94 112.868 2308.54 89.2086C2333.15 65.549 2346.97 33.4597 2346.97 1.52588e-05L2215.78 0H2084.6Z" fill="#F3EDE1"/>
<path fill-rule="evenodd" clip-rule="evenodd" d="M2127.22 84.8974C2105.25 63.7689 2092.33 35.6244 2090.79 6L2340.77 6.00002C2339.23 35.6244 2326.31 63.7689 2304.34 84.8974C2280.89 107.454 2249.04 120.16 2215.78 120.16C2182.53 120.16 2150.68 107.454 2127.22 84.8974ZM2346.82 6.00002C2346.92 4.00595 2346.97 2.00545 2346.97 1.52588e-05L2084.6 0C2084.6 2.00543 2084.65 4.00594 2084.74 6C2086.29 37.276 2099.89 66.9671 2123.02 89.2086C2147.62 112.868 2180.99 126.16 2215.78 126.16C2250.57 126.16 2283.94 112.868 2308.54 89.2086C2331.67 66.9671 2345.27 37.276 2346.82 6.00002Z" fill="#C6A272" fill-opacity="0.6"/>
<path d="M2105.31 -7.62939e-06C2105.31 28.1766 2116.95 55.1991 2137.67 75.123C2158.38 95.0469 2186.48 106.24 2215.78 106.24C2245.08 106.24 2273.18 95.0469 2293.9 75.123C2314.62 55.1992 2326.25 28.1766 2326.25 7.62939e-06L2215.78 -7.62939e-06H2105.31Z" fill="#F3EDE1"/>
<path fill-rule="evenodd" clip-rule="evenodd" d="M2111.54 5.99999C2113.06 30.3383 2123.78 53.4206 2141.87 70.8118C2161.44 89.6331 2188.02 100.24 2215.78 100.24C2243.54 100.24 2270.13 89.6331 2289.7 70.8118C2307.78 53.4207 2318.51 30.3383 2320.03 6.00001L2111.54 5.99999ZM2105.49 5.99999C2107.01 31.9894 2118.42 56.618 2137.67 75.123C2158.38 95.0469 2186.48 106.24 2215.78 106.24C2245.08 106.24 2273.18 95.0469 2293.9 75.123C2313.14 56.618 2324.55 31.9894 2326.08 6.00001C2326.2 4.00729 2326.25 2.00658 2326.25 7.62939e-06L2105.31 -7.62939e-06C2105.31 2.00656 2105.37 4.00728 2105.49 5.99999Z" fill="#C6A272" fill-opacity="0.6"/>
<path d="M2126.02 6.86646e-05C2126.02 22.8936 2135.48 44.8494 2152.31 61.0375C2169.15 77.2257 2191.98 86.3201 2215.78 86.3201C2239.59 86.3201 2262.42 77.2257 2279.25 61.0375C2296.08 44.8494 2305.54 22.8936 2305.54 8.39233e-05L2215.78 6.86646e-05H2126.02Z" fill="#F3EDE1"/>
<path fill-rule="evenodd" clip-rule="evenodd" d="M2132.3 6.00007C2133.78 25.0509 2142.32 43.0734 2156.51 56.7263C2172.2 71.8119 2193.52 80.3201 2215.78 80.3201C2238.05 80.3201 2259.36 71.8119 2275.05 56.7263C2289.25 43.0734 2297.78 25.0509 2299.27 6.00008L2132.3 6.00007ZM2126.24 6.00007C2127.74 26.7013 2136.96 46.2695 2152.31 61.0375C2169.15 77.2257 2191.98 86.3201 2215.78 86.3201C2239.59 86.3201 2262.42 77.2257 2279.25 61.0375C2294.61 46.2695 2303.82 26.7013 2305.32 6.00008C2305.47 4.00948 2305.54 2.00838 2305.54 8.39233e-05L2126.02 6.86646e-05C2126.02 2.00837 2126.1 4.00946 2126.24 6.00007Z" fill="#C6A272" fill-opacity="0.6"/>
<path d="M2146.74 -9.91821e-05C2146.74 17.6103 2154.01 34.4994 2166.96 46.9518C2179.91 59.4042 2197.47 66.3999 2215.78 66.3999C2234.09 66.3999 2251.66 59.4042 2264.6 46.9518C2277.55 34.4994 2284.83 17.6103 2284.83 -9.15527e-05L2215.78 -9.91821e-05H2146.74Z" fill="#F3EDE1"/>
<path fill-rule="evenodd" clip-rule="evenodd" d="M2153.09 5.9999C2154.52 19.7607 2160.85 32.7277 2171.16 42.6406C2182.96 53.9904 2199.01 60.3999 2215.78 60.3999C2232.55 60.3999 2248.6 53.9904 2260.4 42.6406C2270.71 32.7277 2277.04 19.7607 2278.48 5.99991L2153.09 5.9999ZM2147.02 5.9999C2148.47 21.4102 2155.49 35.9215 2166.96 46.9518C2179.91 59.4042 2197.47 66.3999 2215.78 66.3999C2234.09 66.3999 2251.66 59.4042 2264.6 46.9518C2276.07 35.9216 2283.09 21.4102 2284.54 5.99991C2284.73 4.01301 2284.83 2.01116 2284.83 -9.15527e-05L2146.74 -9.91821e-05C2146.74 2.01115 2146.83 4.013 2147.02 5.9999Z" fill="#C6A272" fill-opacity="0.6"/>
<path d="M2167.45 -1.90735e-05C2167.45 12.3272 2172.54 24.1496 2181.61 32.8663C2190.67 41.583 2202.96 46.48 2215.78 46.48C2228.6 46.48 2240.89 41.583 2249.96 32.8663C2259.02 24.1496 2264.11 12.3273 2264.11 -1.14441e-05L2215.78 -1.90735e-05H2167.45Z" fill="#F3EDE1"/>
<path fill-rule="evenodd" clip-rule="evenodd" d="M2173.96 5.99998C2175.28 14.4649 2179.39 22.387 2185.81 28.5551C2193.72 36.1692 2204.5 40.48 2215.78 40.48C2227.06 40.48 2237.84 36.1692 2245.76 28.5551C2252.17 22.387 2256.28 14.4649 2257.61 5.99999L2173.96 5.99998ZM2167.85 5.99998C2169.22 16.1135 2174.03 25.5761 2181.61 32.8663C2190.67 41.583 2202.96 46.48 2215.78 46.48C2228.6 46.48 2240.89 41.583 2249.96 32.8663C2257.54 25.5761 2262.34 16.1135 2263.71 5.99999C2263.98 4.02111 2264.11 2.01731 2264.11 -1.14441e-05L2167.45 -1.90735e-05C2167.45 2.0173 2167.59 4.0211 2167.85 5.99998Z" fill="#C6A272" fill-opacity="0.6"/>
<path d="M1477.52 0C1477.52 44.0259 1495.71 86.2487 1528.08 117.38C1560.45 148.511 1604.36 166 1650.14 166C1695.92 166 1739.82 148.511 1772.19 117.38C1804.56 86.2487 1822.75 44.026 1822.75 3.05176e-05L1650.14 0H1477.52Z" fill="#F3EDE1"/>
<path fill-rule="evenodd" clip-rule="evenodd" d="M1532.28 113.069C1502.54 84.4665 1485.25 46.1945 1483.68 6L1816.59 6.00003C1815.02 46.1945 1797.73 84.4666 1767.99 113.069C1736.77 143.097 1694.38 160 1650.14 160C1605.9 160 1563.51 143.097 1532.28 113.069ZM1822.64 6.00003C1822.71 4.00435 1822.75 2.00406 1822.75 3.05176e-05L1477.52 0C1477.52 2.00403 1477.56 4.00432 1477.64 6C1479.21 47.8468 1497.18 87.6658 1528.08 117.38C1560.45 148.511 1604.36 166 1650.14 166C1695.92 166 1739.82 148.511 1772.19 117.38C1803.09 87.6658 1821.06 47.8469 1822.64 6.00003Z" fill="#C6A272" fill-opacity="0.6"/>
<path d="M1498.24 0C1498.24 38.7428 1514.24 75.8988 1542.73 103.294C1571.21 130.689 1609.85 146.08 1650.14 146.08C1690.42 146.08 1729.06 130.689 1757.55 103.294C1786.03 75.8989 1802.04 38.7428 1802.04 1.52588e-05L1650.14 0H1498.24Z" fill="#F3EDE1"/>
<path fill-rule="evenodd" clip-rule="evenodd" d="M1546.93 98.983C1521.07 74.1176 1505.97 40.9097 1504.41 6L1795.86 6.00002C1794.31 40.9097 1779.2 74.1176 1753.35 98.983C1726 125.276 1688.88 140.08 1650.14 140.08C1611.39 140.08 1574.27 125.276 1546.93 98.983ZM1801.91 6.00002C1801.99 4.00502 1802.04 2.00464 1802.04 1.52588e-05L1498.24 0C1498.24 2.00462 1498.28 4.005 1498.37 6C1499.93 42.5617 1515.71 77.3163 1542.73 103.294C1571.21 130.689 1609.85 146.08 1650.14 146.08C1690.42 146.08 1729.06 130.689 1757.55 103.294C1784.56 77.3163 1800.35 42.5618 1801.91 6.00002Z" fill="#C6A272" fill-opacity="0.6"/>
<path d="M1518.95 0C1518.95 33.4597 1532.77 65.549 1557.37 89.2086C1581.98 112.868 1615.34 126.16 1650.14 126.16C1684.93 126.16 1718.3 112.868 1742.9 89.2086C1767.5 65.549 1781.32 33.4597 1781.32 1.52588e-05L1650.14 0H1518.95Z" fill="#F3EDE1"/>
<path fill-rule="evenodd" clip-rule="evenodd" d="M1561.57 84.8974C1539.6 63.7689 1526.69 35.6244 1525.15 6L1775.13 6.00002C1773.59 35.6244 1760.67 63.7689 1738.7 84.8974C1715.24 107.454 1683.39 120.16 1650.14 120.16C1616.88 120.16 1585.03 107.454 1561.57 84.8974ZM1781.17 6.00002C1781.27 4.00595 1781.32 2.00545 1781.32 1.52588e-05L1518.95 0C1518.95 2.00543 1519 4.00594 1519.1 6C1520.65 37.276 1534.25 66.9671 1557.37 89.2086C1581.98 112.868 1615.34 126.16 1650.14 126.16C1684.93 126.16 1718.3 112.868 1742.9 89.2086C1766.03 66.9671 1779.63 37.276 1781.17 6.00002Z" fill="#C6A272" fill-opacity="0.6"/>
<path d="M1539.66 -7.62939e-06C1539.66 28.1766 1551.3 55.1991 1572.02 75.123C1592.74 95.0469 1620.84 106.24 1650.14 106.24C1679.44 106.24 1707.53 95.0469 1728.25 75.123C1748.97 55.1992 1760.61 28.1766 1760.61 7.62939e-06L1650.14 -7.62939e-06H1539.66Z" fill="#F3EDE1"/>
<path fill-rule="evenodd" clip-rule="evenodd" d="M1545.89 5.99999C1547.41 30.3383 1558.14 53.4206 1576.22 70.8118C1595.79 89.6331 1622.38 100.24 1650.14 100.24C1677.9 100.24 1704.48 89.6331 1724.05 70.8118C1742.14 53.4207 1752.86 30.3383 1754.38 6.00001L1545.89 5.99999ZM1539.84 5.99999C1541.37 31.9894 1552.78 56.618 1572.02 75.123C1592.74 95.0469 1620.84 106.24 1650.14 106.24C1679.44 106.24 1707.53 95.0469 1728.25 75.123C1747.49 56.618 1758.9 31.9894 1760.43 6.00001C1760.55 4.00729 1760.61 2.00658 1760.61 7.62939e-06L1539.66 -7.62939e-06C1539.66 2.00656 1539.72 4.00728 1539.84 5.99999Z" fill="#C6A272" fill-opacity="0.6"/>
<path d="M1560.38 6.86646e-05C1560.38 22.8936 1569.83 44.8494 1586.67 61.0375C1603.5 77.2257 1626.33 86.3201 1650.14 86.3201C1673.94 86.3201 1696.77 77.2257 1713.61 61.0375C1730.44 44.8494 1739.89 22.8936 1739.89 8.39233e-05L1650.14 6.86646e-05H1560.38Z" fill="#F3EDE1"/>
<path fill-rule="evenodd" clip-rule="evenodd" d="M1566.65 6.00007C1568.14 25.0509 1576.67 43.0734 1590.87 56.7263C1606.55 71.8119 1627.87 80.3201 1650.14 80.3201C1672.4 80.3201 1693.72 71.8119 1709.41 56.7263C1723.6 43.0734 1732.13 25.0509 1733.62 6.00008L1566.65 6.00007ZM1560.59 6.00007C1562.09 26.7013 1571.31 46.2695 1586.67 61.0375C1603.5 77.2257 1626.33 86.3201 1650.14 86.3201C1673.94 86.3201 1696.77 77.2257 1713.61 61.0375C1728.96 46.2695 1738.18 26.7013 1739.68 6.00008C1739.82 4.00948 1739.89 2.00838 1739.89 8.39233e-05L1560.38 6.86646e-05C1560.38 2.00837 1560.45 4.00946 1560.59 6.00007Z" fill="#C6A272" fill-opacity="0.6"/>
<path d="M1581.09 -9.91821e-05C1581.09 17.6103 1588.37 34.4994 1601.31 46.9518C1614.26 59.4042 1631.82 66.3999 1650.14 66.3999C1668.45 66.3999 1686.01 59.4042 1698.96 46.9518C1711.91 34.4994 1719.18 17.6103 1719.18 -9.15527e-05L1650.14 -9.91821e-05H1581.09Z" fill="#F3EDE1"/>
<path fill-rule="evenodd" clip-rule="evenodd" d="M1587.44 5.9999C1588.87 19.7607 1595.21 32.7277 1605.51 42.6406C1617.32 53.9904 1633.36 60.3999 1650.14 60.3999C1666.91 60.3999 1682.96 53.9904 1694.76 42.6406C1705.07 32.7277 1711.4 19.7607 1712.83 5.99991L1587.44 5.9999ZM1581.37 5.9999C1582.83 21.4102 1589.84 35.9215 1601.31 46.9518C1614.26 59.4042 1631.82 66.3999 1650.14 66.3999C1668.45 66.3999 1686.01 59.4042 1698.96 46.9518C1710.43 35.9216 1717.45 21.4102 1718.9 5.99991C1719.09 4.01301 1719.18 2.01116 1719.18 -9.15527e-05L1581.09 -9.91821e-05C1581.09 2.01115 1581.19 4.013 1581.37 5.9999Z" fill="#C6A272" fill-opacity="0.6"/>
<path d="M1601.8 -1.90735e-05C1601.8 12.3272 1606.9 24.1496 1615.96 32.8663C1625.02 41.583 1637.32 46.48 1650.14 46.48C1662.95 46.48 1675.25 41.583 1684.31 32.8663C1693.38 24.1496 1698.47 12.3273 1698.47 -1.14441e-05L1650.14 -1.90735e-05H1601.8Z" fill="#F3EDE1"/>
<path fill-rule="evenodd" clip-rule="evenodd" d="M1608.31 5.99998C1609.64 14.4649 1613.75 22.387 1620.16 28.5551C1628.08 36.1692 1638.86 40.48 1650.14 40.48C1661.42 40.48 1672.19 36.1692 1680.11 28.5551C1686.53 22.387 1690.64 14.4649 1691.96 5.99999L1608.31 5.99998ZM1602.21 5.99998C1603.58 16.1135 1608.38 25.5761 1615.96 32.8663C1625.02 41.583 1637.32 46.48 1650.14 46.48C1662.95 46.48 1675.25 41.583 1684.31 32.8663C1691.89 25.5761 1696.69 16.1135 1698.06 5.99999C1698.33 4.02111 1698.47 2.01731 1698.47 -1.14441e-05L1601.8 -1.90735e-05C1601.8 2.0173 1601.94 4.0211 1602.21 5.99998Z" fill="#C6A272" fill-opacity="0.6"/>
<path d="M910.871 0C910.871 44.0259 929.057 86.2487 961.428 117.38C993.799 148.511 1037.7 166 1083.48 166C1129.26 166 1173.17 148.511 1205.54 117.38C1237.91 86.2487 1256.1 44.026 1256.1 3.05176e-05L1083.48 0H910.871Z" fill="#F3EDE1"/>
<path fill-rule="evenodd" clip-rule="evenodd" d="M965.628 113.069C935.887 84.4665 918.596 46.1945 917.027 6L1249.94 6.00003C1248.37 46.1945 1231.08 84.4666 1201.34 113.069C1170.11 143.097 1127.72 160 1083.48 160C1039.24 160 996.853 143.097 965.628 113.069ZM1255.98 6.00003C1256.06 4.00435 1256.1 2.00406 1256.1 3.05176e-05L910.871 0C910.871 2.00403 910.909 4.00432 910.984 6C912.556 47.8468 930.531 87.6658 961.428 117.38C993.799 148.511 1037.7 166 1083.48 166C1129.26 166 1173.17 148.511 1205.54 117.38C1236.44 87.6658 1254.41 47.8469 1255.98 6.00003Z" fill="#C6A272" fill-opacity="0.6"/>
<path d="M931.585 0C931.585 38.7428 947.588 75.8988 976.075 103.294C1004.56 130.689 1043.2 146.08 1083.48 146.08C1123.77 146.08 1162.41 130.689 1190.89 103.294C1219.38 75.8989 1235.38 38.7428 1235.38 1.52588e-05L1083.48 0H931.585Z" fill="#F3EDE1"/>
<path fill-rule="evenodd" clip-rule="evenodd" d="M980.275 98.983C954.419 74.1176 939.315 40.9097 937.757 6L1229.21 6.00002C1227.65 40.9097 1212.55 74.1176 1186.69 98.983C1159.35 125.276 1122.23 140.08 1083.48 140.08C1044.74 140.08 1007.61 125.276 980.275 98.983ZM1235.25 6.00002C1235.34 4.00502 1235.38 2.00464 1235.38 1.52588e-05L931.585 0C931.585 2.00462 931.628 4.005 931.713 6C933.274 42.5617 949.062 77.3163 976.075 103.294C1004.56 130.689 1043.2 146.08 1083.48 146.08C1123.77 146.08 1162.41 130.689 1190.89 103.294C1217.91 77.3163 1233.69 42.5618 1235.25 6.00002Z" fill="#C6A272" fill-opacity="0.6"/>
<path d="M952.298 0C952.298 33.4597 966.12 65.549 990.722 89.2086C1015.32 112.868 1048.69 126.16 1083.48 126.16C1118.28 126.16 1151.64 112.868 1176.25 89.2086C1200.85 65.549 1214.67 33.4597 1214.67 1.52588e-05L1083.48 0H952.298Z" fill="#F3EDE1"/>
<path fill-rule="evenodd" clip-rule="evenodd" d="M994.922 84.8974C972.951 63.7689 960.035 35.6244 958.493 6L1208.47 6.00002C1206.93 35.6244 1194.02 63.7689 1172.05 84.8974C1148.59 107.454 1116.74 120.16 1083.48 120.16C1050.23 120.16 1018.38 107.454 994.922 84.8974ZM1214.52 6.00002C1214.62 4.00595 1214.67 2.00545 1214.67 1.52588e-05L952.298 0C952.298 2.00543 952.348 4.00594 952.447 6C953.994 37.276 967.594 66.9671 990.722 89.2086C1015.32 112.868 1048.69 126.16 1083.48 126.16C1118.28 126.16 1151.64 112.868 1176.25 89.2086C1199.37 66.9671 1212.97 37.276 1214.52 6.00002Z" fill="#C6A272" fill-opacity="0.6"/>
<path d="M973.012 -7.62939e-06C973.012 28.1766 984.651 55.1991 1005.37 75.123C1026.09 95.0469 1054.18 106.24 1083.48 106.24C1112.78 106.24 1140.88 95.0469 1161.6 75.123C1182.32 55.1992 1193.96 28.1766 1193.96 7.62939e-06L1083.48 -7.62939e-06H973.012Z" fill="#F3EDE1"/>
<path fill-rule="evenodd" clip-rule="evenodd" d="M979.238 5.99999C980.758 30.3383 991.484 53.4206 1009.57 70.8118C1029.14 89.6331 1055.72 100.24 1083.48 100.24C1111.24 100.24 1137.83 89.6331 1157.4 70.8118C1175.48 53.4207 1186.21 30.3383 1187.73 6.00001L979.238 5.99999ZM973.188 5.99999C974.715 31.9894 986.126 56.618 1005.37 75.123C1026.09 95.0469 1054.18 106.24 1083.48 106.24C1112.78 106.24 1140.88 95.0469 1161.6 75.123C1180.84 56.618 1192.25 31.9894 1193.78 6.00001C1193.9 4.00729 1193.96 2.00658 1193.96 7.62939e-06L973.012 -7.62939e-06C973.012 2.00656 973.071 4.00728 973.188 5.99999Z" fill="#C6A272" fill-opacity="0.6"/>
<path d="M993.725 6.86646e-05C993.725 22.8936 1003.18 44.8494 1020.01 61.0375C1036.85 77.2257 1059.68 86.3201 1083.48 86.3201C1107.29 86.3201 1130.12 77.2257 1146.95 61.0375C1163.79 44.8494 1173.24 22.8936 1173.24 8.39233e-05L1083.48 6.86646e-05H993.725Z" fill="#F3EDE1"/>
<path fill-rule="evenodd" clip-rule="evenodd" d="M999.998 6.00007C1001.49 25.0509 1010.02 43.0734 1024.21 56.7263C1039.9 71.8119 1061.22 80.3201 1083.48 80.3201C1105.75 80.3201 1127.07 71.8119 1142.75 56.7263C1156.95 43.0734 1165.48 25.0509 1166.97 6.00008L999.998 6.00007ZM993.942 6.00007C995.441 26.7013 1004.66 46.2695 1020.01 61.0375C1036.85 77.2257 1059.68 86.3201 1083.48 86.3201C1107.29 86.3201 1130.12 77.2257 1146.95 61.0375C1162.31 46.2695 1171.53 26.7013 1173.03 6.00008C1173.17 4.00948 1173.24 2.00838 1173.24 8.39233e-05L993.725 6.86646e-05C993.725 2.00837 993.798 4.00946 993.942 6.00007Z" fill="#C6A272" fill-opacity="0.6"/>
<path d="M1014.44 -9.91821e-05C1014.44 17.6103 1021.71 34.4994 1034.66 46.9518C1047.61 59.4042 1065.17 66.3999 1083.48 66.3999C1101.8 66.3999 1119.36 59.4042 1132.31 46.9518C1145.25 34.4994 1152.53 17.6103 1152.53 -9.15527e-05L1083.48 -9.91821e-05H1014.44Z" fill="#F3EDE1"/>
<path fill-rule="evenodd" clip-rule="evenodd" d="M1020.79 5.9999C1022.22 19.7607 1028.55 32.7277 1038.86 42.6406C1050.66 53.9904 1066.71 60.3999 1083.48 60.3999C1100.26 60.3999 1116.3 53.9904 1128.11 42.6406C1138.41 32.7277 1144.75 19.7607 1146.18 5.99991L1020.79 5.9999ZM1014.72 5.9999C1016.17 21.4102 1023.19 35.9215 1034.66 46.9518C1047.61 59.4042 1065.17 66.3999 1083.48 66.3999C1101.8 66.3999 1119.36 59.4042 1132.31 46.9518C1143.78 35.9216 1150.79 21.4102 1152.25 5.99991C1152.43 4.01301 1152.53 2.01116 1152.53 -9.15527e-05L1014.44 -9.91821e-05C1014.44 2.01115 1014.53 4.013 1014.72 5.9999Z" fill="#C6A272" fill-opacity="0.6"/>
<path d="M1035.15 -1.90735e-05C1035.15 12.3272 1040.24 24.1496 1049.31 32.8663C1058.37 41.583 1070.67 46.48 1083.48 46.48C1096.3 46.48 1108.6 41.583 1117.66 32.8663C1126.72 24.1496 1131.82 12.3273 1131.82 -1.14441e-05L1083.48 -1.90735e-05H1035.15Z" fill="#F3EDE1"/>
<path fill-rule="evenodd" clip-rule="evenodd" d="M1041.66 5.99998C1042.98 14.4649 1047.09 22.387 1053.51 28.5551C1061.43 36.1692 1072.2 40.48 1083.48 40.48C1094.76 40.48 1105.54 36.1692 1113.46 28.5551C1119.87 22.387 1123.98 14.4649 1125.31 5.99999L1041.66 5.99998ZM1035.56 5.99998C1036.93 16.1135 1041.73 25.5761 1049.31 32.8663C1058.37 41.583 1070.67 46.48 1083.48 46.48C1096.3 46.48 1108.6 41.583 1117.66 32.8663C1125.24 25.5761 1130.04 16.1135 1131.41 5.99999C1131.68 4.02111 1131.82 2.01731 1131.82 -1.14441e-05L1035.15 -1.90735e-05C1035.15 2.0173 1035.29 4.0211 1035.56 5.99998Z" fill="#C6A272" fill-opacity="0.6"/>
<path d="M324.089 0C324.089 44.0259 342.275 86.2487 374.646 117.38C407.017 148.511 450.922 166 496.702 166C542.481 166 586.386 148.511 618.757 117.38C651.128 86.2487 669.314 44.026 669.314 3.05176e-05L496.702 0H324.089Z" fill="#F3EDE1"/>
<path fill-rule="evenodd" clip-rule="evenodd" d="M378.846 113.069C349.105 84.4665 331.814 46.1945 330.245 6L663.158 6.00003C661.589 46.1945 644.298 84.4666 614.557 113.069C583.332 143.097 540.942 160 496.702 160C452.461 160 410.071 143.097 378.846 113.069ZM669.202 6.00003C669.277 4.00435 669.314 2.00406 669.314 3.05176e-05L324.089 0C324.089 2.00403 324.127 4.00432 324.202 6C325.774 47.8468 343.748 87.6658 374.646 117.38C407.017 148.511 450.922 166 496.702 166C542.481 166 586.386 148.511 618.757 117.38C649.655 87.6658 667.629 47.8469 669.202 6.00003Z" fill="#C6A272" fill-opacity="0.6"/>
<path d="M344.803 0C344.803 38.7428 360.806 75.8988 389.293 103.294C417.779 130.689 456.415 146.08 496.702 146.08C536.988 146.08 575.624 130.689 604.11 103.294C632.597 75.8989 648.601 38.7428 648.601 1.52588e-05L496.702 0H344.803Z" fill="#F3EDE1"/>
<path fill-rule="evenodd" clip-rule="evenodd" d="M393.493 98.983C367.637 74.1176 352.533 40.9097 350.975 6L642.428 6.00002C640.871 40.9097 625.766 74.1176 599.91 98.983C572.57 125.276 535.448 140.08 496.702 140.08C457.955 140.08 420.833 125.276 393.493 98.983ZM648.473 6.00002C648.558 4.00502 648.601 2.00464 648.601 1.52588e-05L344.803 0C344.803 2.00462 344.845 4.005 344.931 6C346.492 42.5617 362.28 77.3163 389.293 103.294C417.779 130.689 456.415 146.08 496.702 146.08C536.988 146.08 575.624 130.689 604.11 103.294C631.123 77.3163 646.911 42.5618 648.473 6.00002Z" fill="#C6A272" fill-opacity="0.6"/>
<path d="M365.516 0C365.516 33.4597 379.337 65.549 403.939 89.2086C428.541 112.868 461.909 126.16 496.701 126.16C531.494 126.16 564.862 112.868 589.464 89.2086C614.066 65.549 627.887 33.4597 627.887 1.52588e-05L496.702 0H365.516Z" fill="#F3EDE1"/>
<path fill-rule="evenodd" clip-rule="evenodd" d="M408.139 84.8974C386.169 63.7689 373.253 35.6244 371.711 6L621.692 6.00002C620.15 35.6244 607.234 63.7689 585.264 84.8974C561.808 107.454 529.955 120.16 496.701 120.16C463.448 120.16 431.595 107.454 408.139 84.8974ZM627.739 6.00002C627.837 4.00595 627.887 2.00545 627.887 1.52588e-05L365.516 0C365.516 2.00543 365.566 4.00594 365.664 6C367.211 37.276 380.812 66.9671 403.939 89.2086C428.541 112.868 461.909 126.16 496.701 126.16C531.494 126.16 564.862 112.868 589.464 89.2086C612.591 66.9671 626.192 37.276 627.739 6.00002Z" fill="#C6A272" fill-opacity="0.6"/>
<path d="M386.23 -7.62939e-06C386.23 28.1766 397.869 55.1991 418.586 75.123C439.304 95.0469 467.403 106.24 496.702 106.24C526.001 106.24 554.1 95.0469 574.817 75.123C595.535 55.1992 607.174 28.1766 607.174 7.62939e-06L496.702 -7.62939e-06H386.23Z" fill="#F3EDE1"/>
<path fill-rule="evenodd" clip-rule="evenodd" d="M392.456 5.99999C393.975 30.3383 404.702 53.4206 422.786 70.8118C442.357 89.6331 468.942 100.24 496.702 100.24C524.461 100.24 551.046 89.6331 570.617 70.8118C588.701 53.4207 599.428 30.3383 600.948 6.00001L392.456 5.99999ZM386.406 5.99999C387.933 31.9894 399.344 56.618 418.586 75.123C439.304 95.0469 467.403 106.24 496.702 106.24C526.001 106.24 554.1 95.0469 574.817 75.123C594.059 56.618 605.47 31.9894 606.998 6.00001C607.115 4.00729 607.174 2.00658 607.174 7.62939e-06L386.23 -7.62939e-06C386.23 2.00656 386.289 4.00728 386.406 5.99999Z" fill="#C6A272" fill-opacity="0.6"/>
<path d="M406.943 6.86646e-05C406.943 22.8936 416.4 44.8494 433.233 61.0375C450.066 77.2257 472.896 86.3201 496.702 86.3201C520.507 86.3201 543.338 77.2257 560.171 61.0375C577.004 44.8494 586.46 22.8936 586.46 8.39233e-05L496.702 6.86646e-05H406.943Z" fill="#F3EDE1"/>
<path fill-rule="evenodd" clip-rule="evenodd" d="M413.216 6.00007C414.703 25.0509 423.236 43.0734 437.433 56.7263C453.119 71.8119 474.435 80.3201 496.702 80.3201C518.968 80.3201 540.284 71.8119 555.971 56.7263C570.167 43.0734 578.7 25.0509 580.187 6.00008L413.216 6.00007ZM407.16 6.00007C408.659 26.7013 417.876 46.2695 433.233 61.0375C450.066 77.2257 472.896 86.3201 496.702 86.3201C520.507 86.3201 543.338 77.2257 560.171 61.0375C575.527 46.2695 584.744 26.7013 586.243 6.00008C586.387 4.00948 586.46 2.00838 586.46 8.39233e-05L406.943 6.86646e-05C406.943 2.00837 407.016 4.00946 407.16 6.00007Z" fill="#C6A272" fill-opacity="0.6"/>
<path d="M427.657 -9.91821e-05C427.657 17.6103 434.931 34.4994 447.879 46.9518C460.828 59.4042 478.39 66.3999 496.702 66.3999C515.013 66.3999 532.575 59.4042 545.524 46.9518C558.472 34.4994 565.747 17.6103 565.747 -9.15527e-05L496.702 -9.91821e-05H427.657Z" fill="#F3EDE1"/>
<path fill-rule="evenodd" clip-rule="evenodd" d="M434.007 5.9999C435.44 19.7607 441.772 32.7277 452.079 42.6406C463.881 53.9904 479.929 60.3999 496.702 60.3999C513.474 60.3999 529.522 53.9904 541.324 42.6406C551.632 32.7277 557.963 19.7607 559.396 5.99991L434.007 5.9999ZM427.939 5.9999C429.392 21.4102 436.41 35.9215 447.879 46.9518C460.828 59.4042 478.39 66.3999 496.702 66.3999C515.013 66.3999 532.575 59.4042 545.524 46.9518C556.993 35.9216 564.011 21.4102 565.464 5.99991C565.652 4.01301 565.747 2.01116 565.747 -9.15527e-05L427.657 -9.91821e-05C427.657 2.01115 427.751 4.013 427.939 5.9999Z" fill="#C6A272" fill-opacity="0.6"/>
<path d="M448.37 -1.90735e-05C448.37 12.3272 453.462 24.1496 462.526 32.8663C471.59 41.583 483.883 46.48 496.702 46.48C509.52 46.48 521.813 41.583 530.877 32.8663C539.941 24.1496 545.033 12.3273 545.033 -1.14441e-05L496.702 -1.90735e-05H448.37Z" fill="#F3EDE1"/>
<path fill-rule="evenodd" clip-rule="evenodd" d="M454.876 5.99998C456.202 14.4649 460.312 22.387 466.726 28.5551C474.643 36.1692 485.422 40.48 496.702 40.48C507.981 40.48 518.76 36.1692 526.677 28.5551C533.091 22.387 537.201 14.4649 538.527 5.99999L454.876 5.99998ZM448.774 5.99998C450.143 16.1135 454.945 25.5761 462.526 32.8663C471.59 41.583 483.883 46.48 496.702 46.48C509.52 46.48 521.813 41.583 530.877 32.8663C538.458 25.5761 543.26 16.1135 544.629 5.99999C544.897 4.02111 545.033 2.01731 545.033 -1.14441e-05L448.37 -1.90735e-05C448.37 2.0173 448.506 4.0211 448.774 5.99998Z" fill="#C6A272" fill-opacity="0.6"/>
</svg>
