<svg width="100" height="670" viewBox="0 0 100 670" fill="none" xmlns="http://www.w3.org/2000/svg">
<path d="M25 50.6V57.7H75.2V50.6H25ZM25 38.6V45.5H75.2V38.6H25ZM17.7 33.2H82.6V63H17.7V33.2ZM5.8 68.6H93.9V74.8H5.8V68.6ZM50.2 81.1H85.8V87.2H50.2V81.1ZM18.8 81.7H43.5V87.3H18.8V81.7ZM18.8 94.3H43.5V99.9H18.8V94.3ZM60.7 86.7C66.5 101 79.3 111.9 96.3 116.1C94.7 117.5 92.7 120.2 91.7 122C74.1 116.8 61.2 104.9 54.6 88.5L60.7 86.7ZM83.5 81.1H84.9L86.2 80.8L90.8 82.7C84.2 103 68.1 115.5 50.7 121.5C49.9 119.7 48 117 46.6 115.6C62.6 110.8 78 99.1 83.5 82.3V81.1ZM4.9 109.6C14.7 108.8 29.2 107.2 43.3 105.6V111.8C29.8 113.4 15.9 115.1 5.6 116.3L4.9 109.6ZM39.5 70.6H46.7V122H39.5V70.6ZM14.4 70.7H21.4V111.4H14.4V70.7Z" fill="#E9DAC6"/>
<path d="M6.5 145.6H93.4V152.1H6.5V145.6ZM45.6 136H53.3V148.7H45.6V136ZM10.9 184.7H85.2V191.1H18.2V228.1H10.9V184.7ZM82.1 184.7H89.6V219.1C89.6 223.2 88.7 225.4 85.5 226.7C82.3 227.8 76.9 227.9 68.6 227.9C68.3 225.8 67.2 222.8 66.1 220.8C72.7 221 78.3 221 80 220.8C81.7 220.8 82.1 220.3 82.1 218.9V184.7ZM30.9 197.6H37.6V223.8H30.9V197.6ZM34.5 197.6H69.1V218.7H34.5V213.3H62.3V203H34.5V197.6ZM30.3 163.2V172.9H69.4V163.2H30.3ZM23.1 157.7H77V178.4H23.1V157.7Z" fill="#E9DAC6"/>
<path d="M56.3 257.8C55 268.2 53 279.9 49.9 290.6C43.8 311.1 35.8 321.7 26.6 321.7C17.6 321.7 8.7 311.5 8.7 294.9C8.7 273.2 28 254.3 52.5 254.3C75.9 254.3 90.8 270.8 90.8 291.1C90.8 312 77 326 53.2 329.1L48.6 321.7C51.8 321.4 54.8 321 57.2 320.5C70 317.6 82.6 308 82.6 290.7C82.6 274.7 71.5 261.5 52.3 261.5C30.3 261.5 16.6 279.6 16.6 294.3C16.6 306.9 22.3 312.5 26.8 312.5C31.5 312.5 36.9 305.7 42 288.8C44.9 279.3 47 268 48 257.6L56.3 257.8Z" fill="#E9DAC6"/>
<path d="M49.6 354.6C41 365.2 24.5 377.4 7.9 385.1C7 383.4 5.1 380.7 3.5 379C20.5 371.7 37.3 359.1 45.4 347.9H52.9C63.8 360.5 81.2 372 96.8 377.9C95.1 379.7 93.3 382.4 92 384.5C77 377.8 59.3 365.9 49.6 354.6ZM25.9 390.1H73.8V395.9H25.9V390.1ZM45.8 365.6H53.5V379.2H45.8V365.6ZM10.1 432.1C21.2 431.2 38.2 429.7 54.7 428.1L54.8 434.9C39.1 436.5 22.6 438.1 11.1 439.2L10.1 432.1ZM50.4 408C57.8 422.1 74 430.5 95.3 433.5C93.7 435.1 91.7 438.1 90.7 440.1C68.7 436.2 52.4 426.5 44 410L50.4 408ZM84.2 406.4L89.8 410.8C81.9 416.4 71.6 422.2 63.4 426.1L58.6 422C66.7 418.1 77.7 411.4 84.2 406.4ZM25.9 375.6H78.6V410.9H25.9V404.8H71.1V381.7H25.9V375.6ZM21.4 375.6H28.8V433L21.4 433.8V375.6Z" fill="#E9DAC6"/>
<path d="M4.6 512.5C7.1 510.6 9.2 508.7 11.8 505.9C17.2 500.5 25.5 489.1 31.5 482C37.3 475.2 42.5 474.2 49.1 481C55.1 487.1 62.8 497 69.2 503.8C75.2 510.5 85.2 521 94.2 529L87.7 536.2C80.2 529.1 71.2 518.7 64.3 510.9C57.8 503.5 50.2 493.9 45.5 488.8C41.3 484.1 39.4 484.9 35.9 489.1C31.2 494.9 23 505.9 17.8 512.1C15.8 514.7 13.5 517.9 12 520.1L4.6 512.5ZM69.2 470.5C71.7 474.3 76.3 481.7 78.7 486.5L72.7 489.2C70.3 483.9 66.8 477.6 63.4 473L69.2 470.5ZM82.1 465.5C84.7 469 89.5 476.5 91.9 481.1L86.1 483.9C83.4 478.7 79.8 472.5 76.5 468.1L82.1 465.5Z" fill="#E9DAC6"/>
<path d="M53.4 560L60.2 561.4C56.5 577.8 49.9 593 41.5 602.9C40.3 601.8 37.3 599.6 35.7 598.6C44.1 589.6 50 575.2 53.4 560ZM87.9 576.8H95C95 576.8 95 579.6 94.9 580.7C92.6 626.3 90.5 642 86.4 646.9C84.4 649.6 82.5 650.5 79.4 650.8C76.8 651.2 72.4 651.1 68 650.8C67.8 648.6 67.1 645.4 65.9 643.4C70.4 643.8 74.5 643.9 76.4 643.9C78 643.9 79 643.5 80.2 642.2C83.5 638.4 85.8 622.5 87.9 578.6V576.8ZM52.7 576.8H90.9V583.9H49.5L52.7 576.8ZM62.8 579L68.5 581.9C64.2 599.6 54.7 619.6 43.3 629.5C41.8 628 39.4 626.2 37.4 625.1C49.1 615.9 58.7 596.5 62.8 579ZM77.1 579.6L83.1 582.4C78.1 609.3 66.9 636.9 50.1 650.4C48.6 648.8 45.9 646.9 43.7 645.8C61.2 633.3 72.3 606.2 77.1 579.6ZM3.5 615.5C12.9 613.1 27.2 608.9 40.8 604.8L41.8 611.4C29.1 615.4 15.6 619.6 5.5 622.8L3.5 615.5ZM22.2 560.1H29.2V652H22.2V560.1ZM9.8 565.8L16.3 566.9C14.8 580.2 12.3 593.7 8.5 602.6C7.3 601.7 4.4 600 2.8 599.3C6.6 590.8 8.6 578.1 9.8 565.8ZM10.4 580.5H39.5V587.8H9.2L10.4 580.5Z" fill="#E9DAC6"/>
</svg>
