<svg width="3604" height="96" viewBox="0 0 3604 96" fill="none" xmlns="http://www.w3.org/2000/svg">
<path d="M1 64L58.5399 24.285C79.242 9.99603 106.659 10.1374 127.213 24.6391L148.41 39.5946C169.149 54.2271 196.851 54.2271 217.59 39.5946L238.41 24.9054C259.149 10.2729 286.851 10.2729 307.59 24.9054L328.41 39.5946C349.149 54.2271 376.851 54.2271 397.59 39.5946L418.41 24.9054C439.149 10.2729 466.851 10.2729 487.59 24.9054L508.41 39.5946C529.149 54.2271 556.851 54.2271 577.59 39.5946L598.41 24.9054C619.149 10.2729 646.851 10.2729 667.59 24.9054L688.41 39.5946C709.149 54.2271 736.851 54.2271 757.59 39.5946L778.41 24.9054C799.149 10.2729 826.851 10.2729 847.59 24.9054L868.41 39.5946C889.149 54.2271 916.851 54.2271 937.59 39.5946L958.41 24.9054C979.149 10.2729 1006.85 10.2729 1027.59 24.9054L1048.41 39.5946C1069.15 54.2271 1096.85 54.2271 1117.59 39.5946L1138.41 24.9054C1159.15 10.2729 1186.85 10.2729 1207.59 24.9054L1228.41 39.5946C1249.15 54.2271 1276.85 54.2271 1297.59 39.5946L1318.41 24.9054C1339.15 10.2729 1366.85 10.2729 1387.59 24.9054L1408.41 39.5946C1429.15 54.2271 1456.85 54.2271 1477.59 39.5946L1498.41 24.9054C1519.15 10.2729 1546.85 10.2729 1567.59 24.9054L1588.41 39.5946C1609.15 54.2271 1636.85 54.2271 1657.59 39.5946L1678.41 24.9054C1699.15 10.2729 1726.85 10.2729 1747.59 24.9054L1768.41 39.5946C1789.15 54.2271 1816.85 54.2271 1837.59 39.5946L1858.41 24.9054C1879.15 10.2729 1906.85 10.2729 1927.59 24.9054L1948.41 39.5946C1969.15 54.2271 1996.85 54.2271 2017.59 39.5946L2038.41 24.9054C2059.15 10.2729 2086.85 10.2729 2107.59 24.9054L2128.41 39.5946C2149.15 54.2271 2176.85 54.2271 2197.59 39.5946L2218.41 24.9054C2239.15 10.2729 2266.85 10.2729 2287.59 24.9054L2308.41 39.5946C2329.15 54.2271 2356.85 54.2271 2377.59 39.5946L2398.41 24.9054C2419.15 10.2729 2446.85 10.2729 2467.59 24.9054L2488.41 39.5946C2509.15 54.2271 2536.85 54.2271 2557.59 39.5946L2578.41 24.9054C2599.15 10.2729 2626.85 10.2729 2647.59 24.9054L2668.41 39.5946C2689.15 54.2271 2716.85 54.2271 2737.59 39.5946L2758.41 24.9054C2779.15 10.2729 2806.85 10.2729 2827.59 24.9054L2848.41 39.5946C2869.15 54.2271 2896.85 54.2271 2917.59 39.5946L2938.41 24.9054C2959.15 10.2729 2986.85 10.2729 3007.59 24.9054L3028.41 39.5946C3049.15 54.2271 3076.85 54.2271 3097.59 39.5946L3118.41 24.9054C3139.15 10.2729 3166.85 10.2729 3187.59 24.9054L3208.41 39.5946C3229.15 54.2271 3256.85 54.2271 3277.59 39.5946L3298.41 24.9054C3319.15 10.2729 3346.85 10.2729 3367.59 24.9054L3388.41 39.5946C3409.15 54.2271 3436.85 54.2271 3457.59 39.5946L3478.41 24.9054C3499.15 10.2729 3526.85 10.2729 3547.59 24.9054L3603 64" stroke="#C6A272" stroke-opacity="0.8" stroke-width="3"/>
<path d="M1 74L58.5399 34.285C79.242 19.996 106.659 20.1374 127.213 34.6391L148.41 49.5946C169.149 64.2271 196.851 64.2271 217.59 49.5946L238.41 34.9054C259.149 20.2729 286.851 20.2729 307.59 34.9054L328.41 49.5946C349.149 64.2271 376.851 64.2271 397.59 49.5946L418.41 34.9054C439.149 20.2729 466.851 20.2729 487.59 34.9054L508.41 49.5946C529.149 64.2271 556.851 64.2271 577.59 49.5946L598.41 34.9054C619.149 20.2729 646.851 20.2729 667.59 34.9054L688.41 49.5946C709.149 64.2271 736.851 64.2271 757.59 49.5946L778.41 34.9054C799.149 20.2729 826.851 20.2729 847.59 34.9054L868.41 49.5946C889.149 64.2271 916.851 64.2271 937.59 49.5946L958.41 34.9054C979.149 20.2729 1006.85 20.2729 1027.59 34.9054L1048.41 49.5946C1069.15 64.2271 1096.85 64.2271 1117.59 49.5946L1138.41 34.9054C1159.15 20.2729 1186.85 20.2729 1207.59 34.9054L1228.41 49.5946C1249.15 64.2271 1276.85 64.2271 1297.59 49.5946L1318.41 34.9054C1339.15 20.2729 1366.85 20.2729 1387.59 34.9054L1408.41 49.5946C1429.15 64.2271 1456.85 64.2271 1477.59 49.5946L1498.41 34.9054C1519.15 20.2729 1546.85 20.2729 1567.59 34.9054L1588.41 49.5946C1609.15 64.2271 1636.85 64.2271 1657.59 49.5946L1678.41 34.9054C1699.15 20.2729 1726.85 20.2729 1747.59 34.9054L1768.41 49.5946C1789.15 64.2271 1816.85 64.2271 1837.59 49.5946L1858.41 34.9054C1879.15 20.2729 1906.85 20.2729 1927.59 34.9054L1948.41 49.5946C1969.15 64.2271 1996.85 64.2271 2017.59 49.5946L2038.41 34.9054C2059.15 20.2729 2086.85 20.2729 2107.59 34.9054L2128.41 49.5946C2149.15 64.2271 2176.85 64.2271 2197.59 49.5946L2218.41 34.9054C2239.15 20.2729 2266.85 20.2729 2287.59 34.9054L2308.41 49.5946C2329.15 64.2271 2356.85 64.2271 2377.59 49.5946L2398.41 34.9054C2419.15 20.2729 2446.85 20.2729 2467.59 34.9054L2488.41 49.5946C2509.15 64.2271 2536.85 64.2271 2557.59 49.5946L2578.41 34.9054C2599.15 20.2729 2626.85 20.2729 2647.59 34.9054L2668.41 49.5946C2689.15 64.2271 2716.85 64.2271 2737.59 49.5946L2758.41 34.9054C2779.15 20.2729 2806.85 20.2729 2827.59 34.9054L2848.41 49.5946C2869.15 64.2271 2896.85 64.2271 2917.59 49.5946L2938.41 34.9054C2959.15 20.2729 2986.85 20.2729 3007.59 34.9054L3028.41 49.5946C3049.15 64.2271 3076.85 64.2271 3097.59 49.5946L3118.41 34.9054C3139.15 20.2729 3166.85 20.2729 3187.59 34.9054L3208.41 49.5946C3229.15 64.2271 3256.85 64.2271 3277.59 49.5946L3298.41 34.9054C3319.15 20.2729 3346.85 20.2729 3367.59 34.9054L3388.41 49.5946C3409.15 64.2271 3436.85 64.2271 3457.59 49.5946L3478.41 34.9054C3499.15 20.2729 3526.85 20.2729 3547.59 34.9054L3603 74" stroke="#C6A272" stroke-opacity="0.8" stroke-width="3"/>
<path d="M1 84L58.5399 44.285C79.242 29.996 106.659 30.1374 127.213 44.6391L148.41 59.5946C169.149 74.2271 196.851 74.2271 217.59 59.5946L238.41 44.9054C259.149 30.2729 286.851 30.2729 307.59 44.9054L328.41 59.5946C349.149 74.2271 376.851 74.2271 397.59 59.5946L418.41 44.9054C439.149 30.2729 466.851 30.2729 487.59 44.9054L508.41 59.5946C529.149 74.2271 556.851 74.2271 577.59 59.5946L598.41 44.9054C619.149 30.2729 646.851 30.2729 667.59 44.9054L688.41 59.5946C709.149 74.2271 736.851 74.2271 757.59 59.5946L778.41 44.9054C799.149 30.2729 826.851 30.2729 847.59 44.9054L868.41 59.5946C889.149 74.2271 916.851 74.2271 937.59 59.5946L958.41 44.9054C979.149 30.2729 1006.85 30.2729 1027.59 44.9054L1048.41 59.5946C1069.15 74.2271 1096.85 74.2271 1117.59 59.5946L1138.41 44.9054C1159.15 30.2729 1186.85 30.2729 1207.59 44.9054L1228.41 59.5946C1249.15 74.2271 1276.85 74.2271 1297.59 59.5946L1318.41 44.9054C1339.15 30.2729 1366.85 30.2729 1387.59 44.9054L1408.41 59.5946C1429.15 74.2271 1456.85 74.2271 1477.59 59.5946L1498.41 44.9054C1519.15 30.2729 1546.85 30.2729 1567.59 44.9054L1588.41 59.5946C1609.15 74.2271 1636.85 74.2271 1657.59 59.5946L1678.41 44.9054C1699.15 30.2729 1726.85 30.2729 1747.59 44.9054L1768.41 59.5946C1789.15 74.2271 1816.85 74.2271 1837.59 59.5946L1858.41 44.9054C1879.15 30.2729 1906.85 30.2729 1927.59 44.9054L1948.41 59.5946C1969.15 74.2271 1996.85 74.2271 2017.59 59.5946L2038.41 44.9054C2059.15 30.2729 2086.85 30.2729 2107.59 44.9054L2128.41 59.5946C2149.15 74.2271 2176.85 74.2271 2197.59 59.5946L2218.41 44.9054C2239.15 30.2729 2266.85 30.2729 2287.59 44.9054L2308.41 59.5946C2329.15 74.2271 2356.85 74.2271 2377.59 59.5946L2398.41 44.9054C2419.15 30.2729 2446.85 30.2729 2467.59 44.9054L2488.41 59.5946C2509.15 74.2271 2536.85 74.2271 2557.59 59.5946L2578.41 44.9054C2599.15 30.2729 2626.85 30.2729 2647.59 44.9054L2668.41 59.5946C2689.15 74.2271 2716.85 74.2271 2737.59 59.5946L2758.41 44.9054C2779.15 30.2729 2806.85 30.2729 2827.59 44.9054L2848.41 59.5946C2869.15 74.2271 2896.85 74.2271 2917.59 59.5946L2938.41 44.9054C2959.15 30.2729 2986.85 30.2729 3007.59 44.9054L3028.41 59.5946C3049.15 74.2271 3076.85 74.2271 3097.59 59.5946L3118.41 44.9054C3139.15 30.2729 3166.85 30.2729 3187.59 44.9054L3208.41 59.5946C3229.15 74.2271 3256.85 74.2271 3277.59 59.5946L3298.41 44.9054C3319.15 30.2729 3346.85 30.2729 3367.59 44.9054L3388.41 59.5946C3409.15 74.2271 3436.85 74.2271 3457.59 59.5946L3478.41 44.9054C3499.15 30.2729 3526.85 30.2729 3547.59 44.9054L3603 84" stroke="#C6A272" stroke-opacity="0.8" stroke-width="3"/>
<path d="M1 94L58.5399 54.285C79.242 39.996 106.659 40.1374 127.213 54.6391L148.41 69.5946C169.149 84.2271 196.851 84.2271 217.59 69.5946L238.41 54.9054C259.149 40.2729 286.851 40.2729 307.59 54.9054L328.41 69.5946C349.149 84.2271 376.851 84.2271 397.59 69.5946L418.41 54.9054C439.149 40.2729 466.851 40.2729 487.59 54.9054L508.41 69.5946C529.149 84.2271 556.851 84.2271 577.59 69.5946L598.41 54.9054C619.149 40.2729 646.851 40.2729 667.59 54.9054L688.41 69.5946C709.149 84.2271 736.851 84.2271 757.59 69.5946L778.41 54.9054C799.149 40.2729 826.851 40.2729 847.59 54.9054L868.41 69.5946C889.149 84.2271 916.851 84.2271 937.59 69.5946L958.41 54.9054C979.149 40.2729 1006.85 40.2729 1027.59 54.9054L1048.41 69.5946C1069.15 84.2271 1096.85 84.2271 1117.59 69.5946L1138.41 54.9054C1159.15 40.2729 1186.85 40.2729 1207.59 54.9054L1228.41 69.5946C1249.15 84.2271 1276.85 84.2271 1297.59 69.5946L1318.41 54.9054C1339.15 40.2729 1366.85 40.2729 1387.59 54.9054L1408.41 69.5946C1429.15 84.2271 1456.85 84.2271 1477.59 69.5946L1498.41 54.9054C1519.15 40.2729 1546.85 40.2729 1567.59 54.9054L1588.41 69.5946C1609.15 84.2271 1636.85 84.2271 1657.59 69.5946L1678.41 54.9054C1699.15 40.2729 1726.85 40.2729 1747.59 54.9054L1768.41 69.5946C1789.15 84.2271 1816.85 84.2271 1837.59 69.5946L1858.41 54.9054C1879.15 40.2729 1906.85 40.2729 1927.59 54.9054L1948.41 69.5946C1969.15 84.2271 1996.85 84.2271 2017.59 69.5946L2038.41 54.9054C2059.15 40.2729 2086.85 40.2729 2107.59 54.9054L2128.41 69.5946C2149.15 84.2271 2176.85 84.2271 2197.59 69.5946L2218.41 54.9054C2239.15 40.2729 2266.85 40.2729 2287.59 54.9054L2308.41 69.5946C2329.15 84.2271 2356.85 84.2271 2377.59 69.5946L2398.41 54.9054C2419.15 40.2729 2446.85 40.2729 2467.59 54.9054L2488.41 69.5946C2509.15 84.2271 2536.85 84.2271 2557.59 69.5946L2578.41 54.9054C2599.15 40.2729 2626.85 40.2729 2647.59 54.9054L2668.41 69.5946C2689.15 84.2271 2716.85 84.2271 2737.59 69.5946L2758.41 54.9054C2779.15 40.2729 2806.85 40.2729 2827.59 54.9054L2848.41 69.5946C2869.15 84.2271 2896.85 84.2271 2917.59 69.5946L2938.41 54.9054C2959.15 40.2729 2986.85 40.2729 3007.59 54.9054L3028.41 69.5946C3049.15 84.2271 3076.85 84.2271 3097.59 69.5946L3118.41 54.9054C3139.15 40.2729 3166.85 40.2729 3187.59 54.9054L3208.41 69.5946C3229.15 84.2271 3256.85 84.2271 3277.59 69.5946L3298.41 54.9054C3319.15 40.2729 3346.85 40.2729 3367.59 54.9054L3388.41 69.5946C3409.15 84.2271 3436.85 84.2271 3457.59 69.5946L3478.41 54.9054C3499.15 40.2729 3526.85 40.2729 3547.59 54.9054L3603 94" stroke="#C6A272" stroke-opacity="0.8" stroke-width="3"/>
</svg>
