<svg width="3237" height="166" viewBox="0 0 3237 166" fill="none" xmlns="http://www.w3.org/2000/svg">
<path d="M343 166C343 121.974 324.931 79.7513 292.769 48.6203C260.606 17.4892 216.985 0 171.5 0C126.015 0 82.3937 17.4892 50.2312 48.6203C18.0687 79.7513 6.86799e-06 121.974 0 166L171.5 166H343Z" fill="#C6A272"/>
<path fill-rule="evenodd" clip-rule="evenodd" d="M288.596 52.9315C318.146 81.5335 335.325 119.806 336.884 160L6.1163 160C7.67534 119.806 24.8545 81.5334 54.4041 52.9315C85.4275 22.903 127.545 6 171.5 6C215.455 6 257.573 22.903 288.596 52.9315ZM0.111941 160C0.037439 161.996 3.12626e-07 163.996 0 166L343 166C343 163.996 342.963 161.996 342.888 160C341.326 118.153 323.467 78.3342 292.769 48.6203C260.606 17.4892 216.985 0 171.5 0C126.015 0 82.3937 17.4892 50.2312 48.6203C19.5327 78.3342 1.67416 118.153 0.111941 160Z" fill="#F3EDE1"/>
<path d="M322.42 166C322.42 127.257 306.52 90.1012 278.217 62.7058C249.914 35.3105 211.526 19.92 171.5 19.92C131.473 19.92 93.0864 35.3105 64.7834 62.7058C36.4804 90.1011 20.58 127.257 20.58 166L171.5 166H322.42Z" fill="#C6A272"/>
<path fill-rule="evenodd" clip-rule="evenodd" d="M274.044 67.017C299.733 91.8824 314.74 125.09 316.287 160L26.7128 160C28.2602 125.09 43.2671 91.8824 68.9564 67.017C96.1202 40.7243 133.003 25.92 171.5 25.92C209.997 25.92 246.88 40.7243 274.044 67.017ZM20.7072 160C20.6225 161.995 20.58 163.995 20.58 166L322.42 166C322.42 163.995 322.377 161.995 322.293 160C320.741 123.438 305.055 88.6837 278.217 62.7058C249.914 35.3105 211.526 19.92 171.5 19.92C131.473 19.92 93.0864 35.3105 64.7834 62.7058C37.9449 88.6837 22.2586 123.438 20.7072 160Z" fill="#F3EDE1"/>
<path d="M301.84 166C301.84 132.54 288.108 100.451 263.664 76.7914C239.221 53.1318 206.068 39.84 171.5 39.84C136.932 39.84 103.779 53.1318 79.3357 76.7914C54.8923 100.451 41.16 132.54 41.16 166L171.5 166H301.84Z" fill="#C6A272"/>
<path fill-rule="evenodd" clip-rule="evenodd" d="M259.491 81.1026C281.32 102.231 294.153 130.376 295.685 160L47.315 160C48.8468 130.376 61.6801 102.231 83.5087 81.1026C106.813 58.5456 138.461 45.84 171.5 45.84C204.539 45.84 236.187 58.5456 259.491 81.1026ZM41.3074 160C41.2094 161.994 41.16 163.995 41.16 166L301.84 166C301.84 163.995 301.791 161.994 301.693 160C300.155 128.724 286.643 99.0329 263.664 76.7914C239.221 53.1318 206.068 39.84 171.5 39.84C136.932 39.84 103.779 53.1318 79.3357 76.7914C56.3573 99.0329 42.8446 128.724 41.3074 160Z" fill="#F3EDE1"/>
<path d="M281.26 166C281.26 137.823 269.696 110.801 249.112 90.877C228.528 70.9531 200.61 59.76 171.5 59.76C142.39 59.76 114.472 70.9531 93.888 90.877C73.304 110.801 61.74 137.823 61.74 166L171.5 166H281.26Z" fill="#C6A272"/>
<path fill-rule="evenodd" clip-rule="evenodd" d="M275.074 160C273.564 135.662 262.906 112.579 244.939 95.1882C225.494 76.3669 199.081 65.76 171.5 65.76C143.919 65.76 117.506 76.3669 98.0609 95.1882C80.0935 112.579 69.4359 135.662 67.9259 160L275.074 160ZM281.085 160C279.567 134.011 268.23 109.382 249.112 90.877C228.528 70.9531 200.61 59.76 171.5 59.76C142.39 59.76 114.472 70.9531 93.888 90.877C74.7698 109.382 63.4328 134.011 61.915 160C61.7986 161.993 61.74 163.993 61.74 166L281.26 166C281.26 163.993 281.201 161.993 281.085 160Z" fill="#F3EDE1"/>
<path d="M260.68 166C260.68 143.106 251.284 121.151 234.56 104.962C217.835 88.7743 195.152 79.6799 171.5 79.6799C147.848 79.6799 125.165 88.7743 108.44 104.962C91.7157 121.151 82.3199 143.106 82.3199 166L171.5 166H260.68Z" fill="#C6A272"/>
<path fill-rule="evenodd" clip-rule="evenodd" d="M254.448 160C252.97 140.949 244.492 122.927 230.387 109.274C214.801 94.1881 193.623 85.6799 171.5 85.6799C149.377 85.6799 128.198 94.1881 112.613 109.274C98.5078 122.927 90.0298 140.949 88.5522 160L254.448 160ZM260.464 160C258.975 139.299 249.817 119.731 234.56 104.962C217.835 88.7743 195.152 79.6799 171.5 79.6799C147.848 79.6799 125.165 88.7743 108.44 104.962C93.1828 119.731 84.0248 139.299 82.5355 160C82.3923 161.991 82.3199 163.992 82.3199 166L260.68 166C260.68 163.992 260.608 161.991 260.464 160Z" fill="#F3EDE1"/>
<path d="M240.1 166C240.1 148.39 232.873 131.501 220.008 119.048C207.143 106.596 189.694 99.6001 171.5 99.6001C153.306 99.6001 135.857 106.596 122.993 119.048C110.128 131.501 102.9 148.39 102.9 166L171.5 166H240.1Z" fill="#C6A272"/>
<path fill-rule="evenodd" clip-rule="evenodd" d="M233.79 160C232.367 146.239 226.076 133.272 215.835 123.359C204.109 112.01 188.165 105.6 171.5 105.6C154.836 105.6 138.891 112.01 127.165 123.359C116.924 133.272 110.633 146.239 109.21 160L233.79 160ZM239.82 160C238.376 144.59 231.403 130.078 220.008 119.048C207.143 106.596 189.694 99.6001 171.5 99.6001C153.306 99.6001 135.858 106.596 122.993 119.048C111.597 130.078 104.624 144.59 103.18 160C102.994 161.987 102.9 163.989 102.9 166L240.1 166C240.1 163.989 240.006 161.987 239.82 160Z" fill="#F3EDE1"/>
<path d="M219.52 166C219.52 153.673 214.461 141.85 205.455 133.134C196.45 124.417 184.236 119.52 171.5 119.52C158.764 119.52 146.55 124.417 137.545 133.134C128.539 141.85 123.48 153.673 123.48 166L171.5 166H219.52Z" fill="#C6A272"/>
<path fill-rule="evenodd" clip-rule="evenodd" d="M213.056 160C211.739 151.535 207.655 143.613 201.282 137.445C193.416 129.831 182.706 125.52 171.5 125.52C160.294 125.52 149.584 129.831 141.718 137.445C135.345 143.613 131.261 151.535 129.944 160L213.056 160ZM219.118 160C217.758 149.887 212.987 140.424 205.455 133.134C196.45 124.417 184.236 119.52 171.5 119.52C158.764 119.52 146.55 124.417 137.545 133.134C130.013 140.424 125.242 149.887 123.882 160C123.615 161.979 123.48 163.983 123.48 166L219.52 166C219.52 163.983 219.384 161.979 219.118 160Z" fill="#F3EDE1"/>
<path d="M1488 166C1488 121.974 1469.93 79.7513 1437.77 48.6203C1405.61 17.4892 1361.98 3.32387e-06 1316.5 0C1271.02 -3.32387e-06 1227.39 17.4892 1195.23 48.6203C1163.07 79.7513 1145 121.974 1145 166L1316.5 166H1488Z" fill="#C6A272"/>
<path fill-rule="evenodd" clip-rule="evenodd" d="M1433.6 52.9315C1463.15 81.5335 1480.32 119.806 1481.88 160L1151.12 160C1152.68 119.806 1169.85 81.5334 1199.4 52.9315C1230.43 22.903 1272.54 6 1316.5 6C1360.46 6 1402.57 22.903 1433.6 52.9315ZM1145.11 160C1145.04 161.996 1145 163.996 1145 166L1488 166C1488 163.996 1487.96 161.996 1487.89 160C1486.33 118.153 1468.47 78.3342 1437.77 48.6203C1405.61 17.4892 1361.98 0 1316.5 0C1271.02 0 1227.39 17.4892 1195.23 48.6203C1164.53 78.3342 1146.67 118.153 1145.11 160Z" fill="#F3EDE1"/>
<path d="M1467.42 166C1467.42 127.257 1451.52 90.1012 1423.22 62.7058C1394.91 35.3105 1356.53 19.92 1316.5 19.92C1276.47 19.92 1238.09 35.3105 1209.78 62.7058C1181.48 90.1011 1165.58 127.257 1165.58 166L1316.5 166H1467.42Z" fill="#C6A272"/>
<path fill-rule="evenodd" clip-rule="evenodd" d="M1419.04 67.017C1444.73 91.8824 1459.74 125.09 1461.29 160L1171.71 160C1173.26 125.09 1188.27 91.8824 1213.96 67.017C1241.12 40.7243 1278 25.92 1316.5 25.92C1355 25.92 1391.88 40.7243 1419.04 67.017ZM1165.71 160C1165.62 161.995 1165.58 163.995 1165.58 166L1467.42 166C1467.42 163.995 1467.38 161.995 1467.29 160C1465.74 123.438 1450.06 88.6837 1423.22 62.7058C1394.91 35.3105 1356.53 19.92 1316.5 19.92C1276.47 19.92 1238.09 35.3105 1209.78 62.7058C1182.94 88.6837 1167.26 123.438 1165.71 160Z" fill="#F3EDE1"/>
<path d="M1446.84 166C1446.84 132.54 1433.11 100.451 1408.66 76.7914C1384.22 53.1318 1351.07 39.84 1316.5 39.84C1281.93 39.84 1248.78 53.1318 1224.34 76.7914C1199.89 100.451 1186.16 132.54 1186.16 166L1316.5 166H1446.84Z" fill="#C6A272"/>
<path fill-rule="evenodd" clip-rule="evenodd" d="M1404.49 81.1026C1426.32 102.231 1439.15 130.376 1440.68 160L1192.31 160C1193.85 130.376 1206.68 102.231 1228.51 81.1026C1251.81 58.5456 1283.46 45.84 1316.5 45.84C1349.54 45.84 1381.19 58.5456 1404.49 81.1026ZM1186.31 160C1186.21 161.994 1186.16 163.995 1186.16 166L1446.84 166C1446.84 163.995 1446.79 161.994 1446.69 160C1445.16 128.724 1431.64 99.0329 1408.66 76.7914C1384.22 53.1318 1351.07 39.84 1316.5 39.84C1281.93 39.84 1248.78 53.1318 1224.34 76.7914C1201.36 99.0329 1187.84 128.724 1186.31 160Z" fill="#F3EDE1"/>
<path d="M1426.26 166C1426.26 137.823 1414.7 110.801 1394.11 90.877C1373.53 70.9531 1345.61 59.76 1316.5 59.76C1287.39 59.76 1259.47 70.9531 1238.89 90.877C1218.3 110.801 1206.74 137.823 1206.74 166L1316.5 166H1426.26Z" fill="#C6A272"/>
<path fill-rule="evenodd" clip-rule="evenodd" d="M1420.07 160C1418.56 135.662 1407.91 112.579 1389.94 95.1882C1370.49 76.3669 1344.08 65.76 1316.5 65.76C1288.92 65.76 1262.51 76.3669 1243.06 95.1882C1225.09 112.579 1214.44 135.662 1212.93 160L1420.07 160ZM1426.08 160C1424.57 134.011 1413.23 109.382 1394.11 90.877C1373.53 70.9531 1345.61 59.76 1316.5 59.76C1287.39 59.76 1259.47 70.9531 1238.89 90.877C1219.77 109.382 1208.43 134.011 1206.92 160C1206.8 161.993 1206.74 163.993 1206.74 166L1426.26 166C1426.26 163.993 1426.2 161.993 1426.08 160Z" fill="#F3EDE1"/>
<path d="M1405.68 166C1405.68 143.106 1396.28 121.151 1379.56 104.962C1362.84 88.7743 1340.15 79.6799 1316.5 79.6799C1292.85 79.6799 1270.16 88.7743 1253.44 104.962C1236.72 121.151 1227.32 143.106 1227.32 166L1316.5 166H1405.68Z" fill="#C6A272"/>
<path fill-rule="evenodd" clip-rule="evenodd" d="M1399.45 160C1397.97 140.949 1389.49 122.927 1375.39 109.274C1359.8 94.1881 1338.62 85.6799 1316.5 85.6799C1294.38 85.6799 1273.2 94.1881 1257.61 109.274C1243.51 122.927 1235.03 140.949 1233.55 160L1399.45 160ZM1405.46 160C1403.98 139.299 1394.82 119.731 1379.56 104.962C1362.84 88.7743 1340.15 79.6799 1316.5 79.6799C1292.85 79.6799 1270.16 88.7743 1253.44 104.962C1238.18 119.731 1229.02 139.299 1227.54 160C1227.39 161.991 1227.32 163.992 1227.32 166L1405.68 166C1405.68 163.992 1405.61 161.991 1405.46 160Z" fill="#F3EDE1"/>
<path d="M1385.1 166C1385.1 148.39 1377.87 131.501 1365.01 119.048C1352.14 106.596 1334.69 99.6001 1316.5 99.6001C1298.31 99.6001 1280.86 106.596 1267.99 119.048C1255.13 131.501 1247.9 148.39 1247.9 166L1316.5 166H1385.1Z" fill="#C6A272"/>
<path fill-rule="evenodd" clip-rule="evenodd" d="M1378.79 160C1377.37 146.239 1371.08 133.272 1360.83 123.359C1349.11 112.01 1333.16 105.6 1316.5 105.6C1299.84 105.6 1283.89 112.01 1272.17 123.359C1261.92 133.272 1255.63 146.239 1254.21 160L1378.79 160ZM1384.82 160C1383.38 144.59 1376.4 130.078 1365.01 119.048C1352.14 106.596 1334.69 99.6001 1316.5 99.6001C1298.31 99.6001 1280.86 106.596 1267.99 119.048C1256.6 130.078 1249.62 144.59 1248.18 160C1247.99 161.987 1247.9 163.989 1247.9 166L1385.1 166C1385.1 163.989 1385.01 161.987 1384.82 160Z" fill="#F3EDE1"/>
<path d="M1364.52 166C1364.52 153.673 1359.46 141.85 1350.46 133.134C1341.45 124.417 1329.24 119.52 1316.5 119.52C1303.76 119.52 1291.55 124.417 1282.54 133.134C1273.54 141.85 1268.48 153.673 1268.48 166L1316.5 166H1364.52Z" fill="#C6A272"/>
<path fill-rule="evenodd" clip-rule="evenodd" d="M1358.06 160C1356.74 151.535 1352.65 143.613 1346.28 137.445C1338.42 129.831 1327.71 125.52 1316.5 125.52C1305.29 125.52 1294.58 129.831 1286.72 137.445C1280.35 143.613 1276.26 151.535 1274.94 160L1358.06 160ZM1364.12 160C1362.76 149.887 1357.99 140.424 1350.46 133.134C1341.45 124.417 1329.24 119.52 1316.5 119.52C1303.76 119.52 1291.55 124.417 1282.54 133.134C1275.01 140.424 1270.24 149.887 1268.88 160C1268.62 161.979 1268.48 163.983 1268.48 166L1364.52 166C1364.52 163.983 1364.38 161.979 1364.12 160Z" fill="#F3EDE1"/>
<path d="M2071 166C2071 121.974 2052.93 79.7513 2020.77 48.6203C1988.61 17.4892 1944.98 3.32387e-06 1899.5 0C1854.02 -3.32387e-06 1810.39 17.4892 1778.23 48.6203C1746.07 79.7513 1728 121.974 1728 166L1899.5 166H2071Z" fill="#C6A272"/>
<path fill-rule="evenodd" clip-rule="evenodd" d="M2016.6 52.9315C2046.15 81.5335 2063.32 119.806 2064.88 160L1734.12 160C1735.68 119.806 1752.85 81.5334 1782.4 52.9315C1813.43 22.903 1855.54 6 1899.5 6C1943.46 6 1985.57 22.903 2016.6 52.9315ZM1728.11 160C1728.04 161.996 1728 163.996 1728 166L2071 166C2071 163.996 2070.96 161.996 2070.89 160C2069.33 118.153 2051.47 78.3342 2020.77 48.6203C1988.61 17.4892 1944.98 0 1899.5 0C1854.02 0 1810.39 17.4892 1778.23 48.6203C1747.53 78.3342 1729.67 118.153 1728.11 160Z" fill="#F3EDE1"/>
<path d="M2050.42 166C2050.42 127.257 2034.52 90.1012 2006.22 62.7058C1977.91 35.3105 1939.53 19.92 1899.5 19.92C1859.47 19.92 1821.09 35.3105 1792.78 62.7058C1764.48 90.1011 1748.58 127.257 1748.58 166L1899.5 166H2050.42Z" fill="#C6A272"/>
<path fill-rule="evenodd" clip-rule="evenodd" d="M2002.04 67.017C2027.73 91.8824 2042.74 125.09 2044.29 160L1754.71 160C1756.26 125.09 1771.27 91.8824 1796.96 67.017C1824.12 40.7243 1861 25.92 1899.5 25.92C1938 25.92 1974.88 40.7243 2002.04 67.017ZM1748.71 160C1748.62 161.995 1748.58 163.995 1748.58 166L2050.42 166C2050.42 163.995 2050.38 161.995 2050.29 160C2048.74 123.438 2033.06 88.6837 2006.22 62.7058C1977.91 35.3105 1939.53 19.92 1899.5 19.92C1859.47 19.92 1821.09 35.3105 1792.78 62.7058C1765.94 88.6837 1750.26 123.438 1748.71 160Z" fill="#F3EDE1"/>
<path d="M2029.84 166C2029.84 132.54 2016.11 100.451 1991.66 76.7914C1967.22 53.1318 1934.07 39.84 1899.5 39.84C1864.93 39.84 1831.78 53.1318 1807.34 76.7914C1782.89 100.451 1769.16 132.54 1769.16 166L1899.5 166H2029.84Z" fill="#C6A272"/>
<path fill-rule="evenodd" clip-rule="evenodd" d="M1987.49 81.1026C2009.32 102.231 2022.15 130.376 2023.68 160L1775.31 160C1776.85 130.376 1789.68 102.231 1811.51 81.1026C1834.81 58.5456 1866.46 45.84 1899.5 45.84C1932.54 45.84 1964.19 58.5456 1987.49 81.1026ZM1769.31 160C1769.21 161.994 1769.16 163.995 1769.16 166L2029.84 166C2029.84 163.995 2029.79 161.994 2029.69 160C2028.16 128.724 2014.64 99.0329 1991.66 76.7914C1967.22 53.1318 1934.07 39.84 1899.5 39.84C1864.93 39.84 1831.78 53.1318 1807.34 76.7914C1784.36 99.0329 1770.84 128.724 1769.31 160Z" fill="#F3EDE1"/>
<path d="M2009.26 166C2009.26 137.823 1997.7 110.801 1977.11 90.877C1956.53 70.9531 1928.61 59.76 1899.5 59.76C1870.39 59.76 1842.47 70.9531 1821.89 90.877C1801.3 110.801 1789.74 137.823 1789.74 166L1899.5 166H2009.26Z" fill="#C6A272"/>
<path fill-rule="evenodd" clip-rule="evenodd" d="M2003.07 160C2001.56 135.662 1990.91 112.579 1972.94 95.1882C1953.49 76.3669 1927.08 65.76 1899.5 65.76C1871.92 65.76 1845.51 76.3669 1826.06 95.1882C1808.09 112.579 1797.44 135.662 1795.93 160L2003.07 160ZM2009.08 160C2007.57 134.011 1996.23 109.382 1977.11 90.877C1956.53 70.9531 1928.61 59.76 1899.5 59.76C1870.39 59.76 1842.47 70.9531 1821.89 90.877C1802.77 109.382 1791.43 134.011 1789.92 160C1789.8 161.993 1789.74 163.993 1789.74 166L2009.26 166C2009.26 163.993 2009.2 161.993 2009.08 160Z" fill="#F3EDE1"/>
<path d="M1988.68 166C1988.68 143.106 1979.28 121.151 1962.56 104.962C1945.84 88.7743 1923.15 79.6799 1899.5 79.6799C1875.85 79.6799 1853.16 88.7743 1836.44 104.962C1819.72 121.151 1810.32 143.106 1810.32 166L1899.5 166H1988.68Z" fill="#C6A272"/>
<path fill-rule="evenodd" clip-rule="evenodd" d="M1982.45 160C1980.97 140.949 1972.49 122.927 1958.39 109.274C1942.8 94.1881 1921.62 85.6799 1899.5 85.6799C1877.38 85.6799 1856.2 94.1881 1840.61 109.274C1826.51 122.927 1818.03 140.949 1816.55 160L1982.45 160ZM1988.46 160C1986.98 139.299 1977.82 119.731 1962.56 104.962C1945.84 88.7743 1923.15 79.6799 1899.5 79.6799C1875.85 79.6799 1853.16 88.7743 1836.44 104.962C1821.18 119.731 1812.02 139.299 1810.54 160C1810.39 161.991 1810.32 163.992 1810.32 166L1988.68 166C1988.68 163.992 1988.61 161.991 1988.46 160Z" fill="#F3EDE1"/>
<path d="M1968.1 166C1968.1 148.39 1960.87 131.501 1948.01 119.048C1935.14 106.596 1917.69 99.6001 1899.5 99.6001C1881.31 99.6001 1863.86 106.596 1850.99 119.048C1838.13 131.501 1830.9 148.39 1830.9 166L1899.5 166H1968.1Z" fill="#C6A272"/>
<path fill-rule="evenodd" clip-rule="evenodd" d="M1961.79 160C1960.37 146.239 1954.08 133.272 1943.83 123.359C1932.11 112.01 1916.16 105.6 1899.5 105.6C1882.84 105.6 1866.89 112.01 1855.17 123.359C1844.92 133.272 1838.63 146.239 1837.21 160L1961.79 160ZM1967.82 160C1966.38 144.59 1959.4 130.078 1948.01 119.048C1935.14 106.596 1917.69 99.6001 1899.5 99.6001C1881.31 99.6001 1863.86 106.596 1850.99 119.048C1839.6 130.078 1832.62 144.59 1831.18 160C1830.99 161.987 1830.9 163.989 1830.9 166L1968.1 166C1968.1 163.989 1968.01 161.987 1967.82 160Z" fill="#F3EDE1"/>
<path d="M1947.52 166C1947.52 153.673 1942.46 141.85 1933.46 133.134C1924.45 124.417 1912.24 119.52 1899.5 119.52C1886.76 119.52 1874.55 124.417 1865.54 133.134C1856.54 141.85 1851.48 153.673 1851.48 166L1899.5 166H1947.52Z" fill="#C6A272"/>
<path fill-rule="evenodd" clip-rule="evenodd" d="M1941.06 160C1939.74 151.535 1935.65 143.613 1929.28 137.445C1921.42 129.831 1910.71 125.52 1899.5 125.52C1888.29 125.52 1877.58 129.831 1869.72 137.445C1863.35 143.613 1859.26 151.535 1857.94 160L1941.06 160ZM1947.12 160C1945.76 149.887 1940.99 140.424 1933.46 133.134C1924.45 124.417 1912.24 119.52 1899.5 119.52C1886.76 119.52 1874.55 124.417 1865.54 133.134C1858.01 140.424 1853.24 149.887 1851.88 160C1851.62 161.979 1851.48 163.983 1851.48 166L1947.52 166C1947.52 163.983 1947.38 161.979 1947.12 160Z" fill="#F3EDE1"/>
<path d="M2613 166C2613 121.974 2594.93 79.7513 2562.77 48.6203C2530.61 17.4892 2486.98 3.32387e-06 2441.5 0C2396.02 -3.32387e-06 2352.39 17.4892 2320.23 48.6203C2288.07 79.7513 2270 121.974 2270 166L2441.5 166H2613Z" fill="#C6A272"/>
<path fill-rule="evenodd" clip-rule="evenodd" d="M2558.6 52.9315C2588.15 81.5335 2605.32 119.806 2606.88 160L2276.12 160C2277.68 119.806 2294.85 81.5334 2324.4 52.9315C2355.43 22.903 2397.54 6 2441.5 6C2485.46 6 2527.57 22.903 2558.6 52.9315ZM2270.11 160C2270.04 161.996 2270 163.996 2270 166L2613 166C2613 163.996 2612.96 161.996 2612.89 160C2611.33 118.153 2593.47 78.3342 2562.77 48.6203C2530.61 17.4892 2486.98 0 2441.5 0C2396.02 0 2352.39 17.4892 2320.23 48.6203C2289.53 78.3342 2271.67 118.153 2270.11 160Z" fill="#F3EDE1"/>
<path d="M2592.42 166C2592.42 127.257 2576.52 90.1012 2548.22 62.7058C2519.91 35.3105 2481.53 19.92 2441.5 19.92C2401.47 19.92 2363.09 35.3105 2334.78 62.7058C2306.48 90.1011 2290.58 127.257 2290.58 166L2441.5 166H2592.42Z" fill="#C6A272"/>
<path fill-rule="evenodd" clip-rule="evenodd" d="M2544.04 67.017C2569.73 91.8824 2584.74 125.09 2586.29 160L2296.71 160C2298.26 125.09 2313.27 91.8824 2338.96 67.017C2366.12 40.7243 2403 25.92 2441.5 25.92C2480 25.92 2516.88 40.7243 2544.04 67.017ZM2290.71 160C2290.62 161.995 2290.58 163.995 2290.58 166L2592.42 166C2592.42 163.995 2592.38 161.995 2592.29 160C2590.74 123.438 2575.06 88.6837 2548.22 62.7058C2519.91 35.3105 2481.53 19.92 2441.5 19.92C2401.47 19.92 2363.09 35.3105 2334.78 62.7058C2307.94 88.6837 2292.26 123.438 2290.71 160Z" fill="#F3EDE1"/>
<path d="M2571.84 166C2571.84 132.54 2558.11 100.451 2533.66 76.7914C2509.22 53.1318 2476.07 39.84 2441.5 39.84C2406.93 39.84 2373.78 53.1318 2349.34 76.7914C2324.89 100.451 2311.16 132.54 2311.16 166L2441.5 166H2571.84Z" fill="#C6A272"/>
<path fill-rule="evenodd" clip-rule="evenodd" d="M2529.49 81.1026C2551.32 102.231 2564.15 130.376 2565.68 160L2317.31 160C2318.85 130.376 2331.68 102.231 2353.51 81.1026C2376.81 58.5456 2408.46 45.84 2441.5 45.84C2474.54 45.84 2506.19 58.5456 2529.49 81.1026ZM2311.31 160C2311.21 161.994 2311.16 163.995 2311.16 166L2571.84 166C2571.84 163.995 2571.79 161.994 2571.69 160C2570.16 128.724 2556.64 99.0329 2533.66 76.7914C2509.22 53.1318 2476.07 39.84 2441.5 39.84C2406.93 39.84 2373.78 53.1318 2349.34 76.7914C2326.36 99.0329 2312.84 128.724 2311.31 160Z" fill="#F3EDE1"/>
<path d="M2551.26 166C2551.26 137.823 2539.7 110.801 2519.11 90.877C2498.53 70.9531 2470.61 59.76 2441.5 59.76C2412.39 59.76 2384.47 70.9531 2363.89 90.877C2343.3 110.801 2331.74 137.823 2331.74 166L2441.5 166H2551.26Z" fill="#C6A272"/>
<path fill-rule="evenodd" clip-rule="evenodd" d="M2545.07 160C2543.56 135.662 2532.91 112.579 2514.94 95.1882C2495.49 76.3669 2469.08 65.76 2441.5 65.76C2413.92 65.76 2387.51 76.3669 2368.06 95.1882C2350.09 112.579 2339.44 135.662 2337.93 160L2545.07 160ZM2551.08 160C2549.57 134.011 2538.23 109.382 2519.11 90.877C2498.53 70.9531 2470.61 59.76 2441.5 59.76C2412.39 59.76 2384.47 70.9531 2363.89 90.877C2344.77 109.382 2333.43 134.011 2331.92 160C2331.8 161.993 2331.74 163.993 2331.74 166L2551.26 166C2551.26 163.993 2551.2 161.993 2551.08 160Z" fill="#F3EDE1"/>
<path d="M2530.68 166C2530.68 143.106 2521.28 121.151 2504.56 104.962C2487.84 88.7743 2465.15 79.6799 2441.5 79.6799C2417.85 79.6799 2395.16 88.7743 2378.44 104.962C2361.72 121.151 2352.32 143.106 2352.32 166L2441.5 166H2530.68Z" fill="#C6A272"/>
<path fill-rule="evenodd" clip-rule="evenodd" d="M2524.45 160C2522.97 140.949 2514.49 122.927 2500.39 109.274C2484.8 94.1881 2463.62 85.6799 2441.5 85.6799C2419.38 85.6799 2398.2 94.1881 2382.61 109.274C2368.51 122.927 2360.03 140.949 2358.55 160L2524.45 160ZM2530.46 160C2528.98 139.299 2519.82 119.731 2504.56 104.962C2487.84 88.7743 2465.15 79.6799 2441.5 79.6799C2417.85 79.6799 2395.16 88.7743 2378.44 104.962C2363.18 119.731 2354.02 139.299 2352.54 160C2352.39 161.991 2352.32 163.992 2352.32 166L2530.68 166C2530.68 163.992 2530.61 161.991 2530.46 160Z" fill="#F3EDE1"/>
<path d="M2510.1 166C2510.1 148.39 2502.87 131.501 2490.01 119.048C2477.14 106.596 2459.69 99.6001 2441.5 99.6001C2423.31 99.6001 2405.86 106.596 2392.99 119.048C2380.13 131.501 2372.9 148.39 2372.9 166L2441.5 166H2510.1Z" fill="#C6A272"/>
<path fill-rule="evenodd" clip-rule="evenodd" d="M2503.79 160C2502.37 146.239 2496.08 133.272 2485.83 123.359C2474.11 112.01 2458.16 105.6 2441.5 105.6C2424.84 105.6 2408.89 112.01 2397.17 123.359C2386.92 133.272 2380.63 146.239 2379.21 160L2503.79 160ZM2509.82 160C2508.38 144.59 2501.4 130.078 2490.01 119.048C2477.14 106.596 2459.69 99.6001 2441.5 99.6001C2423.31 99.6001 2405.86 106.596 2392.99 119.048C2381.6 130.078 2374.62 144.59 2373.18 160C2372.99 161.987 2372.9 163.989 2372.9 166L2510.1 166C2510.1 163.989 2510.01 161.987 2509.82 160Z" fill="#F3EDE1"/>
<path d="M2489.52 166C2489.52 153.673 2484.46 141.85 2475.46 133.134C2466.45 124.417 2454.24 119.52 2441.5 119.52C2428.76 119.52 2416.55 124.417 2407.54 133.134C2398.54 141.85 2393.48 153.673 2393.48 166L2441.5 166H2489.52Z" fill="#C6A272"/>
<path fill-rule="evenodd" clip-rule="evenodd" d="M2483.06 160C2481.74 151.535 2477.65 143.613 2471.28 137.445C2463.42 129.831 2452.71 125.52 2441.5 125.52C2430.29 125.52 2419.58 129.831 2411.72 137.445C2405.35 143.613 2401.26 151.535 2399.94 160L2483.06 160ZM2489.12 160C2487.76 149.887 2482.99 140.424 2475.46 133.134C2466.45 124.417 2454.24 119.52 2441.5 119.52C2428.76 119.52 2416.55 124.417 2407.54 133.134C2400.01 140.424 2395.24 149.887 2393.88 160C2393.62 161.979 2393.48 163.983 2393.48 166L2489.52 166C2489.52 163.983 2489.38 161.979 2489.12 160Z" fill="#F3EDE1"/>
<path d="M3237 166C3237 121.974 3218.93 79.7513 3186.77 48.6203C3154.61 17.4892 3110.98 3.32387e-06 3065.5 0C3020.02 -3.32387e-06 2976.39 17.4892 2944.23 48.6203C2912.07 79.7513 2894 121.974 2894 166L3065.5 166H3237Z" fill="#C6A272"/>
<path fill-rule="evenodd" clip-rule="evenodd" d="M3182.6 52.9315C3212.15 81.5335 3229.32 119.806 3230.88 160L2900.12 160C2901.68 119.806 2918.85 81.5334 2948.4 52.9315C2979.43 22.903 3021.54 6 3065.5 6C3109.46 6 3151.57 22.903 3182.6 52.9315ZM2894.11 160C2894.04 161.996 2894 163.996 2894 166L3237 166C3237 163.996 3236.96 161.996 3236.89 160C3235.33 118.153 3217.47 78.3342 3186.77 48.6203C3154.61 17.4892 3110.98 0 3065.5 0C3020.02 0 2976.39 17.4892 2944.23 48.6203C2913.53 78.3342 2895.67 118.153 2894.11 160Z" fill="#F3EDE1"/>
<path d="M3216.42 166C3216.42 127.257 3200.52 90.1012 3172.22 62.7058C3143.91 35.3105 3105.53 19.92 3065.5 19.92C3025.47 19.92 2987.09 35.3105 2958.78 62.7058C2930.48 90.1011 2914.58 127.257 2914.58 166L3065.5 166H3216.42Z" fill="#C6A272"/>
<path fill-rule="evenodd" clip-rule="evenodd" d="M3168.04 67.017C3193.73 91.8824 3208.74 125.09 3210.29 160L2920.71 160C2922.26 125.09 2937.27 91.8824 2962.96 67.017C2990.12 40.7243 3027 25.92 3065.5 25.92C3104 25.92 3140.88 40.7243 3168.04 67.017ZM2914.71 160C2914.62 161.995 2914.58 163.995 2914.58 166L3216.42 166C3216.42 163.995 3216.38 161.995 3216.29 160C3214.74 123.438 3199.06 88.6837 3172.22 62.7058C3143.91 35.3105 3105.53 19.92 3065.5 19.92C3025.47 19.92 2987.09 35.3105 2958.78 62.7058C2931.94 88.6837 2916.26 123.438 2914.71 160Z" fill="#F3EDE1"/>
<path d="M3195.84 166C3195.84 132.54 3182.11 100.451 3157.66 76.7914C3133.22 53.1318 3100.07 39.84 3065.5 39.84C3030.93 39.84 2997.78 53.1318 2973.34 76.7914C2948.89 100.451 2935.16 132.54 2935.16 166L3065.5 166H3195.84Z" fill="#C6A272"/>
<path fill-rule="evenodd" clip-rule="evenodd" d="M3153.49 81.1026C3175.32 102.231 3188.15 130.376 3189.69 160L2941.32 160C2942.85 130.376 2955.68 102.231 2977.51 81.1026C3000.81 58.5456 3032.46 45.84 3065.5 45.84C3098.54 45.84 3130.19 58.5456 3153.49 81.1026ZM2935.31 160C2935.21 161.994 2935.16 163.995 2935.16 166L3195.84 166C3195.84 163.995 3195.79 161.994 3195.69 160C3194.16 128.724 3180.64 99.0329 3157.66 76.7914C3133.22 53.1318 3100.07 39.84 3065.5 39.84C3030.93 39.84 2997.78 53.1318 2973.34 76.7914C2950.36 99.0329 2936.84 128.724 2935.31 160Z" fill="#F3EDE1"/>
<path d="M3175.26 166C3175.26 137.823 3163.7 110.801 3143.11 90.877C3122.53 70.9531 3094.61 59.76 3065.5 59.76C3036.39 59.76 3008.47 70.9531 2987.89 90.877C2967.3 110.801 2955.74 137.823 2955.74 166L3065.5 166H3175.26Z" fill="#C6A272"/>
<path fill-rule="evenodd" clip-rule="evenodd" d="M3169.07 160C3167.56 135.662 3156.91 112.579 3138.94 95.1882C3119.49 76.3669 3093.08 65.76 3065.5 65.76C3037.92 65.76 3011.51 76.3669 2992.06 95.1882C2974.09 112.579 2963.44 135.662 2961.93 160L3169.07 160ZM3175.08 160C3173.57 134.011 3162.23 109.382 3143.11 90.877C3122.53 70.9531 3094.61 59.76 3065.5 59.76C3036.39 59.76 3008.47 70.9531 2987.89 90.877C2968.77 109.382 2957.43 134.011 2955.92 160C2955.8 161.993 2955.74 163.993 2955.74 166L3175.26 166C3175.26 163.993 3175.2 161.993 3175.08 160Z" fill="#F3EDE1"/>
<path d="M3154.68 166C3154.68 143.106 3145.28 121.151 3128.56 104.962C3111.84 88.7743 3089.15 79.6799 3065.5 79.6799C3041.85 79.6799 3019.16 88.7743 3002.44 104.962C2985.72 121.151 2976.32 143.106 2976.32 166L3065.5 166H3154.68Z" fill="#C6A272"/>
<path fill-rule="evenodd" clip-rule="evenodd" d="M3148.45 160C3146.97 140.949 3138.49 122.927 3124.39 109.274C3108.8 94.1881 3087.62 85.6799 3065.5 85.6799C3043.38 85.6799 3022.2 94.1881 3006.61 109.274C2992.51 122.927 2984.03 140.949 2982.55 160L3148.45 160ZM3154.46 160C3152.98 139.299 3143.82 119.731 3128.56 104.962C3111.84 88.7743 3089.15 79.6799 3065.5 79.6799C3041.85 79.6799 3019.16 88.7743 3002.44 104.962C2987.18 119.731 2978.02 139.299 2976.54 160C2976.39 161.991 2976.32 163.992 2976.32 166L3154.68 166C3154.68 163.992 3154.61 161.991 3154.46 160Z" fill="#F3EDE1"/>
<path d="M3134.1 166C3134.1 148.39 3126.87 131.501 3114.01 119.048C3101.14 106.596 3083.69 99.6001 3065.5 99.6001C3047.31 99.6001 3029.86 106.596 3016.99 119.048C3004.13 131.501 2996.9 148.39 2996.9 166L3065.5 166H3134.1Z" fill="#C6A272"/>
<path fill-rule="evenodd" clip-rule="evenodd" d="M3127.79 160C3126.37 146.239 3120.08 133.272 3109.83 123.359C3098.11 112.01 3082.16 105.6 3065.5 105.6C3048.84 105.6 3032.89 112.01 3021.17 123.359C3010.92 133.272 3004.63 146.239 3003.21 160L3127.79 160ZM3133.82 160C3132.38 144.59 3125.4 130.078 3114.01 119.048C3101.14 106.596 3083.69 99.6001 3065.5 99.6001C3047.31 99.6001 3029.86 106.596 3016.99 119.048C3005.6 130.078 2998.62 144.59 2997.18 160C2996.99 161.987 2996.9 163.989 2996.9 166L3134.1 166C3134.1 163.989 3134.01 161.987 3133.82 160Z" fill="#F3EDE1"/>
<path d="M3113.52 166C3113.52 153.673 3108.46 141.85 3099.46 133.134C3090.45 124.417 3078.24 119.52 3065.5 119.52C3052.76 119.52 3040.55 124.417 3031.54 133.134C3022.54 141.85 3017.48 153.673 3017.48 166L3065.5 166H3113.52Z" fill="#C6A272"/>
<path fill-rule="evenodd" clip-rule="evenodd" d="M3107.06 160C3105.74 151.535 3101.65 143.613 3095.28 137.445C3087.42 129.831 3076.71 125.52 3065.5 125.52C3054.29 125.52 3043.58 129.831 3035.72 137.445C3029.35 143.613 3025.26 151.535 3023.94 160L3107.06 160ZM3113.12 160C3111.76 149.887 3106.99 140.424 3099.46 133.134C3090.45 124.417 3078.24 119.52 3065.5 119.52C3052.76 119.52 3040.55 124.417 3031.54 133.134C3024.01 140.424 3019.24 149.887 3017.88 160C3017.62 161.979 3017.48 163.983 3017.48 166L3113.52 166C3113.52 163.983 3113.38 161.979 3113.12 160Z" fill="#F3EDE1"/>
<path d="M916 166C916 121.974 897.931 79.7513 865.769 48.6203C833.606 17.4892 789.985 3.32387e-06 744.5 0C699.015 -3.32387e-06 655.394 17.4892 623.231 48.6203C591.069 79.7513 573 121.974 573 166L744.5 166H916Z" fill="#C6A272"/>
<path fill-rule="evenodd" clip-rule="evenodd" d="M861.596 52.9315C891.146 81.5335 908.325 119.806 909.884 160L579.116 160C580.675 119.806 597.855 81.5334 627.404 52.9315C658.428 22.903 700.545 6 744.5 6C788.455 6 830.573 22.903 861.596 52.9315ZM573.112 160C573.037 161.996 573 163.996 573 166L916 166C916 163.996 915.963 161.996 915.888 160C914.326 118.153 896.467 78.3342 865.769 48.6203C833.606 17.4892 789.985 0 744.5 0C699.015 0 655.394 17.4892 623.231 48.6203C592.533 78.3342 574.674 118.153 573.112 160Z" fill="#F3EDE1"/>
<path d="M895.42 166C895.42 127.257 879.52 90.1012 851.217 62.7058C822.914 35.3105 784.526 19.92 744.5 19.92C704.473 19.92 666.086 35.3105 637.783 62.7058C609.48 90.1011 593.58 127.257 593.58 166L744.5 166H895.42Z" fill="#C6A272"/>
<path fill-rule="evenodd" clip-rule="evenodd" d="M847.044 67.017C872.733 91.8824 887.74 125.09 889.287 160L599.713 160C601.26 125.09 616.267 91.8824 641.956 67.017C669.12 40.7243 706.003 25.92 744.5 25.92C782.997 25.92 819.88 40.7243 847.044 67.017ZM593.707 160C593.623 161.995 593.58 163.995 593.58 166L895.42 166C895.42 163.995 895.377 161.995 895.293 160C893.741 123.438 878.055 88.6837 851.217 62.7058C822.914 35.3105 784.526 19.92 744.5 19.92C704.473 19.92 666.086 35.3105 637.783 62.7058C610.945 88.6837 595.259 123.438 593.707 160Z" fill="#F3EDE1"/>
<path d="M874.84 166C874.84 132.54 861.108 100.451 836.664 76.7914C812.221 53.1318 779.068 39.84 744.5 39.84C709.932 39.84 676.779 53.1318 652.336 76.7914C627.892 100.451 614.16 132.54 614.16 166L744.5 166H874.84Z" fill="#C6A272"/>
<path fill-rule="evenodd" clip-rule="evenodd" d="M832.491 81.1026C854.32 102.231 867.153 130.376 868.685 160L620.315 160C621.847 130.376 634.68 102.231 656.509 81.1026C679.813 58.5456 711.461 45.84 744.5 45.84C777.539 45.84 809.187 58.5456 832.491 81.1026ZM614.307 160C614.209 161.994 614.16 163.995 614.16 166L874.84 166C874.84 163.995 874.791 161.994 874.693 160C873.155 128.724 859.643 99.0329 836.664 76.7914C812.221 53.1318 779.068 39.84 744.5 39.84C709.932 39.84 676.779 53.1318 652.336 76.7914C629.357 99.0329 615.845 128.724 614.307 160Z" fill="#F3EDE1"/>
<path d="M854.26 166C854.26 137.823 842.696 110.801 822.112 90.877C801.528 70.9531 773.61 59.76 744.5 59.76C715.39 59.76 687.472 70.9531 666.888 90.877C646.304 110.801 634.74 137.823 634.74 166L744.5 166H854.26Z" fill="#C6A272"/>
<path fill-rule="evenodd" clip-rule="evenodd" d="M848.074 160C846.564 135.662 835.906 112.579 817.939 95.1882C798.494 76.3669 772.081 65.76 744.5 65.76C716.919 65.76 690.506 76.3669 671.061 95.1882C653.094 112.579 642.436 135.662 640.926 160L848.074 160ZM854.085 160C852.567 134.011 841.23 109.382 822.112 90.877C801.528 70.9531 773.61 59.76 744.5 59.76C715.39 59.76 687.472 70.9531 666.888 90.877C647.77 109.382 636.433 134.011 634.915 160C634.799 161.993 634.74 163.993 634.74 166L854.26 166C854.26 163.993 854.201 161.993 854.085 160Z" fill="#F3EDE1"/>
<path d="M833.68 166C833.68 143.106 824.284 121.151 807.56 104.962C790.835 88.7743 768.152 79.6799 744.5 79.6799C720.848 79.6799 698.165 88.7743 681.44 104.962C664.716 121.151 655.32 143.106 655.32 166L744.5 166H833.68Z" fill="#C6A272"/>
<path fill-rule="evenodd" clip-rule="evenodd" d="M827.448 160C825.97 140.949 817.492 122.927 803.387 109.274C787.801 94.1881 766.623 85.6799 744.5 85.6799C722.377 85.6799 701.198 94.1881 685.613 109.274C671.508 122.927 663.03 140.949 661.552 160L827.448 160ZM833.464 160C831.975 139.299 822.817 119.731 807.56 104.962C790.835 88.7743 768.152 79.6799 744.5 79.6799C720.848 79.6799 698.165 88.7743 681.44 104.962C666.183 119.731 657.025 139.299 655.535 160C655.392 161.991 655.32 163.992 655.32 166L833.68 166C833.68 163.992 833.608 161.991 833.464 160Z" fill="#F3EDE1"/>
<path d="M813.1 166C813.1 148.39 805.873 131.501 793.008 119.048C780.143 106.596 762.694 99.6001 744.5 99.6001C726.306 99.6001 708.858 106.596 695.993 119.048C683.128 131.501 675.9 148.39 675.9 166L744.5 166H813.1Z" fill="#C6A272"/>
<path fill-rule="evenodd" clip-rule="evenodd" d="M806.79 160C805.367 146.239 799.076 133.272 788.835 123.359C777.109 112.01 761.165 105.6 744.5 105.6C727.836 105.6 711.891 112.01 700.165 123.359C689.924 133.272 683.633 146.239 682.21 160L806.79 160ZM812.82 160C811.376 144.59 804.403 130.078 793.008 119.048C780.143 106.596 762.694 99.6001 744.5 99.6001C726.306 99.6001 708.858 106.596 695.993 119.048C684.597 130.078 677.624 144.59 676.18 160C675.994 161.987 675.9 163.989 675.9 166L813.1 166C813.1 163.989 813.006 161.987 812.82 160Z" fill="#F3EDE1"/>
<path d="M792.52 166C792.52 153.673 787.461 141.85 778.455 133.134C769.45 124.417 757.236 119.52 744.5 119.52C731.764 119.52 719.55 124.417 710.545 133.134C701.539 141.85 696.48 153.673 696.48 166L744.5 166H792.52Z" fill="#C6A272"/>
<path fill-rule="evenodd" clip-rule="evenodd" d="M786.056 160C784.739 151.535 780.655 143.613 774.282 137.445C766.416 129.831 755.706 125.52 744.5 125.52C733.294 125.52 722.584 129.831 714.718 137.445C708.345 143.613 704.261 151.535 702.944 160L786.056 160ZM792.118 160C790.758 149.887 785.987 140.424 778.455 133.134C769.45 124.417 757.236 119.52 744.5 119.52C731.764 119.52 719.55 124.417 710.545 133.134C703.013 140.424 698.242 149.887 696.882 160C696.615 161.979 696.48 163.983 696.48 166L792.52 166C792.52 163.983 792.384 161.979 792.118 160Z" fill="#F3EDE1"/>
<path d="M624 166C624 121.974 605.931 79.7513 573.769 48.6203C541.606 17.4892 497.985 3.32387e-06 452.5 0C407.015 -3.32387e-06 363.394 17.4892 331.231 48.6203C299.069 79.7513 281 121.974 281 166L452.5 166H624Z" fill="#C6A272"/>
<path fill-rule="evenodd" clip-rule="evenodd" d="M569.596 52.9315C599.146 81.5335 616.325 119.806 617.884 160L287.116 160C288.675 119.806 305.855 81.5334 335.404 52.9315C366.428 22.903 408.545 6 452.5 6C496.455 6 538.573 22.903 569.596 52.9315ZM281.112 160C281.037 161.996 281 163.996 281 166L624 166C624 163.996 623.963 161.996 623.888 160C622.326 118.153 604.467 78.3342 573.769 48.6203C541.606 17.4892 497.985 0 452.5 0C407.015 0 363.394 17.4892 331.231 48.6203C300.533 78.3342 282.674 118.153 281.112 160Z" fill="#F3EDE1"/>
<path d="M603.42 166C603.42 127.257 587.52 90.1012 559.217 62.7058C530.914 35.3105 492.526 19.92 452.5 19.92C412.473 19.92 374.086 35.3105 345.783 62.7058C317.48 90.1011 301.58 127.257 301.58 166L452.5 166H603.42Z" fill="#C6A272"/>
<path fill-rule="evenodd" clip-rule="evenodd" d="M555.044 67.017C580.733 91.8824 595.74 125.09 597.287 160L307.713 160C309.26 125.09 324.267 91.8824 349.956 67.017C377.12 40.7243 414.003 25.92 452.5 25.92C490.997 25.92 527.88 40.7243 555.044 67.017ZM301.707 160C301.623 161.995 301.58 163.995 301.58 166L603.42 166C603.42 163.995 603.377 161.995 603.293 160C601.741 123.438 586.055 88.6837 559.217 62.7058C530.914 35.3105 492.526 19.92 452.5 19.92C412.473 19.92 374.086 35.3105 345.783 62.7058C318.945 88.6837 303.259 123.438 301.707 160Z" fill="#F3EDE1"/>
<path d="M582.84 166C582.84 132.54 569.108 100.451 544.664 76.7914C520.221 53.1318 487.068 39.84 452.5 39.84C417.932 39.84 384.779 53.1318 360.336 76.7914C335.892 100.451 322.16 132.54 322.16 166L452.5 166H582.84Z" fill="#C6A272"/>
<path fill-rule="evenodd" clip-rule="evenodd" d="M540.491 81.1026C562.32 102.231 575.153 130.376 576.685 160L328.315 160C329.847 130.376 342.68 102.231 364.509 81.1026C387.813 58.5456 419.461 45.84 452.5 45.84C485.539 45.84 517.187 58.5456 540.491 81.1026ZM322.307 160C322.209 161.994 322.16 163.995 322.16 166L582.84 166C582.84 163.995 582.791 161.994 582.693 160C581.155 128.724 567.643 99.0329 544.664 76.7914C520.221 53.1318 487.068 39.84 452.5 39.84C417.932 39.84 384.779 53.1318 360.336 76.7914C337.357 99.0329 323.845 128.724 322.307 160Z" fill="#F3EDE1"/>
<path d="M562.26 166C562.26 137.823 550.696 110.801 530.112 90.877C509.528 70.9531 481.61 59.76 452.5 59.76C423.39 59.76 395.472 70.9531 374.888 90.877C354.304 110.801 342.74 137.823 342.74 166L452.5 166H562.26Z" fill="#C6A272"/>
<path fill-rule="evenodd" clip-rule="evenodd" d="M556.074 160C554.564 135.662 543.906 112.579 525.939 95.1882C506.494 76.3669 480.081 65.76 452.5 65.76C424.919 65.76 398.506 76.3669 379.061 95.1882C361.094 112.579 350.436 135.662 348.926 160L556.074 160ZM562.085 160C560.567 134.011 549.23 109.382 530.112 90.877C509.528 70.9531 481.61 59.76 452.5 59.76C423.39 59.76 395.472 70.9531 374.888 90.877C355.77 109.382 344.433 134.011 342.915 160C342.799 161.993 342.74 163.993 342.74 166L562.26 166C562.26 163.993 562.201 161.993 562.085 160Z" fill="#F3EDE1"/>
<path d="M541.68 166C541.68 143.106 532.284 121.151 515.56 104.962C498.835 88.7743 476.152 79.6799 452.5 79.6799C428.848 79.6799 406.165 88.7743 389.44 104.962C372.716 121.151 363.32 143.106 363.32 166L452.5 166H541.68Z" fill="#C6A272"/>
<path fill-rule="evenodd" clip-rule="evenodd" d="M535.448 160C533.97 140.949 525.492 122.927 511.387 109.274C495.801 94.1881 474.623 85.6799 452.5 85.6799C430.377 85.6799 409.198 94.1881 393.613 109.274C379.508 122.927 371.03 140.949 369.552 160L535.448 160ZM541.464 160C539.975 139.299 530.817 119.731 515.56 104.962C498.835 88.7743 476.152 79.6799 452.5 79.6799C428.848 79.6799 406.165 88.7743 389.44 104.962C374.183 119.731 365.025 139.299 363.535 160C363.392 161.991 363.32 163.992 363.32 166L541.68 166C541.68 163.992 541.608 161.991 541.464 160Z" fill="#F3EDE1"/>
<path d="M521.1 166C521.1 148.39 513.873 131.501 501.008 119.048C488.143 106.596 470.694 99.6001 452.5 99.6001C434.306 99.6001 416.858 106.596 403.993 119.048C391.128 131.501 383.9 148.39 383.9 166L452.5 166H521.1Z" fill="#C6A272"/>
<path fill-rule="evenodd" clip-rule="evenodd" d="M514.79 160C513.367 146.239 507.076 133.272 496.835 123.359C485.109 112.01 469.165 105.6 452.5 105.6C435.836 105.6 419.891 112.01 408.165 123.359C397.924 133.272 391.633 146.239 390.21 160L514.79 160ZM520.82 160C519.376 144.59 512.403 130.078 501.008 119.048C488.143 106.596 470.694 99.6001 452.5 99.6001C434.306 99.6001 416.858 106.596 403.993 119.048C392.597 130.078 385.624 144.59 384.18 160C383.994 161.987 383.9 163.989 383.9 166L521.1 166C521.1 163.989 521.006 161.987 520.82 160Z" fill="#F3EDE1"/>
<path d="M500.52 166C500.52 153.673 495.461 141.85 486.455 133.134C477.45 124.417 465.236 119.52 452.5 119.52C439.764 119.52 427.55 124.417 418.545 133.134C409.539 141.85 404.48 153.673 404.48 166L452.5 166H500.52Z" fill="#C6A272"/>
<path fill-rule="evenodd" clip-rule="evenodd" d="M494.056 160C492.739 151.535 488.655 143.613 482.282 137.445C474.416 129.831 463.706 125.52 452.5 125.52C441.294 125.52 430.584 129.831 422.718 137.445C416.345 143.613 412.261 151.535 410.944 160L494.056 160ZM500.118 160C498.758 149.887 493.987 140.424 486.455 133.134C477.45 124.417 465.236 119.52 452.5 119.52C439.764 119.52 427.55 124.417 418.545 133.134C411.013 140.424 406.242 149.887 404.882 160C404.615 161.979 404.48 163.983 404.48 166L500.52 166C500.52 163.983 500.384 161.979 500.118 160Z" fill="#F3EDE1"/>
<path d="M1207 166C1207 121.974 1188.93 79.7513 1156.77 48.6203C1124.61 17.4892 1080.98 3.32387e-06 1035.5 0C990.015 -3.32387e-06 946.394 17.4892 914.231 48.6203C882.069 79.7513 864 121.974 864 166L1035.5 166H1207Z" fill="#C6A272"/>
<path fill-rule="evenodd" clip-rule="evenodd" d="M1152.6 52.9315C1182.15 81.5335 1199.32 119.806 1200.88 160L870.116 160C871.675 119.806 888.855 81.5334 918.404 52.9315C949.428 22.903 991.545 6 1035.5 6C1079.46 6 1121.57 22.903 1152.6 52.9315ZM864.112 160C864.037 161.996 864 163.996 864 166L1207 166C1207 163.996 1206.96 161.996 1206.89 160C1205.33 118.153 1187.47 78.3342 1156.77 48.6203C1124.61 17.4892 1080.98 0 1035.5 0C990.015 0 946.394 17.4892 914.231 48.6203C883.533 78.3342 865.674 118.153 864.112 160Z" fill="#F3EDE1"/>
<path d="M1186.42 166C1186.42 127.257 1170.52 90.1012 1142.22 62.7058C1113.91 35.3105 1075.53 19.92 1035.5 19.92C995.474 19.92 957.086 35.3105 928.783 62.7058C900.48 90.1011 884.58 127.257 884.58 166L1035.5 166H1186.42Z" fill="#C6A272"/>
<path fill-rule="evenodd" clip-rule="evenodd" d="M1138.04 67.017C1163.73 91.8824 1178.74 125.09 1180.29 160L890.713 160C892.26 125.09 907.267 91.8824 932.956 67.017C960.12 40.7243 997.003 25.92 1035.5 25.92C1074 25.92 1110.88 40.7243 1138.04 67.017ZM884.707 160C884.623 161.995 884.58 163.995 884.58 166L1186.42 166C1186.42 163.995 1186.38 161.995 1186.29 160C1184.74 123.438 1169.06 88.6837 1142.22 62.7058C1113.91 35.3105 1075.53 19.92 1035.5 19.92C995.474 19.92 957.086 35.3105 928.783 62.7058C901.945 88.6837 886.259 123.438 884.707 160Z" fill="#F3EDE1"/>
<path d="M1165.84 166C1165.84 132.54 1152.11 100.451 1127.66 76.7914C1103.22 53.1318 1070.07 39.84 1035.5 39.84C1000.93 39.84 967.779 53.1318 943.336 76.7914C918.892 100.451 905.16 132.54 905.16 166L1035.5 166H1165.84Z" fill="#C6A272"/>
<path fill-rule="evenodd" clip-rule="evenodd" d="M1123.49 81.1026C1145.32 102.231 1158.15 130.376 1159.68 160L911.315 160C912.847 130.376 925.68 102.231 947.509 81.1026C970.813 58.5456 1002.46 45.84 1035.5 45.84C1068.54 45.84 1100.19 58.5456 1123.49 81.1026ZM905.307 160C905.209 161.994 905.16 163.995 905.16 166L1165.84 166C1165.84 163.995 1165.79 161.994 1165.69 160C1164.16 128.724 1150.64 99.0329 1127.66 76.7914C1103.22 53.1318 1070.07 39.84 1035.5 39.84C1000.93 39.84 967.779 53.1318 943.336 76.7914C920.357 99.0329 906.845 128.724 905.307 160Z" fill="#F3EDE1"/>
<path d="M1145.26 166C1145.26 137.823 1133.7 110.801 1113.11 90.877C1092.53 70.9531 1064.61 59.76 1035.5 59.76C1006.39 59.76 978.472 70.9531 957.888 90.877C937.304 110.801 925.74 137.823 925.74 166L1035.5 166H1145.26Z" fill="#C6A272"/>
<path fill-rule="evenodd" clip-rule="evenodd" d="M1139.07 160C1137.56 135.662 1126.91 112.579 1108.94 95.1882C1089.49 76.3669 1063.08 65.76 1035.5 65.76C1007.92 65.76 981.506 76.3669 962.061 95.1882C944.094 112.579 933.436 135.662 931.926 160L1139.07 160ZM1145.08 160C1143.57 134.011 1132.23 109.382 1113.11 90.877C1092.53 70.9531 1064.61 59.76 1035.5 59.76C1006.39 59.76 978.472 70.9531 957.888 90.877C938.77 109.382 927.433 134.011 925.915 160C925.799 161.993 925.74 163.993 925.74 166L1145.26 166C1145.26 163.993 1145.2 161.993 1145.08 160Z" fill="#F3EDE1"/>
<path d="M1124.68 166C1124.68 143.106 1115.28 121.151 1098.56 104.962C1081.84 88.7743 1059.15 79.6799 1035.5 79.6799C1011.85 79.6799 989.165 88.7743 972.44 104.962C955.716 121.151 946.32 143.106 946.32 166L1035.5 166H1124.68Z" fill="#C6A272"/>
<path fill-rule="evenodd" clip-rule="evenodd" d="M1118.45 160C1116.97 140.949 1108.49 122.927 1094.39 109.274C1078.8 94.1881 1057.62 85.6799 1035.5 85.6799C1013.38 85.6799 992.199 94.1881 976.613 109.274C962.508 122.927 954.03 140.949 952.552 160L1118.45 160ZM1124.46 160C1122.98 139.299 1113.82 119.731 1098.56 104.962C1081.84 88.7743 1059.15 79.6799 1035.5 79.6799C1011.85 79.6799 989.165 88.7743 972.44 104.962C957.183 119.731 948.025 139.299 946.536 160C946.392 161.991 946.32 163.992 946.32 166L1124.68 166C1124.68 163.992 1124.61 161.991 1124.46 160Z" fill="#F3EDE1"/>
<path d="M1104.1 166C1104.1 148.39 1096.87 131.501 1084.01 119.048C1071.14 106.596 1053.69 99.6001 1035.5 99.6001C1017.31 99.6001 999.858 106.596 986.993 119.048C974.128 131.501 966.9 148.39 966.9 166L1035.5 166H1104.1Z" fill="#C6A272"/>
<path fill-rule="evenodd" clip-rule="evenodd" d="M1097.79 160C1096.37 146.239 1090.08 133.272 1079.83 123.359C1068.11 112.01 1052.16 105.6 1035.5 105.6C1018.84 105.6 1002.89 112.01 991.165 123.359C980.924 133.272 974.633 146.239 973.21 160L1097.79 160ZM1103.82 160C1102.38 144.59 1095.4 130.078 1084.01 119.048C1071.14 106.596 1053.69 99.6001 1035.5 99.6001C1017.31 99.6001 999.858 106.596 986.993 119.048C975.597 130.078 968.624 144.59 967.18 160C966.994 161.987 966.9 163.989 966.9 166L1104.1 166C1104.1 163.989 1104.01 161.987 1103.82 160Z" fill="#F3EDE1"/>
<path d="M1083.52 166C1083.52 153.673 1078.46 141.85 1069.46 133.134C1060.45 124.417 1048.24 119.52 1035.5 119.52C1022.76 119.52 1010.55 124.417 1001.54 133.134C992.539 141.85 987.48 153.673 987.48 166L1035.5 166H1083.52Z" fill="#C6A272"/>
<path fill-rule="evenodd" clip-rule="evenodd" d="M1077.06 160C1075.74 151.535 1071.65 143.613 1065.28 137.445C1057.42 129.831 1046.71 125.52 1035.5 125.52C1024.29 125.52 1013.58 129.831 1005.72 137.445C999.345 143.613 995.261 151.535 993.944 160L1077.06 160ZM1083.12 160C1081.76 149.887 1076.99 140.424 1069.46 133.134C1060.45 124.417 1048.24 119.52 1035.5 119.52C1022.76 119.52 1010.55 124.417 1001.54 133.134C994.013 140.424 989.242 149.887 987.882 160C987.615 161.979 987.48 163.983 987.48 166L1083.52 166C1083.52 163.983 1083.38 161.979 1083.12 160Z" fill="#F3EDE1"/>
<path d="M1769 166C1769 121.974 1750.93 79.7513 1718.77 48.6203C1686.61 17.4892 1642.98 3.32387e-06 1597.5 0C1552.02 -3.32387e-06 1508.39 17.4892 1476.23 48.6203C1444.07 79.7513 1426 121.974 1426 166L1597.5 166H1769Z" fill="#C6A272"/>
<path fill-rule="evenodd" clip-rule="evenodd" d="M1714.6 52.9315C1744.15 81.5335 1761.32 119.806 1762.88 160L1432.12 160C1433.68 119.806 1450.85 81.5334 1480.4 52.9315C1511.43 22.903 1553.54 6 1597.5 6C1641.46 6 1683.57 22.903 1714.6 52.9315ZM1426.11 160C1426.04 161.996 1426 163.996 1426 166L1769 166C1769 163.996 1768.96 161.996 1768.89 160C1767.33 118.153 1749.47 78.3342 1718.77 48.6203C1686.61 17.4892 1642.98 0 1597.5 0C1552.02 0 1508.39 17.4892 1476.23 48.6203C1445.53 78.3342 1427.67 118.153 1426.11 160Z" fill="#F3EDE1"/>
<path d="M1748.42 166C1748.42 127.257 1732.52 90.1012 1704.22 62.7058C1675.91 35.3105 1637.53 19.92 1597.5 19.92C1557.47 19.92 1519.09 35.3105 1490.78 62.7058C1462.48 90.1011 1446.58 127.257 1446.58 166L1597.5 166H1748.42Z" fill="#C6A272"/>
<path fill-rule="evenodd" clip-rule="evenodd" d="M1700.04 67.017C1725.73 91.8824 1740.74 125.09 1742.29 160L1452.71 160C1454.26 125.09 1469.27 91.8824 1494.96 67.017C1522.12 40.7243 1559 25.92 1597.5 25.92C1636 25.92 1672.88 40.7243 1700.04 67.017ZM1446.71 160C1446.62 161.995 1446.58 163.995 1446.58 166L1748.42 166C1748.42 163.995 1748.38 161.995 1748.29 160C1746.74 123.438 1731.06 88.6837 1704.22 62.7058C1675.91 35.3105 1637.53 19.92 1597.5 19.92C1557.47 19.92 1519.09 35.3105 1490.78 62.7058C1463.94 88.6837 1448.26 123.438 1446.71 160Z" fill="#F3EDE1"/>
<path d="M1727.84 166C1727.84 132.54 1714.11 100.451 1689.66 76.7914C1665.22 53.1318 1632.07 39.84 1597.5 39.84C1562.93 39.84 1529.78 53.1318 1505.34 76.7914C1480.89 100.451 1467.16 132.54 1467.16 166L1597.5 166H1727.84Z" fill="#C6A272"/>
<path fill-rule="evenodd" clip-rule="evenodd" d="M1685.49 81.1026C1707.32 102.231 1720.15 130.376 1721.68 160L1473.31 160C1474.85 130.376 1487.68 102.231 1509.51 81.1026C1532.81 58.5456 1564.46 45.84 1597.5 45.84C1630.54 45.84 1662.19 58.5456 1685.49 81.1026ZM1467.31 160C1467.21 161.994 1467.16 163.995 1467.16 166L1727.84 166C1727.84 163.995 1727.79 161.994 1727.69 160C1726.16 128.724 1712.64 99.0329 1689.66 76.7914C1665.22 53.1318 1632.07 39.84 1597.5 39.84C1562.93 39.84 1529.78 53.1318 1505.34 76.7914C1482.36 99.0329 1468.84 128.724 1467.31 160Z" fill="#F3EDE1"/>
<path d="M1707.26 166C1707.26 137.823 1695.7 110.801 1675.11 90.877C1654.53 70.9531 1626.61 59.76 1597.5 59.76C1568.39 59.76 1540.47 70.9531 1519.89 90.877C1499.3 110.801 1487.74 137.823 1487.74 166L1597.5 166H1707.26Z" fill="#C6A272"/>
<path fill-rule="evenodd" clip-rule="evenodd" d="M1701.07 160C1699.56 135.662 1688.91 112.579 1670.94 95.1882C1651.49 76.3669 1625.08 65.76 1597.5 65.76C1569.92 65.76 1543.51 76.3669 1524.06 95.1882C1506.09 112.579 1495.44 135.662 1493.93 160L1701.07 160ZM1707.08 160C1705.57 134.011 1694.23 109.382 1675.11 90.877C1654.53 70.9531 1626.61 59.76 1597.5 59.76C1568.39 59.76 1540.47 70.9531 1519.89 90.877C1500.77 109.382 1489.43 134.011 1487.92 160C1487.8 161.993 1487.74 163.993 1487.74 166L1707.26 166C1707.26 163.993 1707.2 161.993 1707.08 160Z" fill="#F3EDE1"/>
<path d="M1686.68 166C1686.68 143.106 1677.28 121.151 1660.56 104.962C1643.84 88.7743 1621.15 79.6799 1597.5 79.6799C1573.85 79.6799 1551.16 88.7743 1534.44 104.962C1517.72 121.151 1508.32 143.106 1508.32 166L1597.5 166H1686.68Z" fill="#C6A272"/>
<path fill-rule="evenodd" clip-rule="evenodd" d="M1680.45 160C1678.97 140.949 1670.49 122.927 1656.39 109.274C1640.8 94.1881 1619.62 85.6799 1597.5 85.6799C1575.38 85.6799 1554.2 94.1881 1538.61 109.274C1524.51 122.927 1516.03 140.949 1514.55 160L1680.45 160ZM1686.46 160C1684.98 139.299 1675.82 119.731 1660.56 104.962C1643.84 88.7743 1621.15 79.6799 1597.5 79.6799C1573.85 79.6799 1551.16 88.7743 1534.44 104.962C1519.18 119.731 1510.02 139.299 1508.54 160C1508.39 161.991 1508.32 163.992 1508.32 166L1686.68 166C1686.68 163.992 1686.61 161.991 1686.46 160Z" fill="#F3EDE1"/>
<path d="M1666.1 166C1666.1 148.39 1658.87 131.501 1646.01 119.048C1633.14 106.596 1615.69 99.6001 1597.5 99.6001C1579.31 99.6001 1561.86 106.596 1548.99 119.048C1536.13 131.501 1528.9 148.39 1528.9 166L1597.5 166H1666.1Z" fill="#C6A272"/>
<path fill-rule="evenodd" clip-rule="evenodd" d="M1659.79 160C1658.37 146.239 1652.08 133.272 1641.83 123.359C1630.11 112.01 1614.16 105.6 1597.5 105.6C1580.84 105.6 1564.89 112.01 1553.17 123.359C1542.92 133.272 1536.63 146.239 1535.21 160L1659.79 160ZM1665.82 160C1664.38 144.59 1657.4 130.078 1646.01 119.048C1633.14 106.596 1615.69 99.6001 1597.5 99.6001C1579.31 99.6001 1561.86 106.596 1548.99 119.048C1537.6 130.078 1530.62 144.59 1529.18 160C1528.99 161.987 1528.9 163.989 1528.9 166L1666.1 166C1666.1 163.989 1666.01 161.987 1665.82 160Z" fill="#F3EDE1"/>
<path d="M1645.52 166C1645.52 153.673 1640.46 141.85 1631.46 133.134C1622.45 124.417 1610.24 119.52 1597.5 119.52C1584.76 119.52 1572.55 124.417 1563.54 133.134C1554.54 141.85 1549.48 153.673 1549.48 166L1597.5 166H1645.52Z" fill="#C6A272"/>
<path fill-rule="evenodd" clip-rule="evenodd" d="M1639.06 160C1637.74 151.535 1633.65 143.613 1627.28 137.445C1619.42 129.831 1608.71 125.52 1597.5 125.52C1586.29 125.52 1575.58 129.831 1567.72 137.445C1561.35 143.613 1557.26 151.535 1555.94 160L1639.06 160ZM1645.12 160C1643.76 149.887 1638.99 140.424 1631.46 133.134C1622.45 124.417 1610.24 119.52 1597.5 119.52C1584.76 119.52 1572.55 124.417 1563.54 133.134C1556.01 140.424 1551.24 149.887 1549.88 160C1549.62 161.979 1549.48 163.983 1549.48 166L1645.52 166C1645.52 163.983 1645.38 161.979 1645.12 160Z" fill="#F3EDE1"/>
<path d="M2332 166C2332 121.974 2313.93 79.7513 2281.77 48.6203C2249.61 17.4892 2205.98 3.32387e-06 2160.5 0C2115.02 -3.32387e-06 2071.39 17.4892 2039.23 48.6203C2007.07 79.7513 1989 121.974 1989 166L2160.5 166H2332Z" fill="#C6A272"/>
<path fill-rule="evenodd" clip-rule="evenodd" d="M2277.6 52.9315C2307.15 81.5335 2324.32 119.806 2325.88 160L1995.12 160C1996.68 119.806 2013.85 81.5334 2043.4 52.9315C2074.43 22.903 2116.54 6 2160.5 6C2204.46 6 2246.57 22.903 2277.6 52.9315ZM1989.11 160C1989.04 161.996 1989 163.996 1989 166L2332 166C2332 163.996 2331.96 161.996 2331.89 160C2330.33 118.153 2312.47 78.3342 2281.77 48.6203C2249.61 17.4892 2205.98 0 2160.5 0C2115.02 0 2071.39 17.4892 2039.23 48.6203C2008.53 78.3342 1990.67 118.153 1989.11 160Z" fill="#F3EDE1"/>
<path d="M2311.42 166C2311.42 127.257 2295.52 90.1012 2267.22 62.7058C2238.91 35.3105 2200.53 19.92 2160.5 19.92C2120.47 19.92 2082.09 35.3105 2053.78 62.7058C2025.48 90.1011 2009.58 127.257 2009.58 166L2160.5 166H2311.42Z" fill="#C6A272"/>
<path fill-rule="evenodd" clip-rule="evenodd" d="M2263.04 67.017C2288.73 91.8824 2303.74 125.09 2305.29 160L2015.71 160C2017.26 125.09 2032.27 91.8824 2057.96 67.017C2085.12 40.7243 2122 25.92 2160.5 25.92C2199 25.92 2235.88 40.7243 2263.04 67.017ZM2009.71 160C2009.62 161.995 2009.58 163.995 2009.58 166L2311.42 166C2311.42 163.995 2311.38 161.995 2311.29 160C2309.74 123.438 2294.06 88.6837 2267.22 62.7058C2238.91 35.3105 2200.53 19.92 2160.5 19.92C2120.47 19.92 2082.09 35.3105 2053.78 62.7058C2026.94 88.6837 2011.26 123.438 2009.71 160Z" fill="#F3EDE1"/>
<path d="M2290.84 166C2290.84 132.54 2277.11 100.451 2252.66 76.7914C2228.22 53.1318 2195.07 39.84 2160.5 39.84C2125.93 39.84 2092.78 53.1318 2068.34 76.7914C2043.89 100.451 2030.16 132.54 2030.16 166L2160.5 166H2290.84Z" fill="#C6A272"/>
<path fill-rule="evenodd" clip-rule="evenodd" d="M2248.49 81.1026C2270.32 102.231 2283.15 130.376 2284.68 160L2036.31 160C2037.85 130.376 2050.68 102.231 2072.51 81.1026C2095.81 58.5456 2127.46 45.84 2160.5 45.84C2193.54 45.84 2225.19 58.5456 2248.49 81.1026ZM2030.31 160C2030.21 161.994 2030.16 163.995 2030.16 166L2290.84 166C2290.84 163.995 2290.79 161.994 2290.69 160C2289.16 128.724 2275.64 99.0329 2252.66 76.7914C2228.22 53.1318 2195.07 39.84 2160.5 39.84C2125.93 39.84 2092.78 53.1318 2068.34 76.7914C2045.36 99.0329 2031.84 128.724 2030.31 160Z" fill="#F3EDE1"/>
<path d="M2270.26 166C2270.26 137.823 2258.7 110.801 2238.11 90.877C2217.53 70.9531 2189.61 59.76 2160.5 59.76C2131.39 59.76 2103.47 70.9531 2082.89 90.877C2062.3 110.801 2050.74 137.823 2050.74 166L2160.5 166H2270.26Z" fill="#C6A272"/>
<path fill-rule="evenodd" clip-rule="evenodd" d="M2264.07 160C2262.56 135.662 2251.91 112.579 2233.94 95.1882C2214.49 76.3669 2188.08 65.76 2160.5 65.76C2132.92 65.76 2106.51 76.3669 2087.06 95.1882C2069.09 112.579 2058.44 135.662 2056.93 160L2264.07 160ZM2270.08 160C2268.57 134.011 2257.23 109.382 2238.11 90.877C2217.53 70.9531 2189.61 59.76 2160.5 59.76C2131.39 59.76 2103.47 70.9531 2082.89 90.877C2063.77 109.382 2052.43 134.011 2050.92 160C2050.8 161.993 2050.74 163.993 2050.74 166L2270.26 166C2270.26 163.993 2270.2 161.993 2270.08 160Z" fill="#F3EDE1"/>
<path d="M2249.68 166C2249.68 143.106 2240.28 121.151 2223.56 104.962C2206.84 88.7743 2184.15 79.6799 2160.5 79.6799C2136.85 79.6799 2114.16 88.7743 2097.44 104.962C2080.72 121.151 2071.32 143.106 2071.32 166L2160.5 166H2249.68Z" fill="#C6A272"/>
<path fill-rule="evenodd" clip-rule="evenodd" d="M2243.45 160C2241.97 140.949 2233.49 122.927 2219.39 109.274C2203.8 94.1881 2182.62 85.6799 2160.5 85.6799C2138.38 85.6799 2117.2 94.1881 2101.61 109.274C2087.51 122.927 2079.03 140.949 2077.55 160L2243.45 160ZM2249.46 160C2247.98 139.299 2238.82 119.731 2223.56 104.962C2206.84 88.7743 2184.15 79.6799 2160.5 79.6799C2136.85 79.6799 2114.16 88.7743 2097.44 104.962C2082.18 119.731 2073.02 139.299 2071.54 160C2071.39 161.991 2071.32 163.992 2071.32 166L2249.68 166C2249.68 163.992 2249.61 161.991 2249.46 160Z" fill="#F3EDE1"/>
<path d="M2229.1 166C2229.1 148.39 2221.87 131.501 2209.01 119.048C2196.14 106.596 2178.69 99.6001 2160.5 99.6001C2142.31 99.6001 2124.86 106.596 2111.99 119.048C2099.13 131.501 2091.9 148.39 2091.9 166L2160.5 166H2229.1Z" fill="#C6A272"/>
<path fill-rule="evenodd" clip-rule="evenodd" d="M2222.79 160C2221.37 146.239 2215.08 133.272 2204.83 123.359C2193.11 112.01 2177.16 105.6 2160.5 105.6C2143.84 105.6 2127.89 112.01 2116.17 123.359C2105.92 133.272 2099.63 146.239 2098.21 160L2222.79 160ZM2228.82 160C2227.38 144.59 2220.4 130.078 2209.01 119.048C2196.14 106.596 2178.69 99.6001 2160.5 99.6001C2142.31 99.6001 2124.86 106.596 2111.99 119.048C2100.6 130.078 2093.62 144.59 2092.18 160C2091.99 161.987 2091.9 163.989 2091.9 166L2229.1 166C2229.1 163.989 2229.01 161.987 2228.82 160Z" fill="#F3EDE1"/>
<path d="M2208.52 166C2208.52 153.673 2203.46 141.85 2194.46 133.134C2185.45 124.417 2173.24 119.52 2160.5 119.52C2147.76 119.52 2135.55 124.417 2126.54 133.134C2117.54 141.85 2112.48 153.673 2112.48 166L2160.5 166H2208.52Z" fill="#C6A272"/>
<path fill-rule="evenodd" clip-rule="evenodd" d="M2202.06 160C2200.74 151.535 2196.65 143.613 2190.28 137.445C2182.42 129.831 2171.71 125.52 2160.5 125.52C2149.29 125.52 2138.58 129.831 2130.72 137.445C2124.35 143.613 2120.26 151.535 2118.94 160L2202.06 160ZM2208.12 160C2206.76 149.887 2201.99 140.424 2194.46 133.134C2185.45 124.417 2173.24 119.52 2160.5 119.52C2147.76 119.52 2135.55 124.417 2126.54 133.134C2119.01 140.424 2114.24 149.887 2112.88 160C2112.62 161.979 2112.48 163.983 2112.48 166L2208.52 166C2208.52 163.983 2208.38 161.979 2208.12 160Z" fill="#F3EDE1"/>
<path d="M2915 166C2915 121.974 2896.93 79.7513 2864.77 48.6203C2832.61 17.4892 2788.98 3.32387e-06 2743.5 0C2698.02 -3.32387e-06 2654.39 17.4892 2622.23 48.6203C2590.07 79.7513 2572 121.974 2572 166L2743.5 166H2915Z" fill="#C6A272"/>
<path fill-rule="evenodd" clip-rule="evenodd" d="M2860.6 52.9315C2890.15 81.5335 2907.32 119.806 2908.88 160L2578.12 160C2579.68 119.806 2596.85 81.5334 2626.4 52.9315C2657.43 22.903 2699.54 6 2743.5 6C2787.46 6 2829.57 22.903 2860.6 52.9315ZM2572.11 160C2572.04 161.996 2572 163.996 2572 166L2915 166C2915 163.996 2914.96 161.996 2914.89 160C2913.33 118.153 2895.47 78.3342 2864.77 48.6203C2832.61 17.4892 2788.98 0 2743.5 0C2698.02 0 2654.39 17.4892 2622.23 48.6203C2591.53 78.3342 2573.67 118.153 2572.11 160Z" fill="#F3EDE1"/>
<path d="M2894.42 166C2894.42 127.257 2878.52 90.1012 2850.22 62.7058C2821.91 35.3105 2783.53 19.92 2743.5 19.92C2703.47 19.92 2665.09 35.3105 2636.78 62.7058C2608.48 90.1011 2592.58 127.257 2592.58 166L2743.5 166H2894.42Z" fill="#C6A272"/>
<path fill-rule="evenodd" clip-rule="evenodd" d="M2846.04 67.017C2871.73 91.8824 2886.74 125.09 2888.29 160L2598.71 160C2600.26 125.09 2615.27 91.8824 2640.96 67.017C2668.12 40.7243 2705 25.92 2743.5 25.92C2782 25.92 2818.88 40.7243 2846.04 67.017ZM2592.71 160C2592.62 161.995 2592.58 163.995 2592.58 166L2894.42 166C2894.42 163.995 2894.38 161.995 2894.29 160C2892.74 123.438 2877.06 88.6837 2850.22 62.7058C2821.91 35.3105 2783.53 19.92 2743.5 19.92C2703.47 19.92 2665.09 35.3105 2636.78 62.7058C2609.94 88.6837 2594.26 123.438 2592.71 160Z" fill="#F3EDE1"/>
<path d="M2873.84 166C2873.84 132.54 2860.11 100.451 2835.66 76.7914C2811.22 53.1318 2778.07 39.84 2743.5 39.84C2708.93 39.84 2675.78 53.1318 2651.34 76.7914C2626.89 100.451 2613.16 132.54 2613.16 166L2743.5 166H2873.84Z" fill="#C6A272"/>
<path fill-rule="evenodd" clip-rule="evenodd" d="M2831.49 81.1026C2853.32 102.231 2866.15 130.376 2867.68 160L2619.31 160C2620.85 130.376 2633.68 102.231 2655.51 81.1026C2678.81 58.5456 2710.46 45.84 2743.5 45.84C2776.54 45.84 2808.19 58.5456 2831.49 81.1026ZM2613.31 160C2613.21 161.994 2613.16 163.995 2613.16 166L2873.84 166C2873.84 163.995 2873.79 161.994 2873.69 160C2872.16 128.724 2858.64 99.0329 2835.66 76.7914C2811.22 53.1318 2778.07 39.84 2743.5 39.84C2708.93 39.84 2675.78 53.1318 2651.34 76.7914C2628.36 99.0329 2614.84 128.724 2613.31 160Z" fill="#F3EDE1"/>
<path d="M2853.26 166C2853.26 137.823 2841.7 110.801 2821.11 90.877C2800.53 70.9531 2772.61 59.76 2743.5 59.76C2714.39 59.76 2686.47 70.9531 2665.89 90.877C2645.3 110.801 2633.74 137.823 2633.74 166L2743.5 166H2853.26Z" fill="#C6A272"/>
<path fill-rule="evenodd" clip-rule="evenodd" d="M2847.07 160C2845.56 135.662 2834.91 112.579 2816.94 95.1882C2797.49 76.3669 2771.08 65.76 2743.5 65.76C2715.92 65.76 2689.51 76.3669 2670.06 95.1882C2652.09 112.579 2641.44 135.662 2639.93 160L2847.07 160ZM2853.08 160C2851.57 134.011 2840.23 109.382 2821.11 90.877C2800.53 70.9531 2772.61 59.76 2743.5 59.76C2714.39 59.76 2686.47 70.9531 2665.89 90.877C2646.77 109.382 2635.43 134.011 2633.92 160C2633.8 161.993 2633.74 163.993 2633.74 166L2853.26 166C2853.26 163.993 2853.2 161.993 2853.08 160Z" fill="#F3EDE1"/>
<path d="M2832.68 166C2832.68 143.106 2823.28 121.151 2806.56 104.962C2789.84 88.7743 2767.15 79.6799 2743.5 79.6799C2719.85 79.6799 2697.16 88.7743 2680.44 104.962C2663.72 121.151 2654.32 143.106 2654.32 166L2743.5 166H2832.68Z" fill="#C6A272"/>
<path fill-rule="evenodd" clip-rule="evenodd" d="M2826.45 160C2824.97 140.949 2816.49 122.927 2802.39 109.274C2786.8 94.1881 2765.62 85.6799 2743.5 85.6799C2721.38 85.6799 2700.2 94.1881 2684.61 109.274C2670.51 122.927 2662.03 140.949 2660.55 160L2826.45 160ZM2832.46 160C2830.98 139.299 2821.82 119.731 2806.56 104.962C2789.84 88.7743 2767.15 79.6799 2743.5 79.6799C2719.85 79.6799 2697.16 88.7743 2680.44 104.962C2665.18 119.731 2656.02 139.299 2654.54 160C2654.39 161.991 2654.32 163.992 2654.32 166L2832.68 166C2832.68 163.992 2832.61 161.991 2832.46 160Z" fill="#F3EDE1"/>
<path d="M2812.1 166C2812.1 148.39 2804.87 131.501 2792.01 119.048C2779.14 106.596 2761.69 99.6001 2743.5 99.6001C2725.31 99.6001 2707.86 106.596 2694.99 119.048C2682.13 131.501 2674.9 148.39 2674.9 166L2743.5 166H2812.1Z" fill="#C6A272"/>
<path fill-rule="evenodd" clip-rule="evenodd" d="M2805.79 160C2804.37 146.239 2798.08 133.272 2787.83 123.359C2776.11 112.01 2760.16 105.6 2743.5 105.6C2726.84 105.6 2710.89 112.01 2699.17 123.359C2688.92 133.272 2682.63 146.239 2681.21 160L2805.79 160ZM2811.82 160C2810.38 144.59 2803.4 130.078 2792.01 119.048C2779.14 106.596 2761.69 99.6001 2743.5 99.6001C2725.31 99.6001 2707.86 106.596 2694.99 119.048C2683.6 130.078 2676.62 144.59 2675.18 160C2674.99 161.987 2674.9 163.989 2674.9 166L2812.1 166C2812.1 163.989 2812.01 161.987 2811.82 160Z" fill="#F3EDE1"/>
<path d="M2791.52 166C2791.52 153.673 2786.46 141.85 2777.46 133.134C2768.45 124.417 2756.24 119.52 2743.5 119.52C2730.76 119.52 2718.55 124.417 2709.54 133.134C2700.54 141.85 2695.48 153.673 2695.48 166L2743.5 166H2791.52Z" fill="#C6A272"/>
<path fill-rule="evenodd" clip-rule="evenodd" d="M2785.06 160C2783.74 151.535 2779.65 143.613 2773.28 137.445C2765.42 129.831 2754.71 125.52 2743.5 125.52C2732.29 125.52 2721.58 129.831 2713.72 137.445C2707.35 143.613 2703.26 151.535 2701.94 160L2785.06 160ZM2791.12 160C2789.76 149.887 2784.99 140.424 2777.46 133.134C2768.45 124.417 2756.24 119.52 2743.5 119.52C2730.76 119.52 2718.55 124.417 2709.54 133.134C2702.01 140.424 2697.24 149.887 2695.88 160C2695.62 161.979 2695.48 163.983 2695.48 166L2791.52 166C2791.52 163.983 2791.38 161.979 2791.12 160Z" fill="#F3EDE1"/>
</svg>
