<svg width="3237" height="166" viewBox="0 0 3237 166" fill="none" xmlns="http://www.w3.org/2000/svg">
<path d="M2894 0C2894 44.0259 2912.07 86.2487 2944.23 117.38C2976.39 148.511 3020.02 166 3065.5 166C3110.98 166 3154.61 148.511 3186.77 117.38C3218.93 86.2487 3237 44.026 3237 3.05176e-05L3065.5 0H2894Z" fill="#C6A272"/>
<path fill-rule="evenodd" clip-rule="evenodd" d="M2948.4 113.069C2918.85 84.4665 2901.68 46.1945 2900.12 6L3230.88 6.00003C3229.32 46.1945 3212.15 84.4666 3182.6 113.069C3151.57 143.097 3109.46 160 3065.5 160C3021.54 160 2979.43 143.097 2948.4 113.069ZM3236.89 6.00003C3236.96 4.00435 3237 2.00406 3237 3.05176e-05L2894 0C2894 2.00403 2894.04 4.00432 2894.11 6C2895.67 47.8468 2913.53 87.6658 2944.23 117.38C2976.39 148.511 3020.02 166 3065.5 166C3110.98 166 3154.61 148.511 3186.77 117.38C3217.47 87.6658 3235.33 47.8469 3236.89 6.00003Z" fill="#F3EDE1"/>
<path d="M2914.58 0C2914.58 38.7428 2930.48 75.8988 2958.78 103.294C2987.09 130.689 3025.47 146.08 3065.5 146.08C3105.53 146.08 3143.91 130.689 3172.22 103.294C3200.52 75.8989 3216.42 38.7428 3216.42 1.52588e-05L3065.5 0H2914.58Z" fill="#C6A272"/>
<path fill-rule="evenodd" clip-rule="evenodd" d="M2962.96 98.983C2937.27 74.1176 2922.26 40.9097 2920.71 6L3210.29 6.00002C3208.74 40.9097 3193.73 74.1176 3168.04 98.983C3140.88 125.276 3104 140.08 3065.5 140.08C3027 140.08 2990.12 125.276 2962.96 98.983ZM3216.29 6.00002C3216.38 4.00502 3216.42 2.00464 3216.42 1.52588e-05L2914.58 0C2914.58 2.00462 2914.62 4.005 2914.71 6C2916.26 42.5617 2931.94 77.3163 2958.78 103.294C2987.09 130.689 3025.47 146.08 3065.5 146.08C3105.53 146.08 3143.91 130.689 3172.22 103.294C3199.06 77.3163 3214.74 42.5618 3216.29 6.00002Z" fill="#F3EDE1"/>
<path d="M2935.16 0C2935.16 33.4597 2948.89 65.549 2973.34 89.2086C2997.78 112.868 3030.93 126.16 3065.5 126.16C3100.07 126.16 3133.22 112.868 3157.66 89.2086C3182.11 65.549 3195.84 33.4597 3195.84 1.52588e-05L3065.5 0H2935.16Z" fill="#C6A272"/>
<path fill-rule="evenodd" clip-rule="evenodd" d="M2977.51 84.8974C2955.68 63.7689 2942.85 35.6244 2941.31 6L3189.68 6.00002C3188.15 35.6244 3175.32 63.7689 3153.49 84.8974C3130.19 107.454 3098.54 120.16 3065.5 120.16C3032.46 120.16 3000.81 107.454 2977.51 84.8974ZM3195.69 6.00002C3195.79 4.00595 3195.84 2.00545 3195.84 1.52588e-05L2935.16 0C2935.16 2.00543 2935.21 4.00594 2935.31 6C2936.84 37.276 2950.36 66.9671 2973.34 89.2086C2997.78 112.868 3030.93 126.16 3065.5 126.16C3100.07 126.16 3133.22 112.868 3157.66 89.2086C3180.64 66.9671 3194.16 37.276 3195.69 6.00002Z" fill="#F3EDE1"/>
<path d="M2955.74 -7.62939e-06C2955.74 28.1766 2967.3 55.1991 2987.89 75.123C3008.47 95.0469 3036.39 106.24 3065.5 106.24C3094.61 106.24 3122.53 95.0469 3143.11 75.123C3163.7 55.1992 3175.26 28.1766 3175.26 7.62939e-06L3065.5 -7.62939e-06H2955.74Z" fill="#C6A272"/>
<path fill-rule="evenodd" clip-rule="evenodd" d="M2961.93 5.99999C2963.44 30.3383 2974.09 53.4206 2992.06 70.8118C3011.51 89.6331 3037.92 100.24 3065.5 100.24C3093.08 100.24 3119.49 89.6331 3138.94 70.8118C3156.91 53.4207 3167.56 30.3383 3169.07 6.00001L2961.93 5.99999ZM2955.92 5.99999C2957.43 31.9894 2968.77 56.618 2987.89 75.123C3008.47 95.0469 3036.39 106.24 3065.5 106.24C3094.61 106.24 3122.53 95.0469 3143.11 75.123C3162.23 56.618 3173.57 31.9894 3175.08 6.00001C3175.2 4.00729 3175.26 2.00658 3175.26 7.62939e-06L2955.74 -7.62939e-06C2955.74 2.00656 2955.8 4.00728 2955.92 5.99999Z" fill="#F3EDE1"/>
<path d="M2976.32 6.86646e-05C2976.32 22.8936 2985.72 44.8494 3002.44 61.0375C3019.16 77.2257 3041.85 86.3201 3065.5 86.3201C3089.15 86.3201 3111.84 77.2257 3128.56 61.0375C3145.28 44.8494 3154.68 22.8936 3154.68 8.39233e-05L3065.5 6.86646e-05H2976.32Z" fill="#C6A272"/>
<path fill-rule="evenodd" clip-rule="evenodd" d="M2982.55 6.00007C2984.03 25.0509 2992.51 43.0734 3006.61 56.7263C3022.2 71.8119 3043.38 80.3201 3065.5 80.3201C3087.62 80.3201 3108.8 71.8119 3124.39 56.7263C3138.49 43.0734 3146.97 25.0509 3148.45 6.00008L2982.55 6.00007ZM2976.54 6.00007C2978.02 26.7013 2987.18 46.2695 3002.44 61.0375C3019.16 77.2257 3041.85 86.3201 3065.5 86.3201C3089.15 86.3201 3111.84 77.2257 3128.56 61.0375C3143.82 46.2695 3152.98 26.7013 3154.46 6.00008C3154.61 4.00948 3154.68 2.00838 3154.68 8.39233e-05L2976.32 6.86646e-05C2976.32 2.00837 2976.39 4.00946 2976.54 6.00007Z" fill="#F3EDE1"/>
<path d="M2996.9 -9.91821e-05C2996.9 17.6103 3004.13 34.4994 3016.99 46.9518C3029.86 59.4042 3047.31 66.3999 3065.5 66.3999C3083.69 66.3999 3101.14 59.4042 3114.01 46.9518C3126.87 34.4994 3134.1 17.6103 3134.1 -9.15527e-05L3065.5 -9.91821e-05H2996.9Z" fill="#C6A272"/>
<path fill-rule="evenodd" clip-rule="evenodd" d="M3003.21 5.9999C3004.63 19.7607 3010.92 32.7277 3021.17 42.6406C3032.89 53.9904 3048.84 60.3999 3065.5 60.3999C3082.16 60.3999 3098.11 53.9904 3109.83 42.6406C3120.08 32.7277 3126.37 19.7607 3127.79 5.99991L3003.21 5.9999ZM2997.18 5.9999C2998.62 21.4102 3005.6 35.9215 3016.99 46.9518C3029.86 59.4042 3047.31 66.3999 3065.5 66.3999C3083.69 66.3999 3101.14 59.4042 3114.01 46.9518C3125.4 35.9216 3132.38 21.4102 3133.82 5.99991C3134.01 4.01301 3134.1 2.01116 3134.1 -9.15527e-05L2996.9 -9.91821e-05C2996.9 2.01115 2996.99 4.013 2997.18 5.9999Z" fill="#F3EDE1"/>
<path d="M3017.48 -1.90735e-05C3017.48 12.3272 3022.54 24.1496 3031.54 32.8663C3040.55 41.583 3052.76 46.48 3065.5 46.48C3078.24 46.48 3090.45 41.583 3099.46 32.8663C3108.46 24.1496 3113.52 12.3273 3113.52 -1.14441e-05L3065.5 -1.90735e-05H3017.48Z" fill="#C6A272"/>
<path fill-rule="evenodd" clip-rule="evenodd" d="M3023.94 5.99998C3025.26 14.4649 3029.35 22.387 3035.72 28.5551C3043.58 36.1692 3054.29 40.48 3065.5 40.48C3076.71 40.48 3087.42 36.1692 3095.28 28.5551C3101.65 22.387 3105.74 14.4649 3107.06 5.99999L3023.94 5.99998ZM3017.88 5.99998C3019.24 16.1135 3024.01 25.5761 3031.54 32.8663C3040.55 41.583 3052.76 46.48 3065.5 46.48C3078.24 46.48 3090.45 41.583 3099.46 32.8663C3106.99 25.5761 3111.76 16.1135 3113.12 5.99999C3113.38 4.02111 3113.52 2.01731 3113.52 -1.14441e-05L3017.48 -1.90735e-05C3017.48 2.0173 3017.62 4.0211 3017.88 5.99998Z" fill="#F3EDE1"/>
<path d="M1749 0C1749 44.0259 1767.07 86.2487 1799.23 117.38C1831.39 148.511 1875.02 166 1920.5 166C1965.98 166 2009.61 148.511 2041.77 117.38C2073.93 86.2487 2092 44.026 2092 3.05176e-05L1920.5 0H1749Z" fill="#C6A272"/>
<path fill-rule="evenodd" clip-rule="evenodd" d="M1803.4 113.069C1773.85 84.4665 1756.68 46.1945 1755.12 6L2085.88 6.00003C2084.32 46.1945 2067.15 84.4666 2037.6 113.069C2006.57 143.097 1964.46 160 1920.5 160C1876.54 160 1834.43 143.097 1803.4 113.069ZM2091.89 6.00003C2091.96 4.00435 2092 2.00406 2092 3.05176e-05L1749 0C1749 2.00403 1749.04 4.00432 1749.11 6C1750.67 47.8468 1768.53 87.6658 1799.23 117.38C1831.39 148.511 1875.02 166 1920.5 166C1965.98 166 2009.61 148.511 2041.77 117.38C2072.47 87.6658 2090.33 47.8469 2091.89 6.00003Z" fill="#F3EDE1"/>
<path d="M1769.58 0C1769.58 38.7428 1785.48 75.8988 1813.78 103.294C1842.09 130.689 1880.47 146.08 1920.5 146.08C1960.53 146.08 1998.91 130.689 2027.22 103.294C2055.52 75.8989 2071.42 38.7428 2071.42 1.52588e-05L1920.5 0H1769.58Z" fill="#C6A272"/>
<path fill-rule="evenodd" clip-rule="evenodd" d="M1817.96 98.983C1792.27 74.1176 1777.26 40.9097 1775.71 6L2065.29 6.00002C2063.74 40.9097 2048.73 74.1176 2023.04 98.983C1995.88 125.276 1959 140.08 1920.5 140.08C1882 140.08 1845.12 125.276 1817.96 98.983ZM2071.29 6.00002C2071.38 4.00502 2071.42 2.00464 2071.42 1.52588e-05L1769.58 0C1769.58 2.00462 1769.62 4.005 1769.71 6C1771.26 42.5617 1786.94 77.3163 1813.78 103.294C1842.09 130.689 1880.47 146.08 1920.5 146.08C1960.53 146.08 1998.91 130.689 2027.22 103.294C2054.06 77.3163 2069.74 42.5618 2071.29 6.00002Z" fill="#F3EDE1"/>
<path d="M1790.16 0C1790.16 33.4597 1803.89 65.549 1828.34 89.2086C1852.78 112.868 1885.93 126.16 1920.5 126.16C1955.07 126.16 1988.22 112.868 2012.66 89.2086C2037.11 65.549 2050.84 33.4597 2050.84 1.52588e-05L1920.5 0H1790.16Z" fill="#C6A272"/>
<path fill-rule="evenodd" clip-rule="evenodd" d="M1832.51 84.8974C1810.68 63.7689 1797.85 35.6244 1796.32 6L2044.69 6.00002C2043.15 35.6244 2030.32 63.7689 2008.49 84.8974C1985.19 107.454 1953.54 120.16 1920.5 120.16C1887.46 120.16 1855.81 107.454 1832.51 84.8974ZM2050.69 6.00002C2050.79 4.00595 2050.84 2.00545 2050.84 1.52588e-05L1790.16 0C1790.16 2.00543 1790.21 4.00594 1790.31 6C1791.84 37.276 1805.36 66.9671 1828.34 89.2086C1852.78 112.868 1885.93 126.16 1920.5 126.16C1955.07 126.16 1988.22 112.868 2012.66 89.2086C2035.64 66.9671 2049.16 37.276 2050.69 6.00002Z" fill="#F3EDE1"/>
<path d="M1810.74 -7.62939e-06C1810.74 28.1766 1822.3 55.1991 1842.89 75.123C1863.47 95.0469 1891.39 106.24 1920.5 106.24C1949.61 106.24 1977.53 95.0469 1998.11 75.123C2018.7 55.1992 2030.26 28.1766 2030.26 7.62939e-06L1920.5 -7.62939e-06H1810.74Z" fill="#C6A272"/>
<path fill-rule="evenodd" clip-rule="evenodd" d="M1816.93 5.99999C1818.44 30.3383 1829.09 53.4206 1847.06 70.8118C1866.51 89.6331 1892.92 100.24 1920.5 100.24C1948.08 100.24 1974.49 89.6331 1993.94 70.8118C2011.91 53.4207 2022.56 30.3383 2024.07 6.00001L1816.93 5.99999ZM1810.92 5.99999C1812.43 31.9894 1823.77 56.618 1842.89 75.123C1863.47 95.0469 1891.39 106.24 1920.5 106.24C1949.61 106.24 1977.53 95.0469 1998.11 75.123C2017.23 56.618 2028.57 31.9894 2030.08 6.00001C2030.2 4.00729 2030.26 2.00658 2030.26 7.62939e-06L1810.74 -7.62939e-06C1810.74 2.00656 1810.8 4.00728 1810.92 5.99999Z" fill="#F3EDE1"/>
<path d="M1831.32 6.86646e-05C1831.32 22.8936 1840.72 44.8494 1857.44 61.0375C1874.16 77.2257 1896.85 86.3201 1920.5 86.3201C1944.15 86.3201 1966.84 77.2257 1983.56 61.0375C2000.28 44.8494 2009.68 22.8936 2009.68 8.39233e-05L1920.5 6.86646e-05H1831.32Z" fill="#C6A272"/>
<path fill-rule="evenodd" clip-rule="evenodd" d="M1837.55 6.00007C1839.03 25.0509 1847.51 43.0734 1861.61 56.7263C1877.2 71.8119 1898.38 80.3201 1920.5 80.3201C1942.62 80.3201 1963.8 71.8119 1979.39 56.7263C1993.49 43.0734 2001.97 25.0509 2003.45 6.00008L1837.55 6.00007ZM1831.54 6.00007C1833.02 26.7013 1842.18 46.2695 1857.44 61.0375C1874.16 77.2257 1896.85 86.3201 1920.5 86.3201C1944.15 86.3201 1966.84 77.2257 1983.56 61.0375C1998.82 46.2695 2007.98 26.7013 2009.46 6.00008C2009.61 4.00948 2009.68 2.00838 2009.68 8.39233e-05L1831.32 6.86646e-05C1831.32 2.00837 1831.39 4.00946 1831.54 6.00007Z" fill="#F3EDE1"/>
<path d="M1851.9 -9.91821e-05C1851.9 17.6103 1859.13 34.4994 1871.99 46.9518C1884.86 59.4042 1902.31 66.3999 1920.5 66.3999C1938.69 66.3999 1956.14 59.4042 1969.01 46.9518C1981.87 34.4994 1989.1 17.6103 1989.1 -9.15527e-05L1920.5 -9.91821e-05H1851.9Z" fill="#C6A272"/>
<path fill-rule="evenodd" clip-rule="evenodd" d="M1858.21 5.9999C1859.63 19.7607 1865.92 32.7277 1876.17 42.6406C1887.89 53.9904 1903.84 60.3999 1920.5 60.3999C1937.16 60.3999 1953.11 53.9904 1964.83 42.6406C1975.08 32.7277 1981.37 19.7607 1982.79 5.99991L1858.21 5.9999ZM1852.18 5.9999C1853.62 21.4102 1860.6 35.9215 1871.99 46.9518C1884.86 59.4042 1902.31 66.3999 1920.5 66.3999C1938.69 66.3999 1956.14 59.4042 1969.01 46.9518C1980.4 35.9216 1987.38 21.4102 1988.82 5.99991C1989.01 4.01301 1989.1 2.01116 1989.1 -9.15527e-05L1851.9 -9.91821e-05C1851.9 2.01115 1851.99 4.013 1852.18 5.9999Z" fill="#F3EDE1"/>
<path d="M1872.48 -1.90735e-05C1872.48 12.3272 1877.54 24.1496 1886.54 32.8663C1895.55 41.583 1907.76 46.48 1920.5 46.48C1933.24 46.48 1945.45 41.583 1954.46 32.8663C1963.46 24.1496 1968.52 12.3273 1968.52 -1.14441e-05L1920.5 -1.90735e-05H1872.48Z" fill="#C6A272"/>
<path fill-rule="evenodd" clip-rule="evenodd" d="M1878.94 5.99998C1880.26 14.4649 1884.35 22.387 1890.72 28.5551C1898.58 36.1692 1909.29 40.48 1920.5 40.48C1931.71 40.48 1942.42 36.1692 1950.28 28.5551C1956.65 22.387 1960.74 14.4649 1962.06 5.99999L1878.94 5.99998ZM1872.88 5.99998C1874.24 16.1135 1879.01 25.5761 1886.54 32.8663C1895.55 41.583 1907.76 46.48 1920.5 46.48C1933.24 46.48 1945.45 41.583 1954.46 32.8663C1961.99 25.5761 1966.76 16.1135 1968.12 5.99999C1968.38 4.02111 1968.52 2.01731 1968.52 -1.14441e-05L1872.48 -1.90735e-05C1872.48 2.0173 1872.62 4.0211 1872.88 5.99998Z" fill="#F3EDE1"/>
<path d="M1166 0C1166 44.0259 1184.07 86.2487 1216.23 117.38C1248.39 148.511 1292.02 166 1337.5 166C1382.98 166 1426.61 148.511 1458.77 117.38C1490.93 86.2487 1509 44.026 1509 3.05176e-05L1337.5 0H1166Z" fill="#C6A272"/>
<path fill-rule="evenodd" clip-rule="evenodd" d="M1220.4 113.069C1190.85 84.4665 1173.68 46.1945 1172.12 6L1502.88 6.00003C1501.32 46.1945 1484.15 84.4666 1454.6 113.069C1423.57 143.097 1381.46 160 1337.5 160C1293.54 160 1251.43 143.097 1220.4 113.069ZM1508.89 6.00003C1508.96 4.00435 1509 2.00406 1509 3.05176e-05L1166 0C1166 2.00403 1166.04 4.00432 1166.11 6C1167.67 47.8468 1185.53 87.6658 1216.23 117.38C1248.39 148.511 1292.02 166 1337.5 166C1382.98 166 1426.61 148.511 1458.77 117.38C1489.47 87.6658 1507.33 47.8469 1508.89 6.00003Z" fill="#F3EDE1"/>
<path d="M1186.58 0C1186.58 38.7428 1202.48 75.8988 1230.78 103.294C1259.09 130.689 1297.47 146.08 1337.5 146.08C1377.53 146.08 1415.91 130.689 1444.22 103.294C1472.52 75.8989 1488.42 38.7428 1488.42 1.52588e-05L1337.5 0H1186.58Z" fill="#C6A272"/>
<path fill-rule="evenodd" clip-rule="evenodd" d="M1234.96 98.983C1209.27 74.1176 1194.26 40.9097 1192.71 6L1482.29 6.00002C1480.74 40.9097 1465.73 74.1176 1440.04 98.983C1412.88 125.276 1376 140.08 1337.5 140.08C1299 140.08 1262.12 125.276 1234.96 98.983ZM1488.29 6.00002C1488.38 4.00502 1488.42 2.00464 1488.42 1.52588e-05L1186.58 0C1186.58 2.00462 1186.62 4.005 1186.71 6C1188.26 42.5617 1203.94 77.3163 1230.78 103.294C1259.09 130.689 1297.47 146.08 1337.5 146.08C1377.53 146.08 1415.91 130.689 1444.22 103.294C1471.06 77.3163 1486.74 42.5618 1488.29 6.00002Z" fill="#F3EDE1"/>
<path d="M1207.16 0C1207.16 33.4597 1220.89 65.549 1245.34 89.2086C1269.78 112.868 1302.93 126.16 1337.5 126.16C1372.07 126.16 1405.22 112.868 1429.66 89.2086C1454.11 65.549 1467.84 33.4597 1467.84 1.52588e-05L1337.5 0H1207.16Z" fill="#C6A272"/>
<path fill-rule="evenodd" clip-rule="evenodd" d="M1249.51 84.8974C1227.68 63.7689 1214.85 35.6244 1213.32 6L1461.69 6.00002C1460.15 35.6244 1447.32 63.7689 1425.49 84.8974C1402.19 107.454 1370.54 120.16 1337.5 120.16C1304.46 120.16 1272.81 107.454 1249.51 84.8974ZM1467.69 6.00002C1467.79 4.00595 1467.84 2.00545 1467.84 1.52588e-05L1207.16 0C1207.16 2.00543 1207.21 4.00594 1207.31 6C1208.84 37.276 1222.36 66.9671 1245.34 89.2086C1269.78 112.868 1302.93 126.16 1337.5 126.16C1372.07 126.16 1405.22 112.868 1429.66 89.2086C1452.64 66.9671 1466.16 37.276 1467.69 6.00002Z" fill="#F3EDE1"/>
<path d="M1227.74 -7.62939e-06C1227.74 28.1766 1239.3 55.1991 1259.89 75.123C1280.47 95.0469 1308.39 106.24 1337.5 106.24C1366.61 106.24 1394.53 95.0469 1415.11 75.123C1435.7 55.1992 1447.26 28.1766 1447.26 7.62939e-06L1337.5 -7.62939e-06H1227.74Z" fill="#C6A272"/>
<path fill-rule="evenodd" clip-rule="evenodd" d="M1233.93 5.99999C1235.44 30.3383 1246.09 53.4206 1264.06 70.8118C1283.51 89.6331 1309.92 100.24 1337.5 100.24C1365.08 100.24 1391.49 89.6331 1410.94 70.8118C1428.91 53.4207 1439.56 30.3383 1441.07 6.00001L1233.93 5.99999ZM1227.92 5.99999C1229.43 31.9894 1240.77 56.618 1259.89 75.123C1280.47 95.0469 1308.39 106.24 1337.5 106.24C1366.61 106.24 1394.53 95.0469 1415.11 75.123C1434.23 56.618 1445.57 31.9894 1447.08 6.00001C1447.2 4.00729 1447.26 2.00658 1447.26 7.62939e-06L1227.74 -7.62939e-06C1227.74 2.00656 1227.8 4.00728 1227.92 5.99999Z" fill="#F3EDE1"/>
<path d="M1248.32 6.86646e-05C1248.32 22.8936 1257.72 44.8494 1274.44 61.0375C1291.16 77.2257 1313.85 86.3201 1337.5 86.3201C1361.15 86.3201 1383.84 77.2257 1400.56 61.0375C1417.28 44.8494 1426.68 22.8936 1426.68 8.39233e-05L1337.5 6.86646e-05H1248.32Z" fill="#C6A272"/>
<path fill-rule="evenodd" clip-rule="evenodd" d="M1254.55 6.00007C1256.03 25.0509 1264.51 43.0734 1278.61 56.7263C1294.2 71.8119 1315.38 80.3201 1337.5 80.3201C1359.62 80.3201 1380.8 71.8119 1396.39 56.7263C1410.49 43.0734 1418.97 25.0509 1420.45 6.00008L1254.55 6.00007ZM1248.54 6.00007C1250.02 26.7013 1259.18 46.2695 1274.44 61.0375C1291.16 77.2257 1313.85 86.3201 1337.5 86.3201C1361.15 86.3201 1383.84 77.2257 1400.56 61.0375C1415.82 46.2695 1424.98 26.7013 1426.46 6.00008C1426.61 4.00948 1426.68 2.00838 1426.68 8.39233e-05L1248.32 6.86646e-05C1248.32 2.00837 1248.39 4.00946 1248.54 6.00007Z" fill="#F3EDE1"/>
<path d="M1268.9 -9.91821e-05C1268.9 17.6103 1276.13 34.4994 1288.99 46.9518C1301.86 59.4042 1319.31 66.3999 1337.5 66.3999C1355.69 66.3999 1373.14 59.4042 1386.01 46.9518C1398.87 34.4994 1406.1 17.6103 1406.1 -9.15527e-05L1337.5 -9.91821e-05H1268.9Z" fill="#C6A272"/>
<path fill-rule="evenodd" clip-rule="evenodd" d="M1275.21 5.9999C1276.63 19.7607 1282.92 32.7277 1293.17 42.6406C1304.89 53.9904 1320.84 60.3999 1337.5 60.3999C1354.16 60.3999 1370.11 53.9904 1381.83 42.6406C1392.08 32.7277 1398.37 19.7607 1399.79 5.99991L1275.21 5.9999ZM1269.18 5.9999C1270.62 21.4102 1277.6 35.9215 1288.99 46.9518C1301.86 59.4042 1319.31 66.3999 1337.5 66.3999C1355.69 66.3999 1373.14 59.4042 1386.01 46.9518C1397.4 35.9216 1404.38 21.4102 1405.82 5.99991C1406.01 4.01301 1406.1 2.01116 1406.1 -9.15527e-05L1268.9 -9.91821e-05C1268.9 2.01115 1268.99 4.013 1269.18 5.9999Z" fill="#F3EDE1"/>
<path d="M1289.48 -1.90735e-05C1289.48 12.3272 1294.54 24.1496 1303.54 32.8663C1312.55 41.583 1324.76 46.48 1337.5 46.48C1350.24 46.48 1362.45 41.583 1371.46 32.8663C1380.46 24.1496 1385.52 12.3273 1385.52 -1.14441e-05L1337.5 -1.90735e-05H1289.48Z" fill="#C6A272"/>
<path fill-rule="evenodd" clip-rule="evenodd" d="M1295.94 5.99998C1297.26 14.4649 1301.35 22.387 1307.72 28.5551C1315.58 36.1692 1326.29 40.48 1337.5 40.48C1348.71 40.48 1359.42 36.1692 1367.28 28.5551C1373.65 22.387 1377.74 14.4649 1379.06 5.99999L1295.94 5.99998ZM1289.88 5.99998C1291.24 16.1135 1296.01 25.5761 1303.54 32.8663C1312.55 41.583 1324.76 46.48 1337.5 46.48C1350.24 46.48 1362.45 41.583 1371.46 32.8663C1378.99 25.5761 1383.76 16.1135 1385.12 5.99999C1385.38 4.02111 1385.52 2.01731 1385.52 -1.14441e-05L1289.48 -1.90735e-05C1289.48 2.0173 1289.62 4.0211 1289.88 5.99998Z" fill="#F3EDE1"/>
<path d="M624 0C624 44.0259 642.069 86.2487 674.231 117.38C706.394 148.511 750.015 166 795.5 166C840.985 166 884.606 148.511 916.769 117.38C948.931 86.2487 967 44.026 967 3.05176e-05L795.5 0H624Z" fill="#C6A272"/>
<path fill-rule="evenodd" clip-rule="evenodd" d="M678.404 113.069C648.854 84.4665 631.675 46.1945 630.116 6L960.884 6.00003C959.325 46.1945 942.145 84.4666 912.596 113.069C881.572 143.097 839.455 160 795.5 160C751.545 160 709.427 143.097 678.404 113.069ZM966.888 6.00003C966.963 4.00435 967 2.00406 967 3.05176e-05L624 0C624 2.00403 624.037 4.00432 624.112 6C625.674 47.8468 643.533 87.6658 674.231 117.38C706.394 148.511 750.015 166 795.5 166C840.985 166 884.606 148.511 916.769 117.38C947.467 87.6658 965.326 47.8469 966.888 6.00003Z" fill="#F3EDE1"/>
<path d="M644.58 0C644.58 38.7428 660.48 75.8988 688.783 103.294C717.086 130.689 755.473 146.08 795.5 146.08C835.526 146.08 873.914 130.689 902.217 103.294C930.52 75.8989 946.42 38.7428 946.42 1.52588e-05L795.5 0H644.58Z" fill="#C6A272"/>
<path fill-rule="evenodd" clip-rule="evenodd" d="M692.956 98.983C667.267 74.1176 652.26 40.9097 650.713 6L940.287 6.00002C938.74 40.9097 923.733 74.1176 898.044 98.983C870.88 125.276 833.997 140.08 795.5 140.08C757.003 140.08 720.12 125.276 692.956 98.983ZM946.293 6.00002C946.377 4.00502 946.42 2.00464 946.42 1.52588e-05L644.58 0C644.58 2.00462 644.623 4.005 644.707 6C646.259 42.5617 661.945 77.3163 688.783 103.294C717.086 130.689 755.474 146.08 795.5 146.08C835.526 146.08 873.914 130.689 902.217 103.294C929.055 77.3163 944.741 42.5618 946.293 6.00002Z" fill="#F3EDE1"/>
<path d="M665.16 0C665.16 33.4597 678.892 65.549 703.336 89.2086C727.779 112.868 760.932 126.16 795.5 126.16C830.068 126.16 863.221 112.868 887.664 89.2086C912.108 65.549 925.84 33.4597 925.84 1.52588e-05L795.5 0H665.16Z" fill="#C6A272"/>
<path fill-rule="evenodd" clip-rule="evenodd" d="M707.509 84.8974C685.68 63.7689 672.847 35.6244 671.315 6L919.685 6.00002C918.153 35.6244 905.32 63.7689 883.491 84.8974C860.187 107.454 828.539 120.16 795.5 120.16C762.461 120.16 730.813 107.454 707.509 84.8974ZM925.693 6.00002C925.791 4.00595 925.84 2.00545 925.84 1.52588e-05L665.16 0C665.16 2.00543 665.209 4.00594 665.307 6C666.845 37.276 680.357 66.9671 703.336 89.2086C727.779 112.868 760.932 126.16 795.5 126.16C830.068 126.16 863.221 112.868 887.664 89.2086C910.643 66.9671 924.155 37.276 925.693 6.00002Z" fill="#F3EDE1"/>
<path d="M685.74 -7.62939e-06C685.74 28.1766 697.304 55.1991 717.888 75.123C738.472 95.0469 766.39 106.24 795.5 106.24C824.61 106.24 852.528 95.0469 873.112 75.123C893.696 55.1992 905.26 28.1766 905.26 7.62939e-06L795.5 -7.62939e-06H685.74Z" fill="#C6A272"/>
<path fill-rule="evenodd" clip-rule="evenodd" d="M691.926 5.99999C693.436 30.3383 704.094 53.4206 722.061 70.8118C741.506 89.6331 767.919 100.24 795.5 100.24C823.081 100.24 849.494 89.6331 868.939 70.8118C886.906 53.4207 897.564 30.3383 899.074 6.00001L691.926 5.99999ZM685.915 5.99999C687.433 31.9894 698.77 56.618 717.888 75.123C738.472 95.0469 766.39 106.24 795.5 106.24C824.61 106.24 852.528 95.0469 873.112 75.123C892.23 56.618 903.567 31.9894 905.085 6.00001C905.201 4.00729 905.26 2.00658 905.26 7.62939e-06L685.74 -7.62939e-06C685.74 2.00656 685.799 4.00728 685.915 5.99999Z" fill="#F3EDE1"/>
<path d="M706.32 6.86646e-05C706.32 22.8936 715.716 44.8494 732.44 61.0375C749.165 77.2257 771.848 86.3201 795.5 86.3201C819.152 86.3201 841.835 77.2257 858.56 61.0375C875.284 44.8494 884.68 22.8936 884.68 8.39233e-05L795.5 6.86646e-05H706.32Z" fill="#C6A272"/>
<path fill-rule="evenodd" clip-rule="evenodd" d="M712.552 6.00007C714.03 25.0509 722.508 43.0734 736.613 56.7263C752.199 71.8119 773.377 80.3201 795.5 80.3201C817.623 80.3201 838.801 71.8119 854.387 56.7263C868.492 43.0734 876.97 25.0509 878.448 6.00008L712.552 6.00007ZM706.536 6.00007C708.025 26.7013 717.183 46.2695 732.44 61.0375C749.165 77.2257 771.848 86.3201 795.5 86.3201C819.152 86.3201 841.835 77.2257 858.56 61.0375C873.817 46.2695 882.975 26.7013 884.464 6.00008C884.608 4.00948 884.68 2.00838 884.68 8.39233e-05L706.32 6.86646e-05C706.32 2.00837 706.392 4.00946 706.536 6.00007Z" fill="#F3EDE1"/>
<path d="M726.9 -9.91821e-05C726.9 17.6103 734.127 34.4994 746.992 46.9518C759.857 59.4042 777.306 66.3999 795.5 66.3999C813.694 66.3999 831.142 59.4042 844.007 46.9518C856.872 34.4994 864.1 17.6103 864.1 -9.15527e-05L795.5 -9.91821e-05H726.9Z" fill="#C6A272"/>
<path fill-rule="evenodd" clip-rule="evenodd" d="M733.21 5.9999C734.633 19.7607 740.924 32.7277 751.165 42.6406C762.891 53.9904 778.835 60.3999 795.5 60.3999C812.164 60.3999 828.109 53.9904 839.835 42.6406C850.076 32.7277 856.367 19.7607 857.79 5.99991L733.21 5.9999ZM727.18 5.9999C728.624 21.4102 735.597 35.9215 746.992 46.9518C759.857 59.4042 777.306 66.3999 795.5 66.3999C813.694 66.3999 831.142 59.4042 844.007 46.9518C855.403 35.9216 862.376 21.4102 863.82 5.99991C864.006 4.01301 864.1 2.01116 864.1 -9.15527e-05L726.9 -9.91821e-05C726.9 2.01115 726.994 4.013 727.18 5.9999Z" fill="#F3EDE1"/>
<path d="M747.48 -1.90735e-05C747.48 12.3272 752.539 24.1496 761.545 32.8663C770.55 41.583 782.764 46.48 795.5 46.48C808.236 46.48 820.45 41.583 829.455 32.8663C838.461 24.1496 843.52 12.3273 843.52 -1.14441e-05L795.5 -1.90735e-05H747.48Z" fill="#C6A272"/>
<path fill-rule="evenodd" clip-rule="evenodd" d="M753.944 5.99998C755.261 14.4649 759.345 22.387 765.718 28.5551C773.584 36.1692 784.294 40.48 795.5 40.48C806.706 40.48 817.416 36.1692 825.282 28.5551C831.655 22.387 835.739 14.4649 837.056 5.99999L753.944 5.99998ZM747.882 5.99998C749.242 16.1135 754.013 25.5761 761.545 32.8663C770.55 41.583 782.764 46.48 795.5 46.48C808.236 46.48 820.45 41.583 829.455 32.8663C836.987 25.5761 841.758 16.1135 843.118 5.99999C843.385 4.02111 843.52 2.01731 843.52 -1.14441e-05L747.48 -1.90735e-05C747.48 2.0173 747.616 4.0211 747.882 5.99998Z" fill="#F3EDE1"/>
<path d="M0 0C0 44.0259 18.0687 86.2487 50.2312 117.38C82.3937 148.511 126.015 166 171.5 166C216.985 166 260.606 148.511 292.769 117.38C324.931 86.2487 343 44.026 343 3.05176e-05L171.5 0H0Z" fill="#C6A272"/>
<path fill-rule="evenodd" clip-rule="evenodd" d="M54.4041 113.069C24.8545 84.4665 7.67532 46.1945 6.1163 6L336.884 6.00003C335.325 46.1945 318.145 84.4666 288.596 113.069C257.572 143.097 215.455 160 171.5 160C127.545 160 85.4275 143.097 54.4041 113.069ZM342.888 6.00003C342.963 4.00435 343 2.00406 343 3.05176e-05L0 0C0 2.00403 0.0374451 4.00432 0.111938 6C1.67413 47.8468 19.5327 87.6658 50.2312 117.38C82.3937 148.511 126.015 166 171.5 166C216.985 166 260.606 148.511 292.769 117.38C323.467 87.6658 341.326 47.8469 342.888 6.00003Z" fill="#F3EDE1"/>
<path d="M20.58 0C20.58 38.7428 36.4805 75.8988 64.7835 103.294C93.0865 130.689 131.474 146.08 171.5 146.08C211.527 146.08 249.914 130.689 278.217 103.294C306.52 75.8989 322.42 38.7428 322.42 1.52588e-05L171.5 0H20.58Z" fill="#C6A272"/>
<path fill-rule="evenodd" clip-rule="evenodd" d="M68.9564 98.983C43.2672 74.1176 28.2603 40.9097 26.7129 6L316.287 6.00002C314.74 40.9097 299.733 74.1176 274.044 98.983C246.88 125.276 209.997 140.08 171.5 140.08C133.003 140.08 96.1203 125.276 68.9564 98.983ZM322.293 6.00002C322.377 4.00502 322.42 2.00464 322.42 1.52588e-05L20.58 0C20.58 2.00462 20.6226 4.005 20.7073 6C22.2587 42.5617 37.9449 77.3163 64.7835 103.294C93.0865 130.689 131.474 146.08 171.5 146.08C211.527 146.08 249.914 130.689 278.217 103.294C305.055 77.3163 320.741 42.5618 322.293 6.00002Z" fill="#F3EDE1"/>
<path d="M41.16 0C41.16 33.4597 54.8922 65.549 79.3357 89.2086C103.779 112.868 136.932 126.16 171.5 126.16C206.068 126.16 239.221 112.868 263.664 89.2086C288.108 65.549 301.84 33.4597 301.84 1.52588e-05L171.5 0H41.16Z" fill="#C6A272"/>
<path fill-rule="evenodd" clip-rule="evenodd" d="M83.5086 84.8974C61.6801 63.7689 48.8467 35.6244 47.315 6L295.685 6.00002C294.153 35.6244 281.32 63.7689 259.491 84.8974C236.187 107.454 204.539 120.16 171.5 120.16C138.461 120.16 106.813 107.454 83.5086 84.8974ZM301.693 6.00002C301.791 4.00595 301.84 2.00545 301.84 1.52588e-05L41.16 0C41.16 2.00543 41.2093 4.00594 41.3073 6C42.8445 37.276 56.3572 66.9671 79.3357 89.2086C103.779 112.868 136.932 126.16 171.5 126.16C206.068 126.16 239.221 112.868 263.664 89.2086C286.643 66.9671 300.155 37.276 301.693 6.00002Z" fill="#F3EDE1"/>
<path d="M61.74 -7.62939e-06C61.74 28.1766 73.304 55.1991 93.888 75.123C114.472 95.0469 142.39 106.24 171.5 106.24C200.61 106.24 228.528 95.0469 249.112 75.123C269.696 55.1992 281.26 28.1766 281.26 7.62939e-06L171.5 -7.62939e-06H61.74Z" fill="#C6A272"/>
<path fill-rule="evenodd" clip-rule="evenodd" d="M67.9259 5.99999C69.4359 30.3383 80.0935 53.4206 98.0609 70.8118C117.506 89.6331 143.919 100.24 171.5 100.24C199.081 100.24 225.494 89.6331 244.939 70.8118C262.906 53.4207 273.564 30.3383 275.074 6.00001L67.9259 5.99999ZM61.915 5.99999C63.4328 31.9894 74.7698 56.618 93.888 75.123C114.472 95.0469 142.39 106.24 171.5 106.24C200.61 106.24 228.528 95.0469 249.112 75.123C268.23 56.618 279.567 31.9894 281.085 6.00001C281.201 4.00729 281.26 2.00658 281.26 7.62939e-06L61.74 -7.62939e-06C61.74 2.00656 61.7986 4.00728 61.915 5.99999Z" fill="#F3EDE1"/>
<path d="M82.3201 6.86646e-05C82.3201 22.8936 91.7158 44.8494 108.44 61.0375C125.165 77.2257 147.848 86.3201 171.5 86.3201C195.152 86.3201 217.835 77.2257 234.56 61.0375C251.284 44.8494 260.68 22.8936 260.68 8.39233e-05L171.5 6.86646e-05H82.3201Z" fill="#C6A272"/>
<path fill-rule="evenodd" clip-rule="evenodd" d="M88.5524 6.00007C90.0299 25.0509 98.5079 43.0734 112.613 56.7263C128.199 71.8119 149.377 80.3201 171.5 80.3201C193.623 80.3201 214.802 71.8119 230.387 56.7263C244.492 43.0734 252.97 25.0509 254.448 6.00008L88.5524 6.00007ZM82.5356 6.00007C84.0249 26.7013 93.1829 46.2695 108.44 61.0375C125.165 77.2257 147.848 86.3201 171.5 86.3201C195.152 86.3201 217.835 77.2257 234.56 61.0375C249.817 46.2695 258.975 26.7013 260.465 6.00008C260.608 4.00948 260.68 2.00838 260.68 8.39233e-05L82.3201 6.86646e-05C82.3201 2.00837 82.3923 4.00946 82.5356 6.00007Z" fill="#F3EDE1"/>
<path d="M102.9 -9.91821e-05C102.9 17.6103 110.127 34.4994 122.992 46.9518C135.857 59.4042 153.306 66.3999 171.5 66.3999C189.694 66.3999 207.142 59.4042 220.007 46.9518C232.872 34.4994 240.1 17.6103 240.1 -9.15527e-05L171.5 -9.91821e-05H102.9Z" fill="#C6A272"/>
<path fill-rule="evenodd" clip-rule="evenodd" d="M109.21 5.9999C110.633 19.7607 116.924 32.7277 127.165 42.6406C138.891 53.9904 154.835 60.3999 171.5 60.3999C188.164 60.3999 204.109 53.9904 215.835 42.6406C226.076 32.7277 232.367 19.7607 233.79 5.99991L109.21 5.9999ZM103.18 5.9999C104.624 21.4102 111.597 35.9215 122.992 46.9518C135.857 59.4042 153.306 66.3999 171.5 66.3999C189.694 66.3999 207.142 59.4042 220.007 46.9518C231.403 35.9216 238.376 21.4102 239.82 5.99991C240.006 4.01301 240.1 2.01116 240.1 -9.15527e-05L102.9 -9.91821e-05C102.9 2.01115 102.994 4.013 103.18 5.9999Z" fill="#F3EDE1"/>
<path d="M123.48 -1.90735e-05C123.48 12.3272 128.539 24.1496 137.545 32.8663C146.55 41.583 158.764 46.48 171.5 46.48C184.236 46.48 196.45 41.583 205.455 32.8663C214.461 24.1496 219.52 12.3273 219.52 -1.14441e-05L171.5 -1.90735e-05H123.48Z" fill="#C6A272"/>
<path fill-rule="evenodd" clip-rule="evenodd" d="M129.944 5.99998C131.261 14.4649 135.345 22.387 141.718 28.5551C149.584 36.1692 160.294 40.48 171.5 40.48C182.706 40.48 193.416 36.1692 201.282 28.5551C207.655 22.387 211.739 14.4649 213.056 5.99999L129.944 5.99998ZM123.882 5.99998C125.242 16.1135 130.013 25.5761 137.545 32.8663C146.55 41.583 158.764 46.48 171.5 46.48C184.236 46.48 196.45 41.583 205.455 32.8663C212.987 25.5761 217.758 16.1135 219.118 5.99999C219.385 4.02111 219.52 2.01731 219.52 -1.14441e-05L123.48 -1.90735e-05C123.48 2.0173 123.616 4.0211 123.882 5.99998Z" fill="#F3EDE1"/>
<path d="M2321 0C2321 44.0259 2339.07 86.2487 2371.23 117.38C2403.39 148.511 2447.02 166 2492.5 166C2537.98 166 2581.61 148.511 2613.77 117.38C2645.93 86.2487 2664 44.026 2664 3.05176e-05L2492.5 0H2321Z" fill="#C6A272"/>
<path fill-rule="evenodd" clip-rule="evenodd" d="M2375.4 113.069C2345.85 84.4665 2328.68 46.1945 2327.12 6L2657.88 6.00003C2656.32 46.1945 2639.15 84.4666 2609.6 113.069C2578.57 143.097 2536.46 160 2492.5 160C2448.54 160 2406.43 143.097 2375.4 113.069ZM2663.89 6.00003C2663.96 4.00435 2664 2.00406 2664 3.05176e-05L2321 0C2321 2.00403 2321.04 4.00432 2321.11 6C2322.67 47.8468 2340.53 87.6658 2371.23 117.38C2403.39 148.511 2447.02 166 2492.5 166C2537.98 166 2581.61 148.511 2613.77 117.38C2644.47 87.6658 2662.33 47.8469 2663.89 6.00003Z" fill="#F3EDE1"/>
<path d="M2341.58 0C2341.58 38.7428 2357.48 75.8988 2385.78 103.294C2414.09 130.689 2452.47 146.08 2492.5 146.08C2532.53 146.08 2570.91 130.689 2599.22 103.294C2627.52 75.8989 2643.42 38.7428 2643.42 1.52588e-05L2492.5 0H2341.58Z" fill="#C6A272"/>
<path fill-rule="evenodd" clip-rule="evenodd" d="M2389.96 98.983C2364.27 74.1176 2349.26 40.9097 2347.71 6L2637.29 6.00002C2635.74 40.9097 2620.73 74.1176 2595.04 98.983C2567.88 125.276 2531 140.08 2492.5 140.08C2454 140.08 2417.12 125.276 2389.96 98.983ZM2643.29 6.00002C2643.38 4.00502 2643.42 2.00464 2643.42 1.52588e-05L2341.58 0C2341.58 2.00462 2341.62 4.005 2341.71 6C2343.26 42.5617 2358.94 77.3163 2385.78 103.294C2414.09 130.689 2452.47 146.08 2492.5 146.08C2532.53 146.08 2570.91 130.689 2599.22 103.294C2626.06 77.3163 2641.74 42.5618 2643.29 6.00002Z" fill="#F3EDE1"/>
<path d="M2362.16 0C2362.16 33.4597 2375.89 65.549 2400.34 89.2086C2424.78 112.868 2457.93 126.16 2492.5 126.16C2527.07 126.16 2560.22 112.868 2584.66 89.2086C2609.11 65.549 2622.84 33.4597 2622.84 1.52588e-05L2492.5 0H2362.16Z" fill="#C6A272"/>
<path fill-rule="evenodd" clip-rule="evenodd" d="M2404.51 84.8974C2382.68 63.7689 2369.85 35.6244 2368.32 6L2616.69 6.00002C2615.15 35.6244 2602.32 63.7689 2580.49 84.8974C2557.19 107.454 2525.54 120.16 2492.5 120.16C2459.46 120.16 2427.81 107.454 2404.51 84.8974ZM2622.69 6.00002C2622.79 4.00595 2622.84 2.00545 2622.84 1.52588e-05L2362.16 0C2362.16 2.00543 2362.21 4.00594 2362.31 6C2363.84 37.276 2377.36 66.9671 2400.34 89.2086C2424.78 112.868 2457.93 126.16 2492.5 126.16C2527.07 126.16 2560.22 112.868 2584.66 89.2086C2607.64 66.9671 2621.16 37.276 2622.69 6.00002Z" fill="#F3EDE1"/>
<path d="M2382.74 -7.62939e-06C2382.74 28.1766 2394.3 55.1991 2414.89 75.123C2435.47 95.0469 2463.39 106.24 2492.5 106.24C2521.61 106.24 2549.53 95.0469 2570.11 75.123C2590.7 55.1992 2602.26 28.1766 2602.26 7.62939e-06L2492.5 -7.62939e-06H2382.74Z" fill="#C6A272"/>
<path fill-rule="evenodd" clip-rule="evenodd" d="M2388.93 5.99999C2390.44 30.3383 2401.09 53.4206 2419.06 70.8118C2438.51 89.6331 2464.92 100.24 2492.5 100.24C2520.08 100.24 2546.49 89.6331 2565.94 70.8118C2583.91 53.4207 2594.56 30.3383 2596.07 6.00001L2388.93 5.99999ZM2382.92 5.99999C2384.43 31.9894 2395.77 56.618 2414.89 75.123C2435.47 95.0469 2463.39 106.24 2492.5 106.24C2521.61 106.24 2549.53 95.0469 2570.11 75.123C2589.23 56.618 2600.57 31.9894 2602.08 6.00001C2602.2 4.00729 2602.26 2.00658 2602.26 7.62939e-06L2382.74 -7.62939e-06C2382.74 2.00656 2382.8 4.00728 2382.92 5.99999Z" fill="#F3EDE1"/>
<path d="M2403.32 6.86646e-05C2403.32 22.8936 2412.72 44.8494 2429.44 61.0375C2446.16 77.2257 2468.85 86.3201 2492.5 86.3201C2516.15 86.3201 2538.84 77.2257 2555.56 61.0375C2572.28 44.8494 2581.68 22.8936 2581.68 8.39233e-05L2492.5 6.86646e-05H2403.32Z" fill="#C6A272"/>
<path fill-rule="evenodd" clip-rule="evenodd" d="M2409.55 6.00007C2411.03 25.0509 2419.51 43.0734 2433.61 56.7263C2449.2 71.8119 2470.38 80.3201 2492.5 80.3201C2514.62 80.3201 2535.8 71.8119 2551.39 56.7263C2565.49 43.0734 2573.97 25.0509 2575.45 6.00008L2409.55 6.00007ZM2403.54 6.00007C2405.02 26.7013 2414.18 46.2695 2429.44 61.0375C2446.16 77.2257 2468.85 86.3201 2492.5 86.3201C2516.15 86.3201 2538.84 77.2257 2555.56 61.0375C2570.82 46.2695 2579.98 26.7013 2581.46 6.00008C2581.61 4.00948 2581.68 2.00838 2581.68 8.39233e-05L2403.32 6.86646e-05C2403.32 2.00837 2403.39 4.00946 2403.54 6.00007Z" fill="#F3EDE1"/>
<path d="M2423.9 -9.91821e-05C2423.9 17.6103 2431.13 34.4994 2443.99 46.9518C2456.86 59.4042 2474.31 66.3999 2492.5 66.3999C2510.69 66.3999 2528.14 59.4042 2541.01 46.9518C2553.87 34.4994 2561.1 17.6103 2561.1 -9.15527e-05L2492.5 -9.91821e-05H2423.9Z" fill="#C6A272"/>
<path fill-rule="evenodd" clip-rule="evenodd" d="M2430.21 5.9999C2431.63 19.7607 2437.92 32.7277 2448.17 42.6406C2459.89 53.9904 2475.84 60.3999 2492.5 60.3999C2509.16 60.3999 2525.11 53.9904 2536.83 42.6406C2547.08 32.7277 2553.37 19.7607 2554.79 5.99991L2430.21 5.9999ZM2424.18 5.9999C2425.62 21.4102 2432.6 35.9215 2443.99 46.9518C2456.86 59.4042 2474.31 66.3999 2492.5 66.3999C2510.69 66.3999 2528.14 59.4042 2541.01 46.9518C2552.4 35.9216 2559.38 21.4102 2560.82 5.99991C2561.01 4.01301 2561.1 2.01116 2561.1 -9.15527e-05L2423.9 -9.91821e-05C2423.9 2.01115 2423.99 4.013 2424.18 5.9999Z" fill="#F3EDE1"/>
<path d="M2444.48 -1.90735e-05C2444.48 12.3272 2449.54 24.1496 2458.54 32.8663C2467.55 41.583 2479.76 46.48 2492.5 46.48C2505.24 46.48 2517.45 41.583 2526.46 32.8663C2535.46 24.1496 2540.52 12.3273 2540.52 -1.14441e-05L2492.5 -1.90735e-05H2444.48Z" fill="#C6A272"/>
<path fill-rule="evenodd" clip-rule="evenodd" d="M2450.94 5.99998C2452.26 14.4649 2456.35 22.387 2462.72 28.5551C2470.58 36.1692 2481.29 40.48 2492.5 40.48C2503.71 40.48 2514.42 36.1692 2522.28 28.5551C2528.65 22.387 2532.74 14.4649 2534.06 5.99999L2450.94 5.99998ZM2444.88 5.99998C2446.24 16.1135 2451.01 25.5761 2458.54 32.8663C2467.55 41.583 2479.76 46.48 2492.5 46.48C2505.24 46.48 2517.45 41.583 2526.46 32.8663C2533.99 25.5761 2538.76 16.1135 2540.12 5.99999C2540.38 4.02111 2540.52 2.01731 2540.52 -1.14441e-05L2444.48 -1.90735e-05C2444.48 2.0173 2444.62 4.0211 2444.88 5.99998Z" fill="#F3EDE1"/>
<path d="M2613 0C2613 44.0259 2631.07 86.2487 2663.23 117.38C2695.39 148.511 2739.02 166 2784.5 166C2829.98 166 2873.61 148.511 2905.77 117.38C2937.93 86.2487 2956 44.026 2956 3.05176e-05L2784.5 0H2613Z" fill="#C6A272"/>
<path fill-rule="evenodd" clip-rule="evenodd" d="M2667.4 113.069C2637.85 84.4665 2620.68 46.1945 2619.12 6L2949.88 6.00003C2948.32 46.1945 2931.15 84.4666 2901.6 113.069C2870.57 143.097 2828.46 160 2784.5 160C2740.54 160 2698.43 143.097 2667.4 113.069ZM2955.89 6.00003C2955.96 4.00435 2956 2.00406 2956 3.05176e-05L2613 0C2613 2.00403 2613.04 4.00432 2613.11 6C2614.67 47.8468 2632.53 87.6658 2663.23 117.38C2695.39 148.511 2739.02 166 2784.5 166C2829.98 166 2873.61 148.511 2905.77 117.38C2936.47 87.6658 2954.33 47.8469 2955.89 6.00003Z" fill="#F3EDE1"/>
<path d="M2633.58 0C2633.58 38.7428 2649.48 75.8988 2677.78 103.294C2706.09 130.689 2744.47 146.08 2784.5 146.08C2824.53 146.08 2862.91 130.689 2891.22 103.294C2919.52 75.8989 2935.42 38.7428 2935.42 1.52588e-05L2784.5 0H2633.58Z" fill="#C6A272"/>
<path fill-rule="evenodd" clip-rule="evenodd" d="M2681.96 98.983C2656.27 74.1176 2641.26 40.9097 2639.71 6L2929.29 6.00002C2927.74 40.9097 2912.73 74.1176 2887.04 98.983C2859.88 125.276 2823 140.08 2784.5 140.08C2746 140.08 2709.12 125.276 2681.96 98.983ZM2935.29 6.00002C2935.38 4.00502 2935.42 2.00464 2935.42 1.52588e-05L2633.58 0C2633.58 2.00462 2633.62 4.005 2633.71 6C2635.26 42.5617 2650.94 77.3163 2677.78 103.294C2706.09 130.689 2744.47 146.08 2784.5 146.08C2824.53 146.08 2862.91 130.689 2891.22 103.294C2918.06 77.3163 2933.74 42.5618 2935.29 6.00002Z" fill="#F3EDE1"/>
<path d="M2654.16 0C2654.16 33.4597 2667.89 65.549 2692.34 89.2086C2716.78 112.868 2749.93 126.16 2784.5 126.16C2819.07 126.16 2852.22 112.868 2876.66 89.2086C2901.11 65.549 2914.84 33.4597 2914.84 1.52588e-05L2784.5 0H2654.16Z" fill="#C6A272"/>
<path fill-rule="evenodd" clip-rule="evenodd" d="M2696.51 84.8974C2674.68 63.7689 2661.85 35.6244 2660.31 6L2908.68 6.00002C2907.15 35.6244 2894.32 63.7689 2872.49 84.8974C2849.19 107.454 2817.54 120.16 2784.5 120.16C2751.46 120.16 2719.81 107.454 2696.51 84.8974ZM2914.69 6.00002C2914.79 4.00595 2914.84 2.00545 2914.84 1.52588e-05L2654.16 0C2654.16 2.00543 2654.21 4.00594 2654.31 6C2655.84 37.276 2669.36 66.9671 2692.34 89.2086C2716.78 112.868 2749.93 126.16 2784.5 126.16C2819.07 126.16 2852.22 112.868 2876.66 89.2086C2899.64 66.9671 2913.16 37.276 2914.69 6.00002Z" fill="#F3EDE1"/>
<path d="M2674.74 -7.62939e-06C2674.74 28.1766 2686.3 55.1991 2706.89 75.123C2727.47 95.0469 2755.39 106.24 2784.5 106.24C2813.61 106.24 2841.53 95.0469 2862.11 75.123C2882.7 55.1992 2894.26 28.1766 2894.26 7.62939e-06L2784.5 -7.62939e-06H2674.74Z" fill="#C6A272"/>
<path fill-rule="evenodd" clip-rule="evenodd" d="M2680.93 5.99999C2682.44 30.3383 2693.09 53.4206 2711.06 70.8118C2730.51 89.6331 2756.92 100.24 2784.5 100.24C2812.08 100.24 2838.49 89.6331 2857.94 70.8118C2875.91 53.4207 2886.56 30.3383 2888.07 6.00001L2680.93 5.99999ZM2674.92 5.99999C2676.43 31.9894 2687.77 56.618 2706.89 75.123C2727.47 95.0469 2755.39 106.24 2784.5 106.24C2813.61 106.24 2841.53 95.0469 2862.11 75.123C2881.23 56.618 2892.57 31.9894 2894.08 6.00001C2894.2 4.00729 2894.26 2.00658 2894.26 7.62939e-06L2674.74 -7.62939e-06C2674.74 2.00656 2674.8 4.00728 2674.92 5.99999Z" fill="#F3EDE1"/>
<path d="M2695.32 6.86646e-05C2695.32 22.8936 2704.72 44.8494 2721.44 61.0375C2738.16 77.2257 2760.85 86.3201 2784.5 86.3201C2808.15 86.3201 2830.84 77.2257 2847.56 61.0375C2864.28 44.8494 2873.68 22.8936 2873.68 8.39233e-05L2784.5 6.86646e-05H2695.32Z" fill="#C6A272"/>
<path fill-rule="evenodd" clip-rule="evenodd" d="M2701.55 6.00007C2703.03 25.0509 2711.51 43.0734 2725.61 56.7263C2741.2 71.8119 2762.38 80.3201 2784.5 80.3201C2806.62 80.3201 2827.8 71.8119 2843.39 56.7263C2857.49 43.0734 2865.97 25.0509 2867.45 6.00008L2701.55 6.00007ZM2695.54 6.00007C2697.02 26.7013 2706.18 46.2695 2721.44 61.0375C2738.16 77.2257 2760.85 86.3201 2784.5 86.3201C2808.15 86.3201 2830.84 77.2257 2847.56 61.0375C2862.82 46.2695 2871.98 26.7013 2873.46 6.00008C2873.61 4.00948 2873.68 2.00838 2873.68 8.39233e-05L2695.32 6.86646e-05C2695.32 2.00837 2695.39 4.00946 2695.54 6.00007Z" fill="#F3EDE1"/>
<path d="M2715.9 -9.91821e-05C2715.9 17.6103 2723.13 34.4994 2735.99 46.9518C2748.86 59.4042 2766.31 66.3999 2784.5 66.3999C2802.69 66.3999 2820.14 59.4042 2833.01 46.9518C2845.87 34.4994 2853.1 17.6103 2853.1 -9.15527e-05L2784.5 -9.91821e-05H2715.9Z" fill="#C6A272"/>
<path fill-rule="evenodd" clip-rule="evenodd" d="M2722.21 5.9999C2723.63 19.7607 2729.92 32.7277 2740.17 42.6406C2751.89 53.9904 2767.84 60.3999 2784.5 60.3999C2801.16 60.3999 2817.11 53.9904 2828.83 42.6406C2839.08 32.7277 2845.37 19.7607 2846.79 5.99991L2722.21 5.9999ZM2716.18 5.9999C2717.62 21.4102 2724.6 35.9215 2735.99 46.9518C2748.86 59.4042 2766.31 66.3999 2784.5 66.3999C2802.69 66.3999 2820.14 59.4042 2833.01 46.9518C2844.4 35.9216 2851.38 21.4102 2852.82 5.99991C2853.01 4.01301 2853.1 2.01116 2853.1 -9.15527e-05L2715.9 -9.91821e-05C2715.9 2.01115 2715.99 4.013 2716.18 5.9999Z" fill="#F3EDE1"/>
<path d="M2736.48 -1.90735e-05C2736.48 12.3272 2741.54 24.1496 2750.54 32.8663C2759.55 41.583 2771.76 46.48 2784.5 46.48C2797.24 46.48 2809.45 41.583 2818.46 32.8663C2827.46 24.1496 2832.52 12.3273 2832.52 -1.14441e-05L2784.5 -1.90735e-05H2736.48Z" fill="#C6A272"/>
<path fill-rule="evenodd" clip-rule="evenodd" d="M2742.94 5.99998C2744.26 14.4649 2748.35 22.387 2754.72 28.5551C2762.58 36.1692 2773.29 40.48 2784.5 40.48C2795.71 40.48 2806.42 36.1692 2814.28 28.5551C2820.65 22.387 2824.74 14.4649 2826.06 5.99999L2742.94 5.99998ZM2736.88 5.99998C2738.24 16.1135 2743.01 25.5761 2750.54 32.8663C2759.55 41.583 2771.76 46.48 2784.5 46.48C2797.24 46.48 2809.45 41.583 2818.46 32.8663C2825.99 25.5761 2830.76 16.1135 2832.12 5.99999C2832.38 4.02111 2832.52 2.01731 2832.52 -1.14441e-05L2736.48 -1.90735e-05C2736.48 2.0173 2736.62 4.0211 2736.88 5.99998Z" fill="#F3EDE1"/>
<path d="M2030 0C2030 44.0259 2048.07 86.2487 2080.23 117.38C2112.39 148.511 2156.02 166 2201.5 166C2246.98 166 2290.61 148.511 2322.77 117.38C2354.93 86.2487 2373 44.026 2373 3.05176e-05L2201.5 0H2030Z" fill="#C6A272"/>
<path fill-rule="evenodd" clip-rule="evenodd" d="M2084.4 113.069C2054.85 84.4665 2037.68 46.1945 2036.12 6L2366.88 6.00003C2365.32 46.1945 2348.15 84.4666 2318.6 113.069C2287.57 143.097 2245.46 160 2201.5 160C2157.54 160 2115.43 143.097 2084.4 113.069ZM2372.89 6.00003C2372.96 4.00435 2373 2.00406 2373 3.05176e-05L2030 0C2030 2.00403 2030.04 4.00432 2030.11 6C2031.67 47.8468 2049.53 87.6658 2080.23 117.38C2112.39 148.511 2156.02 166 2201.5 166C2246.98 166 2290.61 148.511 2322.77 117.38C2353.47 87.6658 2371.33 47.8469 2372.89 6.00003Z" fill="#F3EDE1"/>
<path d="M2050.58 0C2050.58 38.7428 2066.48 75.8988 2094.78 103.294C2123.09 130.689 2161.47 146.08 2201.5 146.08C2241.53 146.08 2279.91 130.689 2308.22 103.294C2336.52 75.8989 2352.42 38.7428 2352.42 1.52588e-05L2201.5 0H2050.58Z" fill="#C6A272"/>
<path fill-rule="evenodd" clip-rule="evenodd" d="M2098.96 98.983C2073.27 74.1176 2058.26 40.9097 2056.71 6L2346.29 6.00002C2344.74 40.9097 2329.73 74.1176 2304.04 98.983C2276.88 125.276 2240 140.08 2201.5 140.08C2163 140.08 2126.12 125.276 2098.96 98.983ZM2352.29 6.00002C2352.38 4.00502 2352.42 2.00464 2352.42 1.52588e-05L2050.58 0C2050.58 2.00462 2050.62 4.005 2050.71 6C2052.26 42.5617 2067.94 77.3163 2094.78 103.294C2123.09 130.689 2161.47 146.08 2201.5 146.08C2241.53 146.08 2279.91 130.689 2308.22 103.294C2335.06 77.3163 2350.74 42.5618 2352.29 6.00002Z" fill="#F3EDE1"/>
<path d="M2071.16 0C2071.16 33.4597 2084.89 65.549 2109.34 89.2086C2133.78 112.868 2166.93 126.16 2201.5 126.16C2236.07 126.16 2269.22 112.868 2293.66 89.2086C2318.11 65.549 2331.84 33.4597 2331.84 1.52588e-05L2201.5 0H2071.16Z" fill="#C6A272"/>
<path fill-rule="evenodd" clip-rule="evenodd" d="M2113.51 84.8974C2091.68 63.7689 2078.85 35.6244 2077.32 6L2325.69 6.00002C2324.15 35.6244 2311.32 63.7689 2289.49 84.8974C2266.19 107.454 2234.54 120.16 2201.5 120.16C2168.46 120.16 2136.81 107.454 2113.51 84.8974ZM2331.69 6.00002C2331.79 4.00595 2331.84 2.00545 2331.84 1.52588e-05L2071.16 0C2071.16 2.00543 2071.21 4.00594 2071.31 6C2072.84 37.276 2086.36 66.9671 2109.34 89.2086C2133.78 112.868 2166.93 126.16 2201.5 126.16C2236.07 126.16 2269.22 112.868 2293.66 89.2086C2316.64 66.9671 2330.16 37.276 2331.69 6.00002Z" fill="#F3EDE1"/>
<path d="M2091.74 -7.62939e-06C2091.74 28.1766 2103.3 55.1991 2123.89 75.123C2144.47 95.0469 2172.39 106.24 2201.5 106.24C2230.61 106.24 2258.53 95.0469 2279.11 75.123C2299.7 55.1992 2311.26 28.1766 2311.26 7.62939e-06L2201.5 -7.62939e-06H2091.74Z" fill="#C6A272"/>
<path fill-rule="evenodd" clip-rule="evenodd" d="M2097.93 5.99999C2099.44 30.3383 2110.09 53.4206 2128.06 70.8118C2147.51 89.6331 2173.92 100.24 2201.5 100.24C2229.08 100.24 2255.49 89.6331 2274.94 70.8118C2292.91 53.4207 2303.56 30.3383 2305.07 6.00001L2097.93 5.99999ZM2091.92 5.99999C2093.43 31.9894 2104.77 56.618 2123.89 75.123C2144.47 95.0469 2172.39 106.24 2201.5 106.24C2230.61 106.24 2258.53 95.0469 2279.11 75.123C2298.23 56.618 2309.57 31.9894 2311.08 6.00001C2311.2 4.00729 2311.26 2.00658 2311.26 7.62939e-06L2091.74 -7.62939e-06C2091.74 2.00656 2091.8 4.00728 2091.92 5.99999Z" fill="#F3EDE1"/>
<path d="M2112.32 6.86646e-05C2112.32 22.8936 2121.72 44.8494 2138.44 61.0375C2155.16 77.2257 2177.85 86.3201 2201.5 86.3201C2225.15 86.3201 2247.84 77.2257 2264.56 61.0375C2281.28 44.8494 2290.68 22.8936 2290.68 8.39233e-05L2201.5 6.86646e-05H2112.32Z" fill="#C6A272"/>
<path fill-rule="evenodd" clip-rule="evenodd" d="M2118.55 6.00007C2120.03 25.0509 2128.51 43.0734 2142.61 56.7263C2158.2 71.8119 2179.38 80.3201 2201.5 80.3201C2223.62 80.3201 2244.8 71.8119 2260.39 56.7263C2274.49 43.0734 2282.97 25.0509 2284.45 6.00008L2118.55 6.00007ZM2112.54 6.00007C2114.02 26.7013 2123.18 46.2695 2138.44 61.0375C2155.16 77.2257 2177.85 86.3201 2201.5 86.3201C2225.15 86.3201 2247.84 77.2257 2264.56 61.0375C2279.82 46.2695 2288.98 26.7013 2290.46 6.00008C2290.61 4.00948 2290.68 2.00838 2290.68 8.39233e-05L2112.32 6.86646e-05C2112.32 2.00837 2112.39 4.00946 2112.54 6.00007Z" fill="#F3EDE1"/>
<path d="M2132.9 -9.91821e-05C2132.9 17.6103 2140.13 34.4994 2152.99 46.9518C2165.86 59.4042 2183.31 66.3999 2201.5 66.3999C2219.69 66.3999 2237.14 59.4042 2250.01 46.9518C2262.87 34.4994 2270.1 17.6103 2270.1 -9.15527e-05L2201.5 -9.91821e-05H2132.9Z" fill="#C6A272"/>
<path fill-rule="evenodd" clip-rule="evenodd" d="M2139.21 5.9999C2140.63 19.7607 2146.92 32.7277 2157.17 42.6406C2168.89 53.9904 2184.84 60.3999 2201.5 60.3999C2218.16 60.3999 2234.11 53.9904 2245.83 42.6406C2256.08 32.7277 2262.37 19.7607 2263.79 5.99991L2139.21 5.9999ZM2133.18 5.9999C2134.62 21.4102 2141.6 35.9215 2152.99 46.9518C2165.86 59.4042 2183.31 66.3999 2201.5 66.3999C2219.69 66.3999 2237.14 59.4042 2250.01 46.9518C2261.4 35.9216 2268.38 21.4102 2269.82 5.99991C2270.01 4.01301 2270.1 2.01116 2270.1 -9.15527e-05L2132.9 -9.91821e-05C2132.9 2.01115 2132.99 4.013 2133.18 5.9999Z" fill="#F3EDE1"/>
<path d="M2153.48 -1.90735e-05C2153.48 12.3272 2158.54 24.1496 2167.54 32.8663C2176.55 41.583 2188.76 46.48 2201.5 46.48C2214.24 46.48 2226.45 41.583 2235.46 32.8663C2244.46 24.1496 2249.52 12.3273 2249.52 -1.14441e-05L2201.5 -1.90735e-05H2153.48Z" fill="#C6A272"/>
<path fill-rule="evenodd" clip-rule="evenodd" d="M2159.94 5.99998C2161.26 14.4649 2165.35 22.387 2171.72 28.5551C2179.58 36.1692 2190.29 40.48 2201.5 40.48C2212.71 40.48 2223.42 36.1692 2231.28 28.5551C2237.65 22.387 2241.74 14.4649 2243.06 5.99999L2159.94 5.99998ZM2153.88 5.99998C2155.24 16.1135 2160.01 25.5761 2167.54 32.8663C2176.55 41.583 2188.76 46.48 2201.5 46.48C2214.24 46.48 2226.45 41.583 2235.46 32.8663C2242.99 25.5761 2247.76 16.1135 2249.12 5.99999C2249.38 4.02111 2249.52 2.01731 2249.52 -1.14441e-05L2153.48 -1.90735e-05C2153.48 2.0173 2153.62 4.0211 2153.88 5.99998Z" fill="#F3EDE1"/>
<path d="M1468 0C1468 44.0259 1486.07 86.2487 1518.23 117.38C1550.39 148.511 1594.02 166 1639.5 166C1684.98 166 1728.61 148.511 1760.77 117.38C1792.93 86.2487 1811 44.026 1811 3.05176e-05L1639.5 0H1468Z" fill="#C6A272"/>
<path fill-rule="evenodd" clip-rule="evenodd" d="M1522.4 113.069C1492.85 84.4665 1475.68 46.1945 1474.12 6L1804.88 6.00003C1803.32 46.1945 1786.15 84.4666 1756.6 113.069C1725.57 143.097 1683.46 160 1639.5 160C1595.54 160 1553.43 143.097 1522.4 113.069ZM1810.89 6.00003C1810.96 4.00435 1811 2.00406 1811 3.05176e-05L1468 0C1468 2.00403 1468.04 4.00432 1468.11 6C1469.67 47.8468 1487.53 87.6658 1518.23 117.38C1550.39 148.511 1594.02 166 1639.5 166C1684.98 166 1728.61 148.511 1760.77 117.38C1791.47 87.6658 1809.33 47.8469 1810.89 6.00003Z" fill="#F3EDE1"/>
<path d="M1488.58 0C1488.58 38.7428 1504.48 75.8988 1532.78 103.294C1561.09 130.689 1599.47 146.08 1639.5 146.08C1679.53 146.08 1717.91 130.689 1746.22 103.294C1774.52 75.8989 1790.42 38.7428 1790.42 1.52588e-05L1639.5 0H1488.58Z" fill="#C6A272"/>
<path fill-rule="evenodd" clip-rule="evenodd" d="M1536.96 98.983C1511.27 74.1176 1496.26 40.9097 1494.71 6L1784.29 6.00002C1782.74 40.9097 1767.73 74.1176 1742.04 98.983C1714.88 125.276 1678 140.08 1639.5 140.08C1601 140.08 1564.12 125.276 1536.96 98.983ZM1790.29 6.00002C1790.38 4.00502 1790.42 2.00464 1790.42 1.52588e-05L1488.58 0C1488.58 2.00462 1488.62 4.005 1488.71 6C1490.26 42.5617 1505.94 77.3163 1532.78 103.294C1561.09 130.689 1599.47 146.08 1639.5 146.08C1679.53 146.08 1717.91 130.689 1746.22 103.294C1773.06 77.3163 1788.74 42.5618 1790.29 6.00002Z" fill="#F3EDE1"/>
<path d="M1509.16 0C1509.16 33.4597 1522.89 65.549 1547.34 89.2086C1571.78 112.868 1604.93 126.16 1639.5 126.16C1674.07 126.16 1707.22 112.868 1731.66 89.2086C1756.11 65.549 1769.84 33.4597 1769.84 1.52588e-05L1639.5 0H1509.16Z" fill="#C6A272"/>
<path fill-rule="evenodd" clip-rule="evenodd" d="M1551.51 84.8974C1529.68 63.7689 1516.85 35.6244 1515.32 6L1763.69 6.00002C1762.15 35.6244 1749.32 63.7689 1727.49 84.8974C1704.19 107.454 1672.54 120.16 1639.5 120.16C1606.46 120.16 1574.81 107.454 1551.51 84.8974ZM1769.69 6.00002C1769.79 4.00595 1769.84 2.00545 1769.84 1.52588e-05L1509.16 0C1509.16 2.00543 1509.21 4.00594 1509.31 6C1510.84 37.276 1524.36 66.9671 1547.34 89.2086C1571.78 112.868 1604.93 126.16 1639.5 126.16C1674.07 126.16 1707.22 112.868 1731.66 89.2086C1754.64 66.9671 1768.16 37.276 1769.69 6.00002Z" fill="#F3EDE1"/>
<path d="M1529.74 -7.62939e-06C1529.74 28.1766 1541.3 55.1991 1561.89 75.123C1582.47 95.0469 1610.39 106.24 1639.5 106.24C1668.61 106.24 1696.53 95.0469 1717.11 75.123C1737.7 55.1992 1749.26 28.1766 1749.26 7.62939e-06L1639.5 -7.62939e-06H1529.74Z" fill="#C6A272"/>
<path fill-rule="evenodd" clip-rule="evenodd" d="M1535.93 5.99999C1537.44 30.3383 1548.09 53.4206 1566.06 70.8118C1585.51 89.6331 1611.92 100.24 1639.5 100.24C1667.08 100.24 1693.49 89.6331 1712.94 70.8118C1730.91 53.4207 1741.56 30.3383 1743.07 6.00001L1535.93 5.99999ZM1529.92 5.99999C1531.43 31.9894 1542.77 56.618 1561.89 75.123C1582.47 95.0469 1610.39 106.24 1639.5 106.24C1668.61 106.24 1696.53 95.0469 1717.11 75.123C1736.23 56.618 1747.57 31.9894 1749.08 6.00001C1749.2 4.00729 1749.26 2.00658 1749.26 7.62939e-06L1529.74 -7.62939e-06C1529.74 2.00656 1529.8 4.00728 1529.92 5.99999Z" fill="#F3EDE1"/>
<path d="M1550.32 6.86646e-05C1550.32 22.8936 1559.72 44.8494 1576.44 61.0375C1593.16 77.2257 1615.85 86.3201 1639.5 86.3201C1663.15 86.3201 1685.84 77.2257 1702.56 61.0375C1719.28 44.8494 1728.68 22.8936 1728.68 8.39233e-05L1639.5 6.86646e-05H1550.32Z" fill="#C6A272"/>
<path fill-rule="evenodd" clip-rule="evenodd" d="M1556.55 6.00007C1558.03 25.0509 1566.51 43.0734 1580.61 56.7263C1596.2 71.8119 1617.38 80.3201 1639.5 80.3201C1661.62 80.3201 1682.8 71.8119 1698.39 56.7263C1712.49 43.0734 1720.97 25.0509 1722.45 6.00008L1556.55 6.00007ZM1550.54 6.00007C1552.02 26.7013 1561.18 46.2695 1576.44 61.0375C1593.16 77.2257 1615.85 86.3201 1639.5 86.3201C1663.15 86.3201 1685.84 77.2257 1702.56 61.0375C1717.82 46.2695 1726.98 26.7013 1728.46 6.00008C1728.61 4.00948 1728.68 2.00838 1728.68 8.39233e-05L1550.32 6.86646e-05C1550.32 2.00837 1550.39 4.00946 1550.54 6.00007Z" fill="#F3EDE1"/>
<path d="M1570.9 -9.91821e-05C1570.9 17.6103 1578.13 34.4994 1590.99 46.9518C1603.86 59.4042 1621.31 66.3999 1639.5 66.3999C1657.69 66.3999 1675.14 59.4042 1688.01 46.9518C1700.87 34.4994 1708.1 17.6103 1708.1 -9.15527e-05L1639.5 -9.91821e-05H1570.9Z" fill="#C6A272"/>
<path fill-rule="evenodd" clip-rule="evenodd" d="M1577.21 5.9999C1578.63 19.7607 1584.92 32.7277 1595.17 42.6406C1606.89 53.9904 1622.84 60.3999 1639.5 60.3999C1656.16 60.3999 1672.11 53.9904 1683.83 42.6406C1694.08 32.7277 1700.37 19.7607 1701.79 5.99991L1577.21 5.9999ZM1571.18 5.9999C1572.62 21.4102 1579.6 35.9215 1590.99 46.9518C1603.86 59.4042 1621.31 66.3999 1639.5 66.3999C1657.69 66.3999 1675.14 59.4042 1688.01 46.9518C1699.4 35.9216 1706.38 21.4102 1707.82 5.99991C1708.01 4.01301 1708.1 2.01116 1708.1 -9.15527e-05L1570.9 -9.91821e-05C1570.9 2.01115 1570.99 4.013 1571.18 5.9999Z" fill="#F3EDE1"/>
<path d="M1591.48 -1.90735e-05C1591.48 12.3272 1596.54 24.1496 1605.54 32.8663C1614.55 41.583 1626.76 46.48 1639.5 46.48C1652.24 46.48 1664.45 41.583 1673.46 32.8663C1682.46 24.1496 1687.52 12.3273 1687.52 -1.14441e-05L1639.5 -1.90735e-05H1591.48Z" fill="#C6A272"/>
<path fill-rule="evenodd" clip-rule="evenodd" d="M1597.94 5.99998C1599.26 14.4649 1603.35 22.387 1609.72 28.5551C1617.58 36.1692 1628.29 40.48 1639.5 40.48C1650.71 40.48 1661.42 36.1692 1669.28 28.5551C1675.65 22.387 1679.74 14.4649 1681.06 5.99999L1597.94 5.99998ZM1591.88 5.99998C1593.24 16.1135 1598.01 25.5761 1605.54 32.8663C1614.55 41.583 1626.76 46.48 1639.5 46.48C1652.24 46.48 1664.45 41.583 1673.46 32.8663C1680.99 25.5761 1685.76 16.1135 1687.12 5.99999C1687.38 4.02111 1687.52 2.01731 1687.52 -1.14441e-05L1591.48 -1.90735e-05C1591.48 2.0173 1591.62 4.0211 1591.88 5.99998Z" fill="#F3EDE1"/>
<path d="M905 0C905 44.0259 923.069 86.2487 955.231 117.38C987.394 148.511 1031.02 166 1076.5 166C1121.98 166 1165.61 148.511 1197.77 117.38C1229.93 86.2487 1248 44.026 1248 3.05176e-05L1076.5 0H905Z" fill="#C6A272"/>
<path fill-rule="evenodd" clip-rule="evenodd" d="M959.404 113.069C929.854 84.4665 912.675 46.1945 911.116 6L1241.88 6.00003C1240.32 46.1945 1223.15 84.4666 1193.6 113.069C1162.57 143.097 1120.46 160 1076.5 160C1032.54 160 990.427 143.097 959.404 113.069ZM1247.89 6.00003C1247.96 4.00435 1248 2.00406 1248 3.05176e-05L905 0C905 2.00403 905.037 4.00432 905.112 6C906.674 47.8468 924.533 87.6658 955.231 117.38C987.394 148.511 1031.02 166 1076.5 166C1121.98 166 1165.61 148.511 1197.77 117.38C1228.47 87.6658 1246.33 47.8469 1247.89 6.00003Z" fill="#F3EDE1"/>
<path d="M925.58 0C925.58 38.7428 941.48 75.8988 969.783 103.294C998.086 130.689 1036.47 146.08 1076.5 146.08C1116.53 146.08 1154.91 130.689 1183.22 103.294C1211.52 75.8989 1227.42 38.7428 1227.42 1.52588e-05L1076.5 0H925.58Z" fill="#C6A272"/>
<path fill-rule="evenodd" clip-rule="evenodd" d="M973.956 98.983C948.267 74.1176 933.26 40.9097 931.713 6L1221.29 6.00002C1219.74 40.9097 1204.73 74.1176 1179.04 98.983C1151.88 125.276 1115 140.08 1076.5 140.08C1038 140.08 1001.12 125.276 973.956 98.983ZM1227.29 6.00002C1227.38 4.00502 1227.42 2.00464 1227.42 1.52588e-05L925.58 0C925.58 2.00462 925.623 4.005 925.707 6C927.259 42.5617 942.945 77.3163 969.783 103.294C998.086 130.689 1036.47 146.08 1076.5 146.08C1116.53 146.08 1154.91 130.689 1183.22 103.294C1210.06 77.3163 1225.74 42.5618 1227.29 6.00002Z" fill="#F3EDE1"/>
<path d="M946.16 0C946.16 33.4597 959.892 65.549 984.336 89.2086C1008.78 112.868 1041.93 126.16 1076.5 126.16C1111.07 126.16 1144.22 112.868 1168.66 89.2086C1193.11 65.549 1206.84 33.4597 1206.84 1.52588e-05L1076.5 0H946.16Z" fill="#C6A272"/>
<path fill-rule="evenodd" clip-rule="evenodd" d="M988.509 84.8974C966.68 63.7689 953.847 35.6244 952.315 6L1200.69 6.00002C1199.15 35.6244 1186.32 63.7689 1164.49 84.8974C1141.19 107.454 1109.54 120.16 1076.5 120.16C1043.46 120.16 1011.81 107.454 988.509 84.8974ZM1206.69 6.00002C1206.79 4.00595 1206.84 2.00545 1206.84 1.52588e-05L946.16 0C946.16 2.00543 946.209 4.00594 946.307 6C947.845 37.276 961.357 66.9671 984.336 89.2086C1008.78 112.868 1041.93 126.16 1076.5 126.16C1111.07 126.16 1144.22 112.868 1168.66 89.2086C1191.64 66.9671 1205.16 37.276 1206.69 6.00002Z" fill="#F3EDE1"/>
<path d="M966.74 -7.62939e-06C966.74 28.1766 978.304 55.1991 998.888 75.123C1019.47 95.0469 1047.39 106.24 1076.5 106.24C1105.61 106.24 1133.53 95.0469 1154.11 75.123C1174.7 55.1992 1186.26 28.1766 1186.26 7.62939e-06L1076.5 -7.62939e-06H966.74Z" fill="#C6A272"/>
<path fill-rule="evenodd" clip-rule="evenodd" d="M972.926 5.99999C974.436 30.3383 985.094 53.4206 1003.06 70.8118C1022.51 89.6331 1048.92 100.24 1076.5 100.24C1104.08 100.24 1130.49 89.6331 1149.94 70.8118C1167.91 53.4207 1178.56 30.3383 1180.07 6.00001L972.926 5.99999ZM966.915 5.99999C968.433 31.9894 979.77 56.618 998.888 75.123C1019.47 95.0469 1047.39 106.24 1076.5 106.24C1105.61 106.24 1133.53 95.0469 1154.11 75.123C1173.23 56.618 1184.57 31.9894 1186.08 6.00001C1186.2 4.00729 1186.26 2.00658 1186.26 7.62939e-06L966.74 -7.62939e-06C966.74 2.00656 966.799 4.00728 966.915 5.99999Z" fill="#F3EDE1"/>
<path d="M987.32 6.86646e-05C987.32 22.8936 996.716 44.8494 1013.44 61.0375C1030.16 77.2257 1052.85 86.3201 1076.5 86.3201C1100.15 86.3201 1122.84 77.2257 1139.56 61.0375C1156.28 44.8494 1165.68 22.8936 1165.68 8.39233e-05L1076.5 6.86646e-05H987.32Z" fill="#C6A272"/>
<path fill-rule="evenodd" clip-rule="evenodd" d="M993.552 6.00007C995.03 25.0509 1003.51 43.0734 1017.61 56.7263C1033.2 71.8119 1054.38 80.3201 1076.5 80.3201C1098.62 80.3201 1119.8 71.8119 1135.39 56.7263C1149.49 43.0734 1157.97 25.0509 1159.45 6.00008L993.552 6.00007ZM987.536 6.00007C989.025 26.7013 998.183 46.2695 1013.44 61.0375C1030.16 77.2257 1052.85 86.3201 1076.5 86.3201C1100.15 86.3201 1122.84 77.2257 1139.56 61.0375C1154.82 46.2695 1163.98 26.7013 1165.46 6.00008C1165.61 4.00948 1165.68 2.00838 1165.68 8.39233e-05L987.32 6.86646e-05C987.32 2.00837 987.392 4.00946 987.536 6.00007Z" fill="#F3EDE1"/>
<path d="M1007.9 -9.91821e-05C1007.9 17.6103 1015.13 34.4994 1027.99 46.9518C1040.86 59.4042 1058.31 66.3999 1076.5 66.3999C1094.69 66.3999 1112.14 59.4042 1125.01 46.9518C1137.87 34.4994 1145.1 17.6103 1145.1 -9.15527e-05L1076.5 -9.91821e-05H1007.9Z" fill="#C6A272"/>
<path fill-rule="evenodd" clip-rule="evenodd" d="M1014.21 5.9999C1015.63 19.7607 1021.92 32.7277 1032.17 42.6406C1043.89 53.9904 1059.84 60.3999 1076.5 60.3999C1093.16 60.3999 1109.11 53.9904 1120.83 42.6406C1131.08 32.7277 1137.37 19.7607 1138.79 5.99991L1014.21 5.9999ZM1008.18 5.9999C1009.62 21.4102 1016.6 35.9215 1027.99 46.9518C1040.86 59.4042 1058.31 66.3999 1076.5 66.3999C1094.69 66.3999 1112.14 59.4042 1125.01 46.9518C1136.4 35.9216 1143.38 21.4102 1144.82 5.99991C1145.01 4.01301 1145.1 2.01116 1145.1 -9.15527e-05L1007.9 -9.91821e-05C1007.9 2.01115 1007.99 4.013 1008.18 5.9999Z" fill="#F3EDE1"/>
<path d="M1028.48 -1.90735e-05C1028.48 12.3272 1033.54 24.1496 1042.54 32.8663C1051.55 41.583 1063.76 46.48 1076.5 46.48C1089.24 46.48 1101.45 41.583 1110.46 32.8663C1119.46 24.1496 1124.52 12.3273 1124.52 -1.14441e-05L1076.5 -1.90735e-05H1028.48Z" fill="#C6A272"/>
<path fill-rule="evenodd" clip-rule="evenodd" d="M1034.94 5.99998C1036.26 14.4649 1040.35 22.387 1046.72 28.5551C1054.58 36.1692 1065.29 40.48 1076.5 40.48C1087.71 40.48 1098.42 36.1692 1106.28 28.5551C1112.65 22.387 1116.74 14.4649 1118.06 5.99999L1034.94 5.99998ZM1028.88 5.99998C1030.24 16.1135 1035.01 25.5761 1042.54 32.8663C1051.55 41.583 1063.76 46.48 1076.5 46.48C1089.24 46.48 1101.45 41.583 1110.46 32.8663C1117.99 25.5761 1122.76 16.1135 1124.12 5.99999C1124.38 4.02111 1124.52 2.01731 1124.52 -1.14441e-05L1028.48 -1.90735e-05C1028.48 2.0173 1028.62 4.0211 1028.88 5.99998Z" fill="#F3EDE1"/>
<path d="M322 0C322 44.0259 340.069 86.2487 372.231 117.38C404.394 148.511 448.015 166 493.5 166C538.985 166 582.606 148.511 614.769 117.38C646.931 86.2487 665 44.026 665 3.05176e-05L493.5 0H322Z" fill="#C6A272"/>
<path fill-rule="evenodd" clip-rule="evenodd" d="M376.404 113.069C346.854 84.4665 329.675 46.1945 328.116 6L658.884 6.00003C657.325 46.1945 640.145 84.4666 610.596 113.069C579.572 143.097 537.455 160 493.5 160C449.545 160 407.427 143.097 376.404 113.069ZM664.888 6.00003C664.963 4.00435 665 2.00406 665 3.05176e-05L322 0C322 2.00403 322.037 4.00432 322.112 6C323.674 47.8468 341.533 87.6658 372.231 117.38C404.394 148.511 448.015 166 493.5 166C538.985 166 582.606 148.511 614.769 117.38C645.467 87.6658 663.326 47.8469 664.888 6.00003Z" fill="#F3EDE1"/>
<path d="M342.58 0C342.58 38.7428 358.48 75.8988 386.783 103.294C415.086 130.689 453.474 146.08 493.5 146.08C533.527 146.08 571.914 130.689 600.217 103.294C628.52 75.8989 644.42 38.7428 644.42 1.52588e-05L493.5 0H342.58Z" fill="#C6A272"/>
<path fill-rule="evenodd" clip-rule="evenodd" d="M390.956 98.983C365.267 74.1176 350.26 40.9097 348.713 6L638.287 6.00002C636.74 40.9097 621.733 74.1176 596.044 98.983C568.88 125.276 531.997 140.08 493.5 140.08C455.003 140.08 418.12 125.276 390.956 98.983ZM644.293 6.00002C644.377 4.00502 644.42 2.00464 644.42 1.52588e-05L342.58 0C342.58 2.00462 342.623 4.005 342.707 6C344.259 42.5617 359.945 77.3163 386.783 103.294C415.086 130.689 453.474 146.08 493.5 146.08C533.527 146.08 571.914 130.689 600.217 103.294C627.055 77.3163 642.741 42.5618 644.293 6.00002Z" fill="#F3EDE1"/>
<path d="M363.16 0C363.16 33.4597 376.892 65.549 401.336 89.2086C425.779 112.868 458.932 126.16 493.5 126.16C528.068 126.16 561.221 112.868 585.664 89.2086C610.108 65.549 623.84 33.4597 623.84 1.52588e-05L493.5 0H363.16Z" fill="#C6A272"/>
<path fill-rule="evenodd" clip-rule="evenodd" d="M405.509 84.8974C383.68 63.7689 370.847 35.6244 369.315 6L617.685 6.00002C616.153 35.6244 603.32 63.7689 581.491 84.8974C558.187 107.454 526.539 120.16 493.5 120.16C460.461 120.16 428.813 107.454 405.509 84.8974ZM623.693 6.00002C623.791 4.00595 623.84 2.00545 623.84 1.52588e-05L363.16 0C363.16 2.00543 363.209 4.00594 363.307 6C364.845 37.276 378.357 66.9671 401.336 89.2086C425.779 112.868 458.932 126.16 493.5 126.16C528.068 126.16 561.221 112.868 585.664 89.2086C608.643 66.9671 622.155 37.276 623.693 6.00002Z" fill="#F3EDE1"/>
<path d="M383.74 -7.62939e-06C383.74 28.1766 395.304 55.1991 415.888 75.123C436.472 95.0469 464.39 106.24 493.5 106.24C522.61 106.24 550.528 95.0469 571.112 75.123C591.696 55.1992 603.26 28.1766 603.26 7.62939e-06L493.5 -7.62939e-06H383.74Z" fill="#C6A272"/>
<path fill-rule="evenodd" clip-rule="evenodd" d="M389.926 5.99999C391.436 30.3383 402.094 53.4206 420.061 70.8118C439.506 89.6331 465.919 100.24 493.5 100.24C521.081 100.24 547.494 89.6331 566.939 70.8118C584.906 53.4207 595.564 30.3383 597.074 6.00001L389.926 5.99999ZM383.915 5.99999C385.433 31.9894 396.77 56.618 415.888 75.123C436.472 95.0469 464.39 106.24 493.5 106.24C522.61 106.24 550.528 95.0469 571.112 75.123C590.23 56.618 601.567 31.9894 603.085 6.00001C603.201 4.00729 603.26 2.00658 603.26 7.62939e-06L383.74 -7.62939e-06C383.74 2.00656 383.799 4.00728 383.915 5.99999Z" fill="#F3EDE1"/>
<path d="M404.32 6.86646e-05C404.32 22.8936 413.716 44.8494 430.44 61.0375C447.165 77.2257 469.848 86.3201 493.5 86.3201C517.152 86.3201 539.835 77.2257 556.56 61.0375C573.284 44.8494 582.68 22.8936 582.68 8.39233e-05L493.5 6.86646e-05H404.32Z" fill="#C6A272"/>
<path fill-rule="evenodd" clip-rule="evenodd" d="M410.552 6.00007C412.03 25.0509 420.508 43.0734 434.613 56.7263C450.199 71.8119 471.377 80.3201 493.5 80.3201C515.623 80.3201 536.802 71.8119 552.387 56.7263C566.492 43.0734 574.97 25.0509 576.448 6.00008L410.552 6.00007ZM404.536 6.00007C406.025 26.7013 415.183 46.2695 430.44 61.0375C447.165 77.2257 469.848 86.3201 493.5 86.3201C517.152 86.3201 539.835 77.2257 556.56 61.0375C571.817 46.2695 580.975 26.7013 582.465 6.00008C582.608 4.00948 582.68 2.00838 582.68 8.39233e-05L404.32 6.86646e-05C404.32 2.00837 404.392 4.00946 404.536 6.00007Z" fill="#F3EDE1"/>
<path d="M424.9 -9.91821e-05C424.9 17.6103 432.127 34.4994 444.992 46.9518C457.857 59.4042 475.306 66.3999 493.5 66.3999C511.694 66.3999 529.142 59.4042 542.007 46.9518C554.872 34.4994 562.1 17.6103 562.1 -9.15527e-05L493.5 -9.91821e-05H424.9Z" fill="#C6A272"/>
<path fill-rule="evenodd" clip-rule="evenodd" d="M431.21 5.9999C432.633 19.7607 438.924 32.7277 449.165 42.6406C460.891 53.9904 476.835 60.3999 493.5 60.3999C510.164 60.3999 526.109 53.9904 537.835 42.6406C548.076 32.7277 554.367 19.7607 555.79 5.99991L431.21 5.9999ZM425.18 5.9999C426.624 21.4102 433.597 35.9215 444.992 46.9518C457.857 59.4042 475.306 66.3999 493.5 66.3999C511.694 66.3999 529.142 59.4042 542.007 46.9518C553.403 35.9216 560.376 21.4102 561.82 5.99991C562.006 4.01301 562.1 2.01116 562.1 -9.15527e-05L424.9 -9.91821e-05C424.9 2.01115 424.994 4.013 425.18 5.9999Z" fill="#F3EDE1"/>
<path d="M445.48 -1.90735e-05C445.48 12.3272 450.539 24.1496 459.545 32.8663C468.55 41.583 480.764 46.48 493.5 46.48C506.236 46.48 518.45 41.583 527.455 32.8663C536.461 24.1496 541.52 12.3273 541.52 -1.14441e-05L493.5 -1.90735e-05H445.48Z" fill="#C6A272"/>
<path fill-rule="evenodd" clip-rule="evenodd" d="M451.944 5.99998C453.261 14.4649 457.345 22.387 463.718 28.5551C471.584 36.1692 482.294 40.48 493.5 40.48C504.706 40.48 515.416 36.1692 523.282 28.5551C529.655 22.387 533.739 14.4649 535.056 5.99999L451.944 5.99998ZM445.882 5.99998C447.242 16.1135 452.013 25.5761 459.545 32.8663C468.55 41.583 480.764 46.48 493.5 46.48C506.236 46.48 518.45 41.583 527.455 32.8663C534.987 25.5761 539.758 16.1135 541.118 5.99999C541.385 4.02111 541.52 2.01731 541.52 -1.14441e-05L445.48 -1.90735e-05C445.48 2.0173 445.616 4.0211 445.882 5.99998Z" fill="#F3EDE1"/>
</svg>
